<svg width="230" height="176" viewBox="0 0 230 176" fill="none" xmlns="http://www.w3.org/2000/svg">
<path d="M91.2834 26.6498C94.8072 16.2907 99.4857 -1.82908 90.0098 8.56392" stroke="#47C17E" stroke-width="2"/>
<path d="M75.1073 26.7772C75.6592 18.4985 74.7507 3.97885 66.7012 12.1302" stroke="#47C17E" stroke-width="2"/>
<circle cx="88.735" cy="10.0924" r="3.82096" fill="#4BFF9C"/>
<circle cx="64.028" cy="13.6588" r="3.82096" fill="#4BFF9C"/>
<ellipse cx="114.629" cy="142.375" rx="114.629" ry="33.6244" fill="#D9D9D9"/>
<path d="M34.4785 100.522C33.3747 96.4884 34.3002 84.3463 46.8329 68.0435C43.6913 67.1095 37.7646 64.248 39.1911 60.2742C40.8044 46.2641 44.8716 15.9766 48.234 6.9082C49.1256 7.88467 53.1758 13.7095 62.2442 29.1971C67.2963 27.7537 82.5717 25.2997 103.256 27.0319C107.459 20.324 116.145 6.9082 117.266 6.9082C118.387 6.9082 120.875 21.7675 121.978 29.1971C125.598 36.0591 129.744 47.2069 128.698 55.6891C142.463 55.4344 173.74 60.1978 188.718 81.2895L86.0615 113.64L34.4785 100.522Z" fill="#4BFF9C"/>
<path d="M128.698 55.6891C129.744 47.2069 125.598 36.0591 121.978 29.1971C120.875 21.7675 118.387 6.9082 117.266 6.9082C116.145 6.9082 107.459 20.324 103.256 27.0319C82.5717 25.2997 67.2963 27.7537 62.2442 29.1971C53.1758 13.7095 49.1256 7.88467 48.234 6.9082C44.8716 15.9766 40.8044 46.2641 39.1911 60.2742C37.7646 64.248 43.6913 67.1095 46.8329 68.0435C34.3002 84.3463 33.3747 96.4884 34.4785 100.522L86.0615 113.64L188.718 81.2895C173.74 60.1978 142.463 55.4344 128.698 55.6891ZM128.698 55.6891C127.976 61.5338 124.79 66.1128 117.266 67.152C120.726 66.9822 127.858 64.4518 128.698 55.6891Z" stroke="#5ADD95" stroke-width="2"/>
<path d="M172.795 23.0837C148.341 38.0619 162.606 59.0432 172.795 67.6616L178.145 70.2088C172.268 63.5858 161.466 47.5378 165.281 36.3297C170.05 22.3195 191.518 15.9513 191.518 8.4367C191.518 0.92215 176.235 -0.351503 172.159 2.1958C168.898 4.23365 170.8 5.84696 172.159 6.39889C182.56 5.71961 197.249 8.10558 172.795 23.0837Z" fill="#51B57E" stroke="#51B57E" stroke-width="2"/>
<path d="M81.5846 53.417C80.3381 53.417 79.9089 53.4424 79.8449 53.4893C79.815 53.5112 79.7893 53.5278 79.7762 53.617C79.7399 53.8646 79.9155 54.3036 80.1676 54.7394C80.3614 55.0745 80.4897 55.2292 80.6432 55.4128C80.7621 55.5551 80.8488 55.6658 80.9298 55.6872C80.9755 55.6993 81.0361 55.6832 81.0836 55.6577C81.2627 55.5613 81.3188 55.2994 81.409 55.1108C81.5022 54.9157 81.5671 54.6242 81.6909 54.3971C81.8868 54.0375 81.8924 53.8793 81.8755 53.7637C81.8552 53.6255 81.3398 53.6735 81.0762 53.733C80.8845 53.7763 80.8406 54.083 80.7767 54.2627C80.7507 54.3359 80.7637 54.4662 80.789 54.5401C80.8144 54.614 80.8652 54.6309 80.9464 54.6396C81.0276 54.6484 81.1377 54.6484 81.2028 54.6314C81.268 54.6145 81.2849 54.5806 81.328 54.5201" stroke="black" stroke-width="5" stroke-linecap="round"/>
<path d="M81.0938 56.0713C73.7916 60.3593 59.7729 66.3624 62.1164 56.0713" stroke="black" stroke-width="3"/>
<path d="M80.3293 55.5995C88.0282 59.126 102.583 63.6787 99.2092 53.6778" stroke="black" stroke-width="3"/>
<path d="M89.5 42.6978L109.932 45.573" stroke="black" stroke-width="3"/>
<path d="M72.0134 44.539L52.5645 48.798" stroke="black" stroke-width="3"/>
<path d="M133.312 98.4839C167.722 87.0141 157.018 67.5004 146.616 58.4023C167.147 56.7497 183.026 72.9707 188.462 81.4169L133.312 98.4839Z" fill="#5ADD95"/>
<path d="M85.716 113.209L189.391 81.3677L213.209 105.058L114.246 140.975L85.716 113.209L61.7714 134.224L6.87695 115.502L35.0247 100.6L85.716 113.209Z" fill="#D3A8A8"/>
<path d="M85.4629 164.919V112.954L114.247 140.974L188.756 113.718V126.2L85.4629 164.919Z" fill="#624545"/>
<path d="M36.0449 150.654L85.59 164.791V113.208L62.2822 133.46L36.0449 125.436V150.654Z" fill="#624545"/>
<path d="M113.974 28.9423C109.86 31.8513 106.581 29.6754 105.456 28.2238L115.592 11.6988L113.974 28.9423Z" fill="#47C17E"/>
<path d="M59.5096 31.0612C56.9097 34.051 53.1662 33.6718 51.6195 33.1085L50.3281 14.2461L59.5096 31.0612Z" fill="#47C17E"/>
<path d="M44.5375 66.5387C44.4619 66.5138 44.3908 66.4895 44.3242 66.4658C44.3954 66.4901 44.4664 66.5145 44.5375 66.5387C52.8505 69.2774 115.266 78.998 129.149 56.5312C139.752 65.2252 110.414 89.0345 44.5375 66.5387Z" fill="#5ADD95"/>
</svg>
