<svg width="196" height="167" viewBox="0 0 196 167" fill="none" xmlns="http://www.w3.org/2000/svg">
<path d="M78.0401 25.2303C81.0527 15.4445 85.0525 -1.67275 76.9512 8.14519" stroke="#47C17E" stroke-width="1.92509"/>
<path d="M64.2121 25.3509C64.6839 17.5302 63.9072 3.81395 57.0254 11.5143" stroke="#47C17E" stroke-width="1.92509"/>
<ellipse cx="75.8624" cy="9.58903" rx="3.26667" ry="3.60954" fill="#4BFF9C"/>
<ellipse cx="54.7374" cy="12.9582" rx="3.26667" ry="3.60954" fill="#4BFF9C"/>
<ellipse cx="98" cy="134.553" rx="98" ry="31.7639" fill="#D9D9D9"/>
<path d="M29.4755 95.0152C28.5318 91.2051 29.3231 79.7348 40.0377 64.3341C37.3518 63.4518 32.2849 60.7487 33.5044 56.9948C34.8837 43.7598 38.3609 15.1482 41.2356 6.58154C41.9978 7.50398 45.4604 13.0065 53.2133 27.6372C57.5326 26.2736 70.592 23.9555 88.2755 25.5918C91.8689 19.255 99.2951 6.58154 100.253 6.58154C101.212 6.58154 103.339 20.6186 104.282 27.6372C107.377 34.1195 110.921 44.6505 110.027 52.6633C121.796 52.4227 148.535 56.9226 161.34 76.8472L73.5756 107.408L29.4755 95.0152Z" fill="#4BFF9C"/>
<path d="M110.027 52.6633C110.921 44.6505 107.377 34.1195 104.282 27.6372C103.339 20.6186 101.212 6.58154 100.253 6.58154C99.2951 6.58154 91.8689 19.255 88.2755 25.5918C70.592 23.9555 57.5326 26.2736 53.2133 27.6372C45.4604 13.0065 41.9978 7.50398 41.2356 6.58154C38.3609 15.1482 34.8837 43.7598 33.5044 56.9948C32.2849 60.7487 37.3518 63.4518 40.0377 64.3341C29.3231 79.7348 28.5318 91.2051 29.4755 95.0152L73.5755 107.408L161.34 76.8472C148.535 56.9226 121.796 52.4227 110.027 52.6633ZM110.027 52.6633C109.41 58.1846 106.686 62.5102 100.253 63.4919C103.212 63.3315 109.308 60.9412 110.027 52.6633Z" stroke="#5ADD95" stroke-width="1.92509"/>
<path d="M147.729 21.8618C126.823 36.0112 139.018 55.8316 147.729 63.9731L152.303 66.3794C147.278 60.1229 138.044 44.9628 141.305 34.3748C145.382 21.1399 163.736 15.124 163.736 8.02522C163.736 0.926458 150.669 -0.276722 147.185 2.12964C144.397 4.05472 146.024 5.57877 147.185 6.10016C156.078 5.45846 168.636 7.71242 147.729 21.8618Z" fill="#51B57E" stroke="#51B57E" stroke-width="1.92509"/>
<path d="M69.7493 50.5166C68.6836 50.5166 68.3167 50.5406 68.262 50.5849C68.2364 50.6056 68.2145 50.6213 68.2033 50.7055C68.1722 50.9395 68.3224 51.3541 68.5379 51.7659C68.7035 52.0824 68.8132 52.2285 68.9445 52.402C69.0462 52.5364 69.1203 52.641 69.1895 52.6612C69.2285 52.6726 69.2804 52.6574 69.321 52.6333C69.4741 52.5423 69.5221 52.2949 69.5992 52.1167C69.6789 51.9324 69.7344 51.6571 69.8402 51.4425C70.0077 51.1028 70.0125 50.9533 69.998 50.8441C69.9807 50.7136 69.5401 50.7589 69.3147 50.8152C69.1508 50.8561 69.1133 51.1457 69.0586 51.3155C69.0364 51.3846 69.0475 51.5078 69.0692 51.5776C69.0909 51.6474 69.1343 51.6634 69.2037 51.6716C69.2731 51.6798 69.3672 51.6798 69.4229 51.6638C69.4786 51.6478 69.4931 51.6159 69.53 51.5587" stroke="black" stroke-width="1.20318" stroke-linecap="round"/>
<path d="M69.3284 53.0239C63.0854 57.0746 51.1004 62.7456 53.1039 53.0239" stroke="black" stroke-width="1.92509"/>
<path d="M68.6761 52.5781C75.2582 55.9095 87.7013 60.2103 84.8171 50.7628" stroke="black" stroke-width="1.92509"/>
<path d="M76.5156 40.3906L93.9835 43.1068" stroke="black" stroke-width="1.92509"/>
<path d="M61.5651 42.1299L44.9376 46.1532" stroke="black" stroke-width="1.92509"/>
<path d="M113.973 93.0898C143.39 82.2547 134.239 63.8207 125.347 55.226C142.899 53.6649 156.474 68.9884 161.122 76.9672L113.973 93.0898Z" fill="#5ADD95"/>
<path d="M73.2811 107L161.917 76.9204L182.279 99.2995L97.6722 133.229L73.2811 107L52.81 126.852L5.87891 109.166L29.9433 95.0884L73.2811 107Z" fill="#D3A8A8"/>
<path d="M73.0645 155.849V106.759L97.6733 133.229L161.373 107.481V119.272L73.0645 155.849Z" fill="#624545"/>
<path d="M30.8164 142.373L73.1742 155.729V107L53.2475 126.131L30.8164 118.551V142.373Z" fill="#624545"/>
<path d="M97.4391 27.3964C93.9216 30.1444 91.1183 28.0889 90.1563 26.7176L98.8224 11.107L97.4391 27.3964Z" fill="#47C17E"/>
<path d="M50.8749 29.3979C48.6522 32.2223 45.4518 31.864 44.1294 31.3319L43.0254 13.5132L50.8749 29.3979Z" fill="#47C17E"/>
<path d="M38.0749 62.9122C38.0103 62.8887 37.9495 62.8657 37.8926 62.8433C37.9534 62.8663 38.0142 62.8893 38.0749 62.9122C45.182 65.4994 98.5427 74.6821 110.413 53.4585C119.477 61.6714 94.3947 84.1633 38.0749 62.9122Z" fill="#5ADD95"/>
<path d="M98 46.7208L123.698 37.5767" stroke="black" stroke-width="0.240636"/>
<path d="M97.9448 50.9299L124.571 54.8348" stroke="black" stroke-width="0.240636"/>
<path d="M96.6956 54.7787L120.544 68.8152" stroke="black" stroke-width="0.240636"/>
<path d="M40.3985 57.7403L19.0262 75.9666" stroke="black" stroke-width="0.240636"/>
<path d="M39.16 53.7592L12.9116 60.0565" stroke="black" stroke-width="0.240636"/>
<path d="M39.1562 49.6706L12.4136 45.3958" stroke="black" stroke-width="0.240636"/>
</svg>
