<svg width="26" height="27" viewBox="0 0 26 27" fill="none" xmlns="http://www.w3.org/2000/svg">
<rect y="0.681641" width="26" height="26" rx="13" fill="#16A34A"/>
<path d="M6.70008 15.0668C6.63665 15.1301 6.58633 15.2054 6.552 15.2882C6.51767 15.371 6.5 15.4597 6.5 15.5494C6.5 15.639 6.51767 15.7278 6.552 15.8106C6.58633 15.8934 6.63665 15.9686 6.70008 16.032L9.97375 19.3063C10.2405 19.5724 10.6722 19.5724 10.9389 19.3063L19.3002 10.9443C19.4281 10.8164 19.5 10.6429 19.5 10.4621C19.5 10.2812 19.4281 10.1077 19.3002 9.97978L18.0041 8.68365C17.8762 8.55574 17.7027 8.48389 17.5218 8.48389C17.3409 8.48389 17.1675 8.55574 17.0396 8.68365L10.4563 15.2669L8.96076 13.7707C8.83274 13.6427 8.65916 13.5708 8.47817 13.5708C8.29718 13.5708 8.12359 13.6427 7.99558 13.7707L6.70008 15.0668Z" fill="#BBF7D0"/>
</svg>
