<svg width="182" height="41" viewBox="0 0 182 41" fill="none" xmlns="http://www.w3.org/2000/svg">
<path d="M10.8816 0.0199986C17.4736 0.0199986 20.8016 3.284 20.8016 9.78C20.8016 10.612 20.3856 11.06 19.5856 11.156L17.2176 11.348C16.2256 11.412 15.7136 11.028 15.6816 10.132C15.4896 6.644 13.9536 4.884 11.0096 4.884C7.74563 4.884 6.11363 7.188 6.11363 11.764V21.236C6.11363 25.46 7.55363 27.54 10.4976 27.54C13.8256 27.54 15.5856 25.876 15.8096 22.516C15.8736 21.492 16.4176 21.044 17.4096 21.14L19.5856 21.428C20.3856 21.492 20.8016 21.972 20.8016 22.836C20.8016 29.236 17.3136 32.404 10.4016 32.404C4.06563 32.404 0.897625 28.564 0.897625 20.82V11.38C0.897625 3.828 4.22563 0.0199986 10.8816 0.0199986ZM34.0729 7.412C40.9529 7.412 44.4089 11.508 44.4089 19.668C44.4089 28.084 40.9529 32.276 34.0729 32.276C27.2889 32.276 23.9289 28.084 23.9289 19.668C23.9289 11.508 27.2889 7.412 34.0729 7.412ZM34.0729 12.02C30.5529 12.02 28.8249 14.58 28.8249 19.668C28.8249 25.012 30.5529 27.668 34.0729 27.668C37.7209 27.668 39.5449 25.012 39.5449 19.668C39.5449 14.58 37.7209 12.02 34.0729 12.02ZM66.2381 30.804C66.2381 31.7 65.7581 32.116 64.8621 32.116H62.6221C61.7581 32.116 61.3101 31.732 61.2461 30.964C59.3261 31.732 57.4701 32.084 55.6781 32.084C50.3021 32.084 47.6141 28.212 47.6141 20.468C47.6141 12.116 50.5581 7.924 56.5101 7.924C57.1821 7.924 57.9181 8.02 58.7501 8.148C59.5501 8.276 60.3821 8.468 61.2781 8.692V1.556C61.2781 0.787998 61.6301 0.371998 62.3981 0.371998H65.0541C65.8221 0.371998 66.2381 0.755999 66.2381 1.524V30.804ZM56.4781 27.444C58.1741 27.444 59.7741 27.06 61.2781 26.26V13.396C59.8061 12.82 58.4941 12.5 57.4061 12.5C54.1741 12.5 52.5421 15.124 52.5421 20.34C52.5421 25.076 53.8541 27.444 56.4781 27.444ZM79.2431 7.316C85.0671 7.316 87.9151 11.22 87.8191 18.964C87.8191 19.988 87.2751 20.5 86.1871 20.5H74.7631V22.42C74.7631 25.844 76.1071 27.54 78.8591 27.54C81.6431 27.54 83.0831 26.644 83.2111 24.788C83.2111 24.052 83.6911 23.732 84.6191 23.828L86.7311 24.116C87.0831 24.18 87.3711 24.34 87.5631 24.596C87.7551 24.852 87.8511 25.108 87.8511 25.396C87.6591 27.636 86.8271 29.364 85.3231 30.58C83.7871 31.796 81.6111 32.404 78.7631 32.404C72.8111 32.404 69.8351 29.204 69.8351 22.772V17.108C69.8351 10.58 72.9711 7.316 79.2431 7.316ZM79.0511 11.956C76.2991 11.956 74.8591 13.364 74.7631 16.116H82.9871C82.9231 13.364 81.6111 11.956 79.0511 11.956ZM92.7736 32.116C91.7496 32.116 91.2696 31.636 91.2696 30.644V1.812C91.2696 0.819998 91.7816 0.307999 92.8376 0.307999H95.0136C95.9736 0.307999 96.4536 0.787998 96.4536 1.716V27.54H105.318C106.15 27.54 106.598 27.988 106.598 28.852V30.932C106.598 31.732 106.15 32.116 105.286 32.116H92.7736ZM115.24 30.644C115.24 31.636 114.696 32.116 113.608 32.116H111.656C110.632 32.116 110.12 31.636 110.12 30.676V9.044C110.12 7.988 110.664 7.444 111.752 7.444H113.608C114.696 7.444 115.24 7.988 115.24 9.076V30.644ZM115.24 4.308C115.24 5.3 114.632 5.78 113.448 5.78H111.656C110.632 5.78 110.12 5.3 110.12 4.34V2.196C110.12 1.172 110.664 0.627998 111.752 0.627998H113.512C114.664 0.627998 115.24 1.172 115.24 2.228V4.308ZM128.754 7.06C133.65 7.06 136.082 9.716 136.082 14.996V30.868C136.082 31.7 135.666 32.116 134.866 32.116H132.466C131.666 32.116 131.282 31.732 131.282 30.932V14.996C131.282 12.596 130.194 11.38 128.018 11.38C126.514 11.38 125.234 11.956 124.146 13.108V30.868C124.146 31.7 123.73 32.116 122.962 32.116H120.338C119.538 32.116 119.154 31.7 119.154 30.868V8.404C119.154 7.54 119.57 7.092 120.434 7.092H122.93C123.73 7.092 124.146 7.508 124.146 8.308V8.66C125.266 7.604 126.802 7.06 128.754 7.06ZM156.794 7.572C157.498 7.572 157.882 7.956 157.882 8.692V32.5C157.882 37.876 155.194 40.564 149.818 40.564C145.978 40.564 143.226 39.892 141.626 38.548C141.018 38.004 140.986 37.492 141.562 37.012L143.834 34.996C144.282 34.644 144.794 34.644 145.37 34.996C145.754 35.252 146.33 35.444 147.034 35.572C147.738 35.732 148.602 35.796 149.562 35.796C151.674 35.796 152.73 34.708 152.73 32.5V30.036C151.322 31.508 149.882 32.212 148.41 32.212C142.778 32.212 139.994 27.924 139.994 19.284C139.994 11.476 142.874 7.572 148.698 7.572C150.33 7.572 151.674 7.924 152.73 8.596C152.826 7.924 153.21 7.572 153.914 7.572H156.794ZM148.666 27.572C150.426 27.764 151.834 26.836 152.89 24.852V14.548C152.442 13.78 151.898 13.172 151.226 12.788C150.522 12.404 149.818 12.212 149.082 12.18C147.77 12.372 146.746 13.044 146.042 14.228C145.338 15.412 144.986 17.108 144.986 19.348C144.986 24.596 146.202 27.348 148.666 27.572ZM171.573 7.412C178.453 7.412 181.909 11.508 181.909 19.668C181.909 28.084 178.453 32.276 171.573 32.276C164.789 32.276 161.429 28.084 161.429 19.668C161.429 11.508 164.789 7.412 171.573 7.412ZM171.573 12.02C168.053 12.02 166.325 14.58 166.325 19.668C166.325 25.012 168.053 27.668 171.573 27.668C175.221 27.668 177.045 25.012 177.045 19.668C177.045 14.58 175.221 12.02 171.573 12.02Z" fill="#22C55E"/>
</svg>
