<svg width="48" height="49" viewBox="0 0 48 49" fill="none" xmlns="http://www.w3.org/2000/svg">
<rect y="0.5" width="48" height="48" rx="24" fill="#16A34A"/>
<path d="M12.3694 27.0568C12.2523 27.1738 12.1594 27.3127 12.096 27.4655C12.0326 27.6184 12 27.7823 12 27.9478C12 28.1133 12.0326 28.2771 12.096 28.43C12.1594 28.5829 12.2523 28.7218 12.3694 28.8387L18.4131 34.8836C18.9056 35.3749 19.7024 35.3749 20.1949 34.8836L35.6312 19.4462C35.8673 19.21 36 18.8898 36 18.5558C36 18.2219 35.8673 17.9016 35.6312 17.6655L33.2383 15.2726C33.0022 15.0365 32.6819 14.9038 32.348 14.9038C32.0141 14.9038 31.6938 15.0365 31.4576 15.2726L19.304 27.4262L16.5429 24.664C16.3066 24.4278 15.9861 24.2951 15.652 24.2951C15.3179 24.2951 14.9974 24.4278 14.7611 24.664L12.3694 27.0568Z" fill="#BBF7D0"/>
</svg>
