<svg width="20" height="21" viewBox="0 0 20 21" fill="none" xmlns="http://www.w3.org/2000/svg">
<g clip-path="url(#clip0_322_626)">
<g clip-path="url(#clip1_322_626)">
<path d="M17.5 10.5C17.5 9.51509 17.306 8.53982 16.9291 7.62987C16.5522 6.71993 15.9997 5.89314 15.3033 5.1967C14.6069 4.50026 13.7801 3.94781 12.8701 3.5709C11.9602 3.19399 10.9849 3 10 3C9.01509 3 8.03982 3.19399 7.12987 3.5709C6.21993 3.94781 5.39314 4.50026 4.6967 5.1967C4.00026 5.89314 3.44781 6.71993 3.0709 7.62987C2.69399 8.53982 2.5 9.51509 2.5 10.5C2.5 11.4849 2.69399 12.4602 3.0709 13.3701C3.44781 14.2801 4.00026 15.1069 4.6967 15.8033C5.39314 16.4997 6.21993 17.0522 7.12987 17.4291C8.03982 17.806 9.01509 18 10 18C10.9849 18 11.9602 17.806 12.8701 17.4291C13.7801 17.0522 14.6069 16.4997 15.3033 15.8033C15.9997 15.1069 16.5522 14.2801 16.9291 13.3701C17.306 12.4602 17.5 11.4849 17.5 10.5ZM0 10.5C0 7.84784 1.05357 5.3043 2.92893 3.42893C4.8043 1.55357 7.34784 0.5 10 0.5C12.6522 0.5 15.1957 1.55357 17.0711 3.42893C18.9464 5.3043 20 7.84784 20 10.5C20 13.1522 18.9464 15.6957 17.0711 17.5711C15.1957 19.4464 12.6522 20.5 10 20.5C7.34784 20.5 4.8043 19.4464 2.92893 17.5711C1.05357 15.6957 0 13.1522 0 10.5ZM10 13.625C10.8288 13.625 11.6237 13.2958 12.2097 12.7097C12.7958 12.1237 13.125 11.3288 13.125 10.5C13.125 9.6712 12.7958 8.87634 12.2097 8.29029C11.6237 7.70424 10.8288 7.375 10 7.375C9.1712 7.375 8.37634 7.70424 7.79029 8.29029C7.20424 8.87634 6.875 9.6712 6.875 10.5C6.875 11.3288 7.20424 12.1237 7.79029 12.7097C8.37634 13.2958 9.1712 13.625 10 13.625ZM10 4.875C11.4918 4.875 12.9226 5.46763 13.9775 6.52252C15.0324 7.57742 15.625 9.00816 15.625 10.5C15.625 11.9918 15.0324 13.4226 13.9775 14.4775C12.9226 15.5324 11.4918 16.125 10 16.125C8.50816 16.125 7.07742 15.5324 6.02252 14.4775C4.96763 13.4226 4.375 11.9918 4.375 10.5C4.375 9.00816 4.96763 7.57742 6.02252 6.52252C7.07742 5.46763 8.50816 4.875 10 4.875ZM8.75 10.5C8.75 10.1685 8.8817 9.85054 9.11612 9.61612C9.35054 9.3817 9.66848 9.25 10 9.25C10.3315 9.25 10.6495 9.3817 10.8839 9.61612C11.1183 9.85054 11.25 10.1685 11.25 10.5C11.25 10.8315 11.1183 11.1495 10.8839 11.3839C10.6495 11.6183 10.3315 11.75 10 11.75C9.66848 11.75 9.35054 11.6183 9.11612 11.3839C8.8817 11.1495 8.75 10.8315 8.75 10.5Z" fill="#22C55E"/>
</g>
</g>
<defs>
<clipPath id="clip0_322_626">
<rect width="20" height="20" fill="white" transform="translate(0 0.5)"/>
</clipPath>
<clipPath id="clip1_322_626">
<path d="M0 0.5H20V20.5H0V0.5Z" fill="white"/>
</clipPath>
</defs>
</svg>
