<svg width="185" height="201" viewBox="0 0 185 201" fill="none" xmlns="http://www.w3.org/2000/svg">
<path d="M170.973 17.0957C162.1 50.7316 124.953 117.099 47.3561 113.483L170.973 17.0957Z" fill="#D9D9D9"/>
<path d="M170.973 17.0957C162.1 50.7316 124.953 117.099 47.3561 113.483L170.973 17.0957Z" fill="#D9D9D9"/>
<path d="M171.208 17.2118C136.424 17.6224 63.0052 37.4785 47.6056 113.618L171.208 17.2118Z" fill="#D9D9D9"/>
<path d="M171.208 17.2118C136.424 17.6224 63.0052 37.4785 47.6056 113.618L171.208 17.2118Z" fill="#D9D9D9"/>
<path d="M15.9059 89.1822L60.1798 105.331L56.1045 163.359L15.9059 89.1822Z" fill="#D9D9D9"/>
<circle cx="137.904" cy="34.6141" r="8.53425" transform="rotate(46.4762 137.904 34.6141)" fill="white"/>
<ellipse cx="91.6315" cy="188.291" rx="72.4928" ry="12.4688" fill="#D9D9D9"/>
</svg>
