<svg width="101" height="92" viewBox="0 0 101 92" fill="none" xmlns="http://www.w3.org/2000/svg">
<g clip-path="url(#clip0_180_422)">
<path d="M54.4934 33.3465C56.8007 28.7429 62.9598 23.498 67.62 25.8336L99.8658 41.5685C109.308 47.0668 106.022 53.4126 103.715 58.0161L75.8634 113.586C73.5561 118.189 67.9079 120.028 63.2478 117.692L30.9024 101.48C24.0376 98.0565 21.6607 93.3717 23.9878 87.9309L54.4934 33.3465Z" fill="#1C88C3"/>
<path d="M97.6329 40.6576L65.4719 24.5385C60.8383 22.2161 55.1994 24.0897 52.8771 28.7233L24.8439 84.6555C22.5216 89.289 24.3952 94.9279 29.0287 97.2503L61.1898 113.369C65.8233 115.692 71.4622 113.818 73.7846 109.184L101.818 53.2523C104.14 48.6188 102.266 42.9799 97.6329 40.6576Z" fill="#2999D7"/>
<path d="M80.074 31.8911L61.3047 78.9874L66.7888 25.0259L80.074 31.8911Z" fill="#1C88C3"/>
<path d="M12.3257 9.98227C13.1371 4.78289 18.0415 1.23068 23.28 2.04819L60.889 7.98615C66.1275 8.80366 71.8622 13.9475 71.0507 19.1469L62.1716 76.0427C61.3602 81.2421 56.4558 84.7943 51.2173 83.9768L11.4625 77.7727C2.5787 76.2179 2.57324 71.4529 4.16274 62.7189L12.3257 9.98227Z" fill="#83D7FF"/>
<mask id="mask0_180_422" style="mask-type:alpha" maskUnits="userSpaceOnUse" x="3" y="1" width="64" height="79">
<path d="M58.6115 7.56191L23.0673 2.01491C17.9463 1.21573 13.1471 4.71926 12.3479 9.84025L3.96468 63.5582C3.1655 68.6792 6.66903 73.4785 11.79 74.2776L47.3342 79.8246C52.4552 80.6238 57.2544 77.1203 58.0536 71.9993L66.4368 18.2813C67.236 13.1603 63.7324 8.36109 58.6115 7.56191Z" fill="white"/>
</mask>
<g mask="url(#mask0_180_422)">
<path d="M58.6095 7.56191L23.0653 2.01491C17.9444 1.21573 13.1451 4.71926 12.3459 9.84025L3.96273 63.5582C3.16355 68.6792 6.66707 73.4785 11.7881 74.2776L47.3322 79.8246C52.4532 80.6238 57.2525 77.1203 58.0516 71.9993L66.4348 18.2813C67.234 13.1603 63.7305 8.36109 58.6095 7.56191Z" fill="#83D7FF"/>
<path fill-rule="evenodd" clip-rule="evenodd" d="M59.642 61.4108L57.5411 74.8726C55.9037 85.3645 55.6777 89.2868 48.6291 88.1868L27.0879 84.825C30.0798 80.1737 32.8895 73.7911 41.983 74.19C49.6344 74.1774 50.7797 69.6093 51.99 66.6516C54.0515 61.6132 57.7743 60.8488 59.642 61.4108Z" fill="#A9E2FF"/>
<path fill-rule="evenodd" clip-rule="evenodd" d="M10.4244 80.8439L10.7402 83.0657L-0.856197 86.8369C-6.11137 85.9409 -6.72846 74.6538 -7.91602 69.7843C-4.09497 58.7943 8.2373 48.2545 14.6983 46.8937C15.8035 46.6609 18.4496 46.266 19.4718 46.1004C25.666 45.0967 27.0854 43.1137 33.734 34.0454C40.8643 24.3202 58.2852 26.0874 67.8045 27.866C69.264 29.3912 67.8343 32.5863 65.1172 44.676C56.8035 44.3567 47.4019 41.4423 42.7304 52.6352C39.3862 60.6479 33.1303 61.7876 26.0519 62.8881C24.0843 63.194 23.3539 63.3839 21.4354 63.8483C12.5934 65.9889 10.5371 74.5073 10.4244 80.8439Z" fill="#A9E2FF"/>
<path d="M30.1287 22.9094C31.5385 20.8661 35.8316 22.0382 36.5522 24.4138L38.1724 29.756C38.3671 30.3979 38.7737 30.9548 39.3258 31.3357L43.9209 34.5059C45.9643 35.9157 45.4735 39.0623 43.0978 39.7828L37.7556 41.4031C37.1137 41.5978 36.5569 42.0044 36.1759 42.5565L33.0057 47.1516C31.596 49.1949 27.3276 48.6314 26.607 46.2558L26.1085 40.9863C25.9138 40.3444 25.5072 39.7875 24.9551 39.4066L20.3601 36.2364C18.3167 34.8267 18.8075 31.68 21.1831 30.9595L26.5253 29.3392C27.1672 29.1445 27.7241 28.7379 28.105 28.1858L30.1287 22.9094Z" fill="#2999D7"/>
<path d="M29.7947 23.1365C31.2045 21.0931 34.3512 21.5839 35.0717 23.9595L36.692 29.3018C36.8866 29.9436 37.2933 30.5005 37.8454 30.8814L42.4404 34.0516C44.4838 35.4614 43.993 38.6081 41.6174 39.3286L36.2751 40.9489C35.6333 41.1435 35.0764 41.5501 34.6955 42.1023L31.5253 46.6973C30.1155 48.7407 26.9688 48.2499 26.2483 45.8742L24.628 40.532C24.4334 39.8901 24.0267 39.3333 23.4746 38.9524L18.8796 35.7822C16.8362 34.3724 17.327 31.2257 19.7026 30.5052L25.0449 28.8849C25.6867 28.6902 26.2436 28.2836 26.6245 27.7315L29.7947 23.1365Z" fill="#30B0F5"/>
<path d="M44.9824 47.3503C46.1239 47.0238 48.6763 47.751 47.905 49.7306L46.8805 52.1961C46.7574 52.4924 46.7384 52.8216 46.8266 53.13L47.5608 55.697C47.8873 56.8385 46.75 57.8517 45.6536 57.3961L44.275 56.973L43.289 56.5672C42.9928 56.4442 42.5626 56.2296 42.2542 56.3178L39.6872 57.052C38.5457 57.3784 36.1322 56.4169 36.5878 55.3205L39.0126 52.6793C39.1357 52.383 39.1547 52.0538 39.0665 51.7454L37.8123 47.5951C37.4858 46.4536 39.1431 47.0237 40.2394 47.4793L42.705 48.5038C43.0012 48.6269 43.3304 48.6459 43.6389 48.5576L44.9824 47.3503Z" fill="#2999D7"/>
<path d="M44.7297 47.3688C45.8712 47.0424 46.8844 48.1796 46.4289 49.276L45.4044 51.7415C45.2813 52.0378 45.2623 52.367 45.3505 52.6754L46.0847 55.2424C46.4112 56.3839 45.2739 57.3971 44.1775 56.9415L41.712 55.917C41.4158 55.7939 41.0865 55.7749 40.7781 55.8632L38.2111 56.5973C37.0696 56.9238 36.0564 55.7866 36.512 54.6902L37.5365 52.2247C37.6596 51.9284 37.6786 51.5992 37.5904 51.2908L36.8562 48.7238C36.5297 47.5823 37.667 46.5691 38.7633 47.0247L41.2289 48.0491C41.5251 48.1722 41.8543 48.1912 42.1628 48.103L44.7297 47.3688Z" fill="#30B0F5"/>
</g>
</g>
<defs>
<clipPath id="clip0_180_422">
<rect width="101" height="92" fill="white"/>
</clipPath>
</defs>
</svg>
