<svg width="300" height="300" viewBox="0 0 300 300" fill="none" xmlns="http://www.w3.org/2000/svg">
<mask id="mask0_241_584" style="mask-type:alpha" maskUnits="userSpaceOnUse" x="0" y="0" width="300" height="300">
<rect width="300" height="300" rx="11.5888" transform="matrix(1 0 0 -1 0 300)" fill="#CFCFCF"/>
</mask>
<g mask="url(#mask0_241_584)">
<rect width="300" height="300" rx="11.5888" transform="matrix(1 0 0 -1 -0.585938 300)" fill="url(#paint0_linear_241_584)"/>
<path d="M84.1692 31.6406C61.037 41.6624 18.418 114.817 0 150.141V318.75H292.016C294.993 115.607 279.133 72.0436 270.83 75.655L251.076 95.6308C192.902 56.8981 120.719 56.695 91.899 61.435L84.1692 31.6406Z" fill="url(#paint1_linear_241_584)"/>
<rect width="58.0807" height="73.4304" rx="29.0403" transform="matrix(-0.978388 -0.206779 -0.206779 0.978388 127.52 110.85)" fill="url(#paint2_linear_241_584)"/>
<rect width="31.4895" height="47.7129" rx="15.7448" transform="matrix(-0.978388 -0.206779 -0.206779 0.978388 120.012 119.293)" fill="black"/>
<mask id="mask1_241_584" style="mask-type:alpha" maskUnits="userSpaceOnUse" x="89" y="108" width="32" height="60">
<path d="M89.0163 108.592L107.809 167.729L120.007 136.239L118.025 119.392L89.0163 108.592Z" fill="white"/>
</mask>
<g mask="url(#mask1_241_584)">
<rect width="31.4895" height="47.7129" rx="15.7448" transform="matrix(-0.978388 -0.206779 -0.206779 0.978388 120.012 119.293)" fill="#525252"/>
<ellipse cx="5.59813" cy="5.41423" rx="5.59813" ry="5.41423" transform="matrix(-0.978388 -0.206779 -0.206779 0.978388 116.357 124.746)" fill="#E5E5E5"/>
</g>
<rect x="187.062" y="124.151" width="58.3742" height="75.0165" rx="29.1871" transform="rotate(11.9337 187.062 124.151)" fill="url(#paint3_linear_241_584)"/>
<rect x="190.494" y="135.123" width="31.6487" height="48.7434" rx="15.8243" transform="rotate(11.9337 190.494 135.123)" fill="black"/>
<mask id="mask2_241_584" style="mask-type:alpha" maskUnits="userSpaceOnUse" x="181" y="136" width="43" height="50">
<path d="M223.349 137.826L181.843 185.411L183.552 150.969L192.28 136.03L223.349 137.826Z" fill="white"/>
</mask>
<g mask="url(#mask2_241_584)">
<rect x="190.494" y="135.123" width="31.6487" height="48.7434" rx="15.8243" transform="rotate(11.9337 190.494 135.123)" fill="#525252"/>
<ellipse cx="195.974" cy="148.294" rx="5.62643" ry="5.53117" transform="rotate(11.9337 195.974 148.294)" fill="#E5E5E5"/>
</g>
<path d="M131.695 206.166V206.166C130.846 209.355 130.283 212.671 131.008 215.891C132.766 223.703 138.733 233.925 152.813 239.901C167.372 246.081 186.844 245.913 181.977 230.864V230.864" stroke="black" stroke-width="11.5888"/>
<path d="M130.795 205.844V205.844C130.281 209.104 129.453 212.364 127.488 215.015C122.719 221.448 113.127 228.381 97.8327 228.15C82.018 227.91 64.2795 219.878 74.8193 208.085V208.085" stroke="black" stroke-width="11.5888"/>
<path d="M121.574 194.194C120.559 199.806 123.292 204.337 126.371 207.294C128.643 209.476 132.028 209.937 134.957 208.778C140.86 206.442 143.866 202.893 145.217 199.78C146.435 196.974 145.06 193.837 142.511 192.146C137.725 188.971 132.461 188.252 128.378 188.482C125.075 188.668 122.163 190.938 121.574 194.194Z" fill="url(#paint4_linear_241_584)"/>
<path d="M125.562 191.223C131.56 189.87 137.768 191.521 142.814 195.238C139.09 195.61 137.319 195.405 133.823 194.798C129.987 193.698 127.706 192.755 125.562 191.223Z" fill="white" stroke="white" stroke-width="1.28764"/>
<rect x="220.898" y="230.265" width="49.9069" height="5.27344" rx="2.63672" transform="rotate(-7.40772 220.898 230.265)" fill="black"/>
<rect x="216.891" y="243.492" width="49.9069" height="5.27344" rx="2.63672" transform="rotate(22.403 216.891 243.492)" fill="black"/>
<rect x="210.879" y="257.227" width="49.9069" height="5.27344" rx="2.63672" transform="rotate(61.506 210.879 257.227)" fill="black"/>
<rect x="36.2344" y="217.813" width="49.9069" height="5.27344" rx="2.63672" transform="rotate(166.05 36.2344 217.813)" fill="black"/>
<rect x="38.707" y="206.411" width="49.9069" height="5.27344" rx="2.63672" transform="rotate(-164.139 38.707 206.411)" fill="black"/>
<rect x="42.7969" y="194.479" width="49.9069" height="5.27344" rx="2.63672" transform="rotate(-125.036 42.7969 194.479)" fill="black"/>
<path d="M250.195 100.078L271.845 79.1016C272.267 98.6098 268.149 105.235 266.036 106.109C263.132 108.207 250.459 103.662 250.195 100.078Z" fill="#59B066"/>
<path d="M88.9044 63.9991L82.8748 36.4376C75.5116 47.4303 63.6614 69.3758 75.1662 69.2157C86.671 69.0556 89.1187 65.6713 88.9044 63.9991Z" fill="#59B066"/>
<path d="M202.255 79.2261C205.033 71.8688 209.375 52.3933 204.517 33.3502" stroke="#59B066" stroke-width="7.72586"/>
<circle cx="203.026" cy="29.5895" r="6.14732" transform="rotate(-20.4722 203.026 29.5895)" fill="#6AFF80"/>
<path d="M137.727 66.7557C137.331 58.9013 133.523 39.3147 121.455 23.803" stroke="#59B066" stroke-width="7.72586"/>
<circle cx="118.549" cy="20.6968" r="5.52092" transform="rotate(-44.0433 118.549 20.6968)" fill="#6AFF80"/>
</g>
<defs>
<linearGradient id="paint0_linear_241_584" x1="300" y1="150" x2="0" y2="150" gradientUnits="userSpaceOnUse">
<stop stop-color="#79FFE0"/>
<stop offset="1" stop-color="#DDFFF8"/>
</linearGradient>
<linearGradient id="paint1_linear_241_584" x1="146.191" y1="31.6406" x2="146.191" y2="318.75" gradientUnits="userSpaceOnUse">
<stop stop-color="#92FFBA"/>
<stop offset="0.586538" stop-color="#6CFF65"/>
<stop offset="1" stop-color="#72FF43"/>
</linearGradient>
<linearGradient id="paint2_linear_241_584" x1="29.0403" y1="0" x2="29.0403" y2="73.4304" gradientUnits="userSpaceOnUse">
<stop stop-color="white"/>
<stop offset="1" stop-color="#CDE0E1"/>
</linearGradient>
<linearGradient id="paint3_linear_241_584" x1="216.25" y1="124.151" x2="216.25" y2="199.167" gradientUnits="userSpaceOnUse">
<stop stop-color="white"/>
<stop offset="1" stop-color="#CDE0E1"/>
</linearGradient>
<linearGradient id="paint4_linear_241_584" x1="133.782" y1="188.454" x2="133.716" y2="210.216" gradientUnits="userSpaceOnUse">
<stop stop-color="#DB8000"/>
<stop offset="1" stop-color="#754500"/>
</linearGradient>
</defs>
</svg>
