<svg width="266" height="258" viewBox="0 0 266 258" fill="none" xmlns="http://www.w3.org/2000/svg">
<ellipse cx="108.579" cy="229.941" rx="103.047" ry="28.0596" fill="#D9D9D9"/>
<path d="M109.911 250.667C90.7902 249.533 57.5064 243.227 77.3374 227.071C97.1684 210.916 51.934 223.882 26.8379 232.385" stroke="#6B4444" stroke-width="3.69989"/>
<mask id="mask0_419_399" style="mask-type:alpha" maskUnits="userSpaceOnUse" x="0" y="161" width="77" height="81">
<path d="M76.4148 201.563C76.4148 223.458 59.3088 241.207 38.2074 241.207C17.106 241.207 0 223.458 0 201.563C0 179.668 17.106 161.918 38.2074 161.918C59.3088 161.918 76.4148 179.668 76.4148 201.563Z" fill="#D9D9D9"/>
</mask>
<g mask="url(#mask0_419_399)">
<path d="M76.4148 201.563C76.4148 223.458 59.3088 241.207 38.2074 241.207C17.106 241.207 0 223.458 0 201.563C0 179.668 17.106 161.918 38.2074 161.918C59.3088 161.918 76.4148 179.668 76.4148 201.563Z" fill="url(#paint0_linear_419_399)"/>
<path d="M43.8412 224.201C42.7479 224.201 4.70118 219.768 0 183.6" stroke="#583D3D" stroke-width="3.69989"/>
<path d="M41.1787 236.743C27.2304 233.515 -1.51612 222.067 -4.91602 202.094" stroke="#583D3D" stroke-width="3.69989"/>
<path d="M36.2617 196.142C41.9818 205.961 49.9899 229.315 36.2617 244.183" stroke="#583D3D" stroke-width="3.69989"/>
<path d="M50.8204 241.845C57.1169 231.959 65.5193 206.981 48.7578 186.151" stroke="#583D3D" stroke-width="3.69989"/>
<path d="M72.0963 227.815C72.3395 214.909 70.1021 187.104 59.207 179.136" stroke="#583D3D" stroke-width="3.69989"/>
<path d="M81.3328 205.708C80.3912 197.232 76.2049 179.584 66.9922 176.798" stroke="#583D3D" stroke-width="3.69989"/>
<path d="M31.1387 204.432C37.3599 195.229 53.7317 176.521 69.4485 175.31" stroke="#583D3D" stroke-width="3.69989"/>
<path d="M19.8711 194.866C24.5373 184.598 40.2069 164.6 65.5561 166.755" stroke="#583D3D" stroke-width="3.69989"/>
<path d="M11.0625 184.451C15.8854 174.706 30.6272 155.37 51.0113 155.98" stroke="#583D3D" stroke-width="3.69989"/>
<path d="M40.5627 207.408C28.2511 203.245 4.7828 189.807 9.40238 169.358" stroke="#583D3D" stroke-width="3.69989"/>
</g>
<path d="M253.931 128.331C268.19 149.588 228.664 162.839 207.119 166.807L208.041 172.333C211.237 173.269 230.542 166.984 239.795 163.724C251.234 158.835 271.263 144.295 259.872 125.249C245.634 101.441 257.823 93.8943 259.872 86.2416C261.511 80.1196 258.37 81.6359 256.594 83.1593C249.765 89.3594 239.672 107.074 253.931 128.331Z" fill="#53C285" stroke="#53C285" stroke-width="3.69989"/>
<path d="M97.2955 220.418L196.86 212.128C228.245 161.366 183.783 119.765 157.628 105.31C128.572 104.744 108.067 108.413 106.428 115.896C104.789 123.378 101.015 123.761 74.264 147.612C72.0105 151.289 59.0881 147.471 52.8397 147.612C25.3058 159.942 37.7479 172.944 47.4108 177.904C52.4095 179.604 58.7808 172.66 61.3416 168.976C76.4197 177.224 90.0911 168.09 95.042 162.492L97.2955 167.594C83.4465 177.202 88.5887 195.689 92.8909 203.731C71.8307 218.101 87.0522 220.843 97.2955 220.418Z" fill="#4BFF9C" stroke="#5ADD95" stroke-width="2.56146"/>
<path d="M148.185 184.025C150.644 159.111 167.033 153.946 174.92 154.477L199.094 152.352C214.336 184.237 201.962 207.727 193.87 215.486L202.167 224.839C205.548 226.858 139.376 245.246 141.834 229.196C143.667 217.235 159.332 214.984 168.506 215.363C159.764 214.371 145.901 207.168 148.185 184.025Z" fill="#4BFF9C"/>
<path d="M174.92 154.477C167.033 153.946 150.644 159.111 148.185 184.025C145.727 208.938 161.979 215.379 170.413 215.486C161.706 214.706 143.801 216.357 141.834 229.196C139.376 245.246 205.548 226.858 202.167 224.839L193.87 215.486C201.962 207.727 214.336 184.237 199.094 152.352L174.92 154.477Z" stroke="#5ADD95" stroke-width="2.56146"/>
<path d="M93.8413 224.083C99.9873 222.552 109.992 167.255 114.225 139.798C115.455 138.947 121.437 137.672 135.531 139.372C149.626 141.073 148.165 152.623 145.672 158.185C139.035 219.576 119.962 237.687 111.255 239.069C79.2959 243.916 86.3296 231.097 93.8413 224.083Z" fill="#4BFF9C" stroke="#5ADD95" stroke-width="2.56146"/>
<path d="M120.538 133.831C120.538 136.446 120.538 139.061 120.538 140.922C120.538 143.811 120.623 144.959 120.766 144.99C121.028 145.046 120.881 144.015 120.825 143.214C120.795 142.788 120.085 142.616 118.388 141.627C117.619 141.179 116.584 140.287 115.223 139.32C113.862 138.353 112.248 137.266 111.417 136.662C110.585 136.058 110.585 135.97 111.548 135.924C112.511 135.879 114.436 135.879 115.81 135.937C117.184 135.996 117.949 136.114 119.334 136.468C120.718 136.822 122.7 137.41 125.024 137.889C127.347 138.368 129.952 138.721 133.942 138.976C137.931 139.231 143.226 139.378 146.01 139.468C148.794 139.558 148.908 139.588 148.938 139.676C149.013 139.9 148.343 140.328 147.274 140.772C146.175 141.229 145.082 141.131 143.122 141.308C141.583 141.446 138.953 141.837 137.497 142.048C136.042 142.259 135.843 142.317 135.954 142.348C136.064 142.378 136.489 142.378 137.118 142.437C137.747 142.495 138.569 142.613 141.483 142.703C144.398 142.793 149.381 142.852 154.516 142.912" stroke="#4BFF9C" stroke-width="8.2536" stroke-linecap="round"/>
<path d="M140.033 150.792C142.88 151.805 145.727 152.818 146.482 153.34C147.237 153.861 145.813 153.861 144.744 153.914C143 154 142.13 154.181 141.944 154.181C141.764 154.181 142.659 154.244 143.691 154.498C144.383 154.669 145.394 155.006 146.01 155.179C146.625 155.353 146.808 155.374 147.014 155.448C147.22 155.522 147.444 155.649 147.559 152.919C147.674 150.188 147.674 144.596 147.745 141.906C147.817 139.215 147.959 139.595 148.236 140.603C148.512 141.611 148.919 143.236 149.332 145.771C149.745 148.307 150.151 151.704 150.361 153.507C150.571 155.31 150.571 155.415 150.571 155.374C150.571 155.334 150.571 155.144 150.133 154.276C149.696 153.408 148.822 151.868 148.117 150.737C147.412 149.605 146.904 148.93 146.266 148.234C145.628 147.538 144.875 146.842 144.356 146.399C143.836 145.956 143.572 145.787 143.415 145.647C143.258 145.508 143.218 145.402 143.176 145.293" stroke="#4BFF9C" stroke-width="8.2536" stroke-linecap="round"/>
<path d="M140.402 151.688C142.477 152.342 144.551 152.996 145.772 153.354C147.286 153.798 147.978 153.945 148.645 154.19C149.48 154.394 149.808 154.437 150.178 154.543C150.261 154.565 150.322 154.565 150.508 154.693" stroke="#4BFF9C" stroke-width="8.2536" stroke-linecap="round"/>
<path d="M168.099 76.139C168.472 111.567 136.44 123.229 120.051 128.649C99.9737 135.29 43.391 122.438 50.846 74.7113C58.301 26.9843 101.57 22.7774 122.273 26.6398C137.393 28.3781 167.726 40.7115 168.099 76.139Z" fill="#4BFF9C" stroke="#5ADD95" stroke-width="2.56146"/>
<path d="M150.365 4.61377L161.638 50.814C147.064 52.5942 138.422 36.9681 138.489 31.6346L150.365 4.61377Z" fill="#4BFF9C" stroke="#5ADD95" stroke-width="2.56146"/>
<path d="M63.5082 7.16455L56.3379 55.8436C70.8424 58.4795 80.2389 43.1601 79.9999 37.3498L63.5082 7.16455Z" fill="#4BFF9C" stroke="#5ADD95" stroke-width="2.56146"/>
<path d="M149.273 12.1717L139.572 34.8027C139.536 34.8883 139.543 34.9863 139.592 35.0653L146.519 46.1857C146.664 46.4184 147.022 46.3318 147.044 46.0586L149.819 12.3072C149.845 11.9856 149.401 11.8752 149.273 12.1717Z" fill="#5ADD95" stroke="#5ADD95" stroke-width="1.13843"/>
<path d="M65.6627 15.5438L78.6171 40.9322C78.6598 41.0157 78.6583 41.1152 78.6132 41.198L74.051 49.5715C73.9267 49.7997 73.5878 49.7577 73.5253 49.5063L65.133 15.7444C65.0514 15.4161 65.5091 15.2428 65.6627 15.5438Z" fill="#5ADD95" stroke="#5ADD95" stroke-width="1.13843"/>
<path d="M199.129 149.801C202.987 154.903 209.495 170.08 204.66 189.977" stroke="#4BFF9C" stroke-width="1.13843"/>
<path d="M169.693 164.961C170.045 162.061 170.398 159.161 170.601 157.085C170.804 155.009 170.848 153.844 170.904 153.176C170.972 152.363 171.094 152.161 171.105 152.011C171.111 151.93 171.138 151.839 171.248 151.917C171.613 152.177 171.915 153.077 172.192 154.033C172.305 154.422 172.403 154.601 172.768 156.271C173.132 157.94 173.77 161.091 174.209 162.692C174.648 164.292 174.868 164.247 175.301 163.218C175.733 162.19 176.371 160.181 177.052 158.598C177.733 157.014 178.437 155.918 178.778 155.046C179.119 154.173 179.075 153.556 178.865 153.444C177.506 152.718 176.853 154.743 176.531 154.777C176.386 154.793 176.275 154.789 176.097 154.424C175.92 154.059 175.678 153.328 177.489 153.088C179.301 152.849 183.174 153.123 184.961 153.287C186.747 153.451 186.329 153.497 185.97 153.52C185.326 153.562 184.459 153.681 182.756 154.002C181.629 154.215 179.952 154.416 179.168 154.533C178.383 154.651 178.537 154.651 178.715 154.628C178.894 154.605 179.092 154.559 180.866 154.273C182.641 153.987 185.986 153.462 187.841 153.146C189.696 152.83 189.96 152.738 191.064 152.52C192.169 152.302 194.105 151.959 195.224 151.783C196.343 151.606 196.585 151.606 196.797 151.675C197.638 151.945 198.165 152.939 198.412 153.531C198.577 153.928 198.656 154.373 198.745 154.765C198.836 155.165 199.167 155.411 199.312 155.779C199.645 156.625 199.944 157.048 200.068 157.75C200.271 158.906 200.346 160.853 200.468 161.165C200.624 161.566 200.746 161.891 200.923 162.215C201.161 162.649 201.235 163.364 201.479 164.323C201.606 164.825 202.034 165.326 202.268 166.031C202.352 166.284 202.346 166.528 202.413 167.272C202.571 169.036 202.414 170.288 202.369 170.46C202.308 170.697 202.302 170.911 202.28 171.071C202.251 171.287 202.169 172.4 202.147 173.968C202.131 175.065 201.947 175.983 201.88 176.468C201.799 177.051 201.725 177.597 201.669 178.519C201.634 179.101 201.458 179.443 201.402 180.18C201.344 180.957 201.213 181.866 201.191 181.97C201.149 182.165 201.323 181.499 201.391 180.935C201.406 180.806 201.457 180.738 201.49 180.737C201.576 180.734 201.569 181.492 201.514 182.426C201.495 182.748 201.349 182.743 201.292 182.629C200.986 182.013 201.59 181.477 201.945 181.027C202.1 180.83 202.235 180.691 202.39 180.622C202.474 180.584 202.589 180.598 202.646 180.644C202.882 180.834 202.769 181.357 202.769 181.555C202.769 182.065 202.835 180.484 202.935 178.77C203.028 177.172 202.969 174.087 202.947 172.408C202.925 170.729 202.881 170.546 202.858 171.708C202.836 172.869 202.836 175.381 202.814 176.755C202.784 178.617 202.614 179.303 202.536 180.019C202.434 180.952 202.237 181.679 202.158 182.119C202.102 182.743 202.014 183.019 201.881 183.272C201.835 183.388 201.835 183.48 201.835 183.574" stroke="#4BFF9C" stroke-width="8.2536" stroke-linecap="round"/>
<path d="M61.302 51.354C60.8209 52.0739 60.3398 52.7937 60.0819 53.183C59.8239 53.5722 59.8036 53.609 59.7755 53.67C59.6561 53.9284 59.6038 54.0233 59.5401 54.1163C59.4938 54.1838 59.4403 54.2462 59.3968 54.3154C59.3541 54.3833 59.2767 54.4214 59.205 54.4667C59.1347 54.5113 59.1386 54.6178 59.0873 54.716C59.0473 54.7926 58.9747 54.8248 58.944 54.8912C58.9359 54.9087 58.9388 54.9309 58.9514 54.9549C59.0037 55.0538 59.1223 55.0637 59.235 55.0931C59.2993 55.1099 59.4947 55.1642 59.9402 55.3228C60.2252 55.4243 60.644 55.5235 60.8781 55.5804C61.1123 55.6372 61.1528 55.6372 61.2218 55.6504C61.2908 55.6635 61.387 55.6898 61.8746 55.7059C62.3622 55.7221 63.2383 55.7273 63.7098 55.7222C64.1814 55.717 64.2219 55.7012 64.2605 55.6931C64.2991 55.685 64.3345 55.685 64.3711 55.685" stroke="#4BFF9C" stroke-width="3.9845" stroke-linecap="round"/>
<path d="M60.0905 52.9463C59.9284 53.1355 59.8247 53.2539 59.7712 53.3173C59.6865 53.4177 59.5645 53.598 59.4316 53.7915C59.2768 54.0168 59.2925 54.309 59.2543 54.4374C59.2209 54.5498 59.2312 54.6441 59.2236 54.737C59.2206 54.7727 59.2008 54.7825 59.1727 54.7721C59.0977 54.7445 59.0624 54.5612 59.0497 54.3621C59.0456 54.2983 59.0117 54.3153 58.9911 54.334C58.9158 54.4019 58.8936 54.4746 58.863 54.5515C58.8342 54.6242 58.822 54.7185 58.8041 54.8115C58.7976 54.8453 58.8015 54.8984 58.8091 54.9255C58.8289 54.9961 58.9442 55.0583 59.0441 55.1301C59.1497 55.206 59.2818 55.2812 59.3664 55.3081C59.4625 55.3387 59.6191 55.4194 59.8339 55.5174C60.0178 55.6013 60.1718 55.6532 60.2717 55.6822C60.4047 55.7209 60.6218 55.7538 60.8284 55.7778C60.9377 55.7805 61.1251 55.7805 61.2849 55.77C61.4447 55.7595 61.5713 55.7385 61.7018 55.7168" stroke="#4BFF9C" stroke-width="3.9845" stroke-linecap="round"/>
<path d="M65.6035 52.6279L66.5813 56.799" stroke="#4BFF9C" stroke-width="3.9845" stroke-linecap="round"/>
<path d="M152.38 49.2539C153.014 49.3563 153.647 49.4587 153.976 49.5249C154.305 49.5911 154.31 49.618 154.313 49.6508C154.316 49.6835 154.316 49.7212 154.274 49.7784C154.167 49.9262 153.96 50.021 153.72 50.0862C153.584 50.1229 153.417 50.1513 153.051 50.1868C152.685 50.2223 152.124 50.2601 151.804 50.293C151.484 50.3259 151.422 50.3528 151.402 50.3748C151.383 50.3967 151.409 50.4129 151.493 50.4455C151.576 50.478 151.716 50.5265 152.212 50.6054C152.707 50.6843 153.554 50.792 154.211 50.8476C154.867 50.9031 155.309 50.9031 155.578 50.8977C155.93 50.8906 156.078 50.8704 156.24 50.8569C156.477 50.8372 156.66 50.7888 156.765 50.7807C156.983 50.7638 157.095 50.729 157.268 50.6964C157.496 50.6534 157.793 50.6255 157.906 50.5984C158.032 50.5681 158.139 50.5386 158.257 50.495C158.354 50.4594 158.459 50.4083 158.536 50.3589C158.617 50.2937 158.69 50.2392 158.797 50.193C158.857 50.1846 158.961 50.1846 159.068 50.1846" stroke="#4BFF9C" stroke-width="3.9845" stroke-linecap="round"/>
<path d="M91.8379 155.059C94.3798 160.464 96.9218 165.869 98.6688 169.356C100.416 172.843 101.291 174.248 101.825 175.08C102.507 176.142 102.781 176.545 103.293 177.24C104.492 178.54 105.328 179.451 105.443 179.625C105.517 179.713 105.621 179.799 105.728 179.889" stroke="#5ADD95" stroke-width="3.9845" stroke-linecap="round"/>
<path d="M95.9428 173.469C94.526 178.16 93.1092 182.851 92.3793 185.679C91.6494 188.506 91.6494 189.328 91.4306 189.384C91.2119 189.439 90.7743 188.704 90.4656 188.023C89.9005 186.776 89.7767 185.853 89.7136 184.898C89.6677 184.204 89.6921 183.078 89.713 182.445C89.7493 181.341 90.0287 180.742 90.5394 179.399C91.0048 178.176 91.9878 175.895 92.5336 174.628C93.159 173.177 93.3118 172.924 93.3746 172.738C93.4494 172.518 93.9811 171.923 94.7482 171.072C95.5308 170.205 95.8986 169.846 96.2152 169.669C96.5973 169.455 96.8457 170.344 97.9149 172.201C98.4963 173.21 99.1893 175.006 99.9303 176.535C100.671 178.064 101.359 179.318 101.963 180.288C102.567 181.258 103.067 181.907 103.179 182.089C103.294 182.277 102.511 181.225 102.185 180.441C101.734 179.354 101.794 178.645 101.783 178.318C101.772 178.025 102.757 178.947 103.276 179.494C103.788 180.034 104.211 180.76 104.476 181.111C104.573 181.238 104.677 181.459 104.708 182.338C104.733 183.021 104.719 184.189 104.667 184.92C104.596 185.921 104.382 186.286 104.288 186.558C104.148 186.965 103.815 187.507 103.584 188.117C103.425 188.537 103.165 189.382 102.691 190.505C102.494 190.973 102.447 191.261 102.321 192.022C102.195 192.783 102.008 194.015 101.807 194.942C101.475 196.472 101.183 197.205 101.1 197.672C100.833 199.165 100.553 199.802 100.374 200.131C100.222 200.411 100.467 198.937 100.666 197.026C100.809 195.66 100.845 193.472 100.888 192.888C100.931 192.304 100.931 193.385 100.545 195.509C100.16 197.633 99.3889 200.768 98.9917 202.437C98.5703 204.208 98.5529 204.39 98.4898 204.64C98.2504 205.586 98.2157 206.179 98.1321 206.573C98.0776 206.829 97.9424 207.054 97.8691 207.218C97.74 207.506 97.1033 207.165 96.2724 206.74C95.8099 206.504 95.4812 206.118 95.0936 205.553C93.9521 203.89 93.9451 203.062 93.7756 202.688C93.6141 202.332 93.4804 201.795 92.9983 200.346C92.7285 199.534 92.4715 199.087 92.271 198.595C92.0424 198.033 91.484 196.928 91.2504 195.902C90.9427 194.55 90.8286 193.56 90.8078 193.245C90.7682 192.647 90.7023 192.055 90.6711 191.543C90.653 191.247 90.5773 190.881 90.5555 189.978C90.5338 189.075 90.5546 187.648 91.0237 185.54C91.4928 183.432 92.4096 180.687 92.8923 179.153C93.375 177.62 93.3958 177.382 93.6045 176.882C93.8131 176.381 94.209 175.624 94.5484 175.029C95.5338 173.3 95.879 172.64 95.9841 172.422C96.0352 172.316 96.0476 172.204 95.8396 173.078C95.6315 173.952 95.194 175.811 94.656 179.623C94.1181 183.434 93.493 189.142 93.171 193.206C92.849 197.271 92.849 199.519 93.0053 201.315C93.1616 203.111 93.4741 204.387 93.6351 205.076C93.8524 206.007 94.1105 206.355 94.3738 206.552C94.6643 206.77 95.0778 206.879 95.3736 206.957C95.442 206.975 95.4996 206.838 95.5005 205.01C95.5014 203.182 95.4389 199.615 95.4484 197.475C95.4579 195.334 95.5412 194.729 95.5946 192.212C95.6479 189.695 95.6688 185.285 95.7316 182.894C95.7944 180.503 95.8986 180.265 95.9523 180.067C96.1551 179.318 96.2585 178.3 96.4365 177.403C96.6719 176.218 96.6158 175.458 96.679 175.044C96.7154 174.806 96.7004 174.501 96.7317 178.993C96.7629 183.486 96.8255 192.782 96.8264 197.668C96.8273 202.554 96.7648 202.749 96.6493 203.465C96.5338 204.182 96.3671 205.414 96.3437 204.644C96.3203 203.873 96.4454 201.063 96.7181 197.972C96.9909 194.881 97.4076 191.595 97.6223 187.945C97.8369 184.296 97.8369 180.383 97.8057 178.302C97.7724 176.09 97.6475 175.828 97.6475 175.74C97.6475 175.699 97.6475 175.997 97.9913 179.125C98.3351 182.252 99.0227 188.284 99.3769 192.126C99.7311 195.968 99.7311 197.439 99.7206 198.239C99.7062 199.346 99.5012 199.868 99.2058 200.49C99.0971 200.719 99.1211 200.918 99.0059 201.005C98.944 201.052 98.8282 201.006 98.7224 200.833C98.6167 200.66 98.5125 200.336 98.4588 198.915C98.4052 197.494 98.4052 194.986 98.8219 191.164C99.2386 187.343 100.072 182.284 100.501 179.57C100.931 176.856 100.931 176.639 100.91 178.387C100.889 180.135 100.847 183.854 100.805 185.899C100.757 188.205 100.678 188.558 100.657 188.721C100.567 189.427 100.299 190.436 100.299 190.469C100.299 190.501 100.299 190.308 100.57 188.933C100.841 187.559 101.383 184.943 101.662 183.487C101.941 182.031 101.941 181.815 101.962 181.833C101.983 181.852 102.024 182.111 102.046 182.677C102.067 183.243 102.067 184.108 101.859 185.321C101.65 186.534 101.234 188.069 100.988 188.914C100.742 189.758 100.679 189.867 100.658 189.89C100.63 189.92 100.678 189.695 100.72 189.304C100.808 188.476 101.097 187.298 101.371 186.272C101.472 185.893 101.519 185.809 101.541 185.829C101.82 186.093 101.352 186.57 101.163 186.897C101.1 186.985 101.017 187.072 100.974 187.149C100.931 187.226 100.931 187.291 100.868 187.423" stroke="#5ADD95" stroke-width="3.9845" stroke-linecap="round"/>
<path d="M99.9203 197.97C99.6286 201.3 99.3369 204.629 99.1658 206.452C98.9947 208.275 98.9531 208.492 98.9003 208.635C98.8476 208.779 98.7851 208.844 98.7207 208.911" stroke="#5ADD95" stroke-width="3.9845" stroke-linecap="round"/>
<path d="M93.6085 207.798C93.4835 207.798 92.6899 208.165 91.6475 208.581C90.6232 208.99 92.8919 206.162 92.9768 205.867C93.005 205.769 92.8117 205.767 92.3407 206.048C91.8697 206.329 91.078 206.891 90.1492 207.667C89.2204 208.443 88.1787 209.416 87.5587 210.025C86.7463 210.823 86.4544 211.354 86.1813 211.867C85.8223 212.54 85.5698 212.862 85.4221 213.179C85.1213 213.826 84.7073 214.872 84.5069 215.199C84.3977 215.378 84.2856 215.571 84.2224 215.81C84.1503 216.084 84.2426 216.335 84.3787 216.499C84.5594 216.716 85.0609 216.859 85.5966 217.12C86.7463 217.682 88.0297 218.214 88.3668 218.268C88.5331 218.295 88.7665 218.344 89.2271 218.454C90.0036 218.637 90.7023 218.607 91.7261 218.705C92.5594 218.785 94.0417 218.738 94.9079 218.663C95.7742 218.587 95.9825 218.436 96.1315 218.293C96.3891 218.046 96.5747 217.757 97.1184 216.933C97.5642 216.258 98.2454 214.986 99.0166 213.378C99.7878 211.77 100.6 209.845 101.029 208.519C101.458 207.193 101.479 206.523 101.532 206.037C101.615 205.262 101.753 204.743 101.795 204.242C101.841 203.685 102.027 203.214 102.121 202.681C102.448 201.139 102.385 200.527 102.28 200.298C102.238 200.199 102.217 200.134 102.069 200.001" stroke="#5ADD95" stroke-width="3.9845" stroke-linecap="round"/>
<path d="M96.3856 208.19C94.8854 211.585 93.3852 214.979 92.6229 216.003C92.1053 216.699 91.8403 213.806 91.6518 213.196C91.4256 212.464 90.8326 211.883 90.1403 211.523C89.7848 211.338 89.323 211.401 89.0038 211.487C88.4571 211.635 87.908 212.465 87.1728 213.522C86.509 214.476 86.0543 215.523 85.7175 216.363C85.5915 216.677 85.6306 216.792 85.7143 216.859C85.798 216.925 85.9438 216.947 86.7899 216.936C87.6359 216.926 89.1777 216.883 90.2116 216.644C91.2455 216.406 91.7247 215.973 92.1174 215.545C92.5102 215.117 92.8019 214.706 93.0876 213.9C93.3733 213.094 93.6441 211.905 93.6795 211.109C93.7148 210.312 93.5065 209.945 93.3054 209.712C93.1043 209.48 92.9168 209.393 92.7472 209.349C92.4387 209.268 91.8857 209.499 90.8379 210.302C90.1327 210.842 89.2901 211.926 88.7869 212.579C88.1268 213.436 88.0103 213.932 87.8525 214.237C87.7871 214.364 87.7988 214.456 87.8926 214.576C88.372 215.191 88.9972 215.134 89.9199 215.092C90.2529 215.077 90.5908 214.768 91.2108 214.094C91.8308 213.421 92.7059 212.297 93.2192 211.48C93.9837 210.263 93.9863 209.286 93.8509 208.599C93.791 208.295 93.4446 208.193 93.1488 208.191C92.853 208.189 92.5405 208.319 91.619 209.867C90.6975 211.414 89.1765 214.376 88.4867 215.945C87.7969 217.514 87.9844 217.601 88.4977 217.559C89.0111 217.517 89.8445 217.344 91.3677 216.131C92.8909 214.917 95.0786 212.669 96.1848 211.727C97.291 210.785 97.2493 211.217 97.1341 211.645C96.9019 212.508 96.3464 213.318 95.8524 214.103C95.1867 215.16 95.2491 215.787 94.9662 216.28C94.8657 216.455 94.6821 216.662 94.5239 216.837C94.465 216.903 94.7219 216.209 94.9214 215.251C95.0167 214.726 95.1001 214.121 95.143 213.247C95.1859 212.373 95.1859 211.249 95.1859 210.09" stroke="#5ADD95" stroke-width="3.9845" stroke-linecap="round"/>
<path d="M96.9531 211.663C96.9531 211.771 96.9531 211.879 97.724 210.843C98.495 209.807 100.037 207.623 101.625 205.374" stroke="#5ADD95" stroke-width="3.9845" stroke-linecap="round"/>
<path d="M135.842 207.161C136.442 207.798 137.042 208.435 137.581 208.937C138.12 209.438 138.581 209.786 138.874 209.994C139.269 210.274 139.631 210.493 140.234 210.872C140.59 211.096 141.089 211.309 141.48 211.522C142.165 211.896 142.563 212.147 143.249 212.415C143.815 212.637 144.799 213.103 146.021 213.552C147.243 214 148.666 214.434 149.427 214.658C150.24 214.897 150.609 215.012 151.116 215.21C151.534 215.372 151.836 215.379 152.308 215.561C152.901 215.791 153.738 215.935 154.077 216.088C154.43 216.154 154.642 216.198 154.789 216.263C154.867 216.286 154.951 216.286 155.037 216.286" stroke="#5ADD95" stroke-width="3.9845" stroke-linecap="round"/>
<path d="M147.342 214.794C145.948 214.765 145.471 214.648 144.941 214.604C144.644 214.579 144.383 214.502 143.294 214.458C142.248 214.416 140.196 214.443 139.077 214.45C137.832 214.458 137.647 214.501 137.506 214.523C137.099 214.587 136.537 214.662 136.153 214.699C135.799 214.733 135.464 214.838 135.041 214.961C134.508 215.116 134.152 215.437 133.962 215.481C133.858 215.505 133.731 215.496 133.687 215.431C133.579 215.27 133.728 215 133.756 214.774C133.791 214.493 134.176 213.747 134.613 212.783C134.871 212.213 134.968 211.973 135.389 211.287C135.771 210.666 135.701 210.437 135.778 210.349C136.1 209.983 137.01 210.844 137.524 211.181C137.653 211.265 137.785 211.312 138.254 211.559C138.723 211.806 139.532 212.241 140.159 212.537C140.785 212.833 141.203 212.978 141.454 213.052C141.704 213.127 141.774 213.127 140.875 213.112C139.976 213.098 138.107 213.069 137.179 213.069C136.25 213.068 136.32 213.097 136.405 213.112C136.49 213.127 136.587 213.127 136.665 213.185C136.84 213.314 136.857 213.55 136.843 213.682C136.811 213.981 136.084 213.989 135.814 214.106C135.717 214.148 136.036 214.41 136.499 214.695C136.962 214.98 137.702 215.342 138.159 215.543C138.617 215.744 138.771 215.773 138.929 215.803" stroke="#5ADD95" stroke-width="3.9845" stroke-linecap="round"/>
<path d="M90.7307 155.306C90.7449 155.438 90.7736 156.029 90.9161 156.991C91.0045 157.589 90.9453 158.727 90.9311 159.376C90.9094 160.372 90.7736 160.604 90.5957 161.174C90.4178 161.744 90.1325 162.293 89.9445 163.051C89.8858 163.288 89.7745 163.612 89.5887 164.05C89.1683 165.042 88.8287 165.754 88.6933 166.058C88.4387 166.629 88.142 166.986 88.0132 167.306C87.8902 167.611 87.5557 167.803 87.3624 167.996C87.3218 168.037 87.312 168.085 87.333 168.101C87.6293 168.317 88.2252 167.273 88.548 166.848C88.9108 166.371 89.1136 166.083 89.3844 165.743C90.0052 164.963 90.0724 164.747 90.1724 164.532C90.2767 164.307 90.6569 163.727 91.071 162.713C91.4997 161.664 91.5461 160.947 91.5603 160.74C91.5747 160.529 91.632 159.81 91.6461 158.823C91.6558 158.152 91.732 157.919 91.7605 157.896C91.7901 157.872 91.789 158.064 91.7963 158.536C91.8036 159.008 91.8036 159.817 91.7116 160.593C91.6195 161.369 91.4354 162.09 91.3264 162.49C91.156 163.116 91.0037 163.689 90.7329 164.48C90.4209 165.392 90.1303 165.933 90.0447 166.096C89.9469 166.282 89.8587 166.467 89.8224 166.564C89.8114 166.593 89.9419 166.558 90.1346 166.285C90.3273 166.013 90.6106 165.499 90.9901 164.47C91.3697 163.441 91.8371 161.912 92.1062 161.066C92.4888 159.863 92.547 159.508 92.6328 159.271C92.6745 159.155 92.662 159.034 92.4637 159.73C92.2654 160.426 91.8689 161.94 91.6646 162.756C91.4097 163.775 91.3461 164.047 91.2891 164.299C91.2506 164.469 91.3869 164.009 91.8146 162.679C92.0751 161.869 92.3555 160.761 92.53 160.149C92.7045 159.537 92.7469 159.449 92.7476 159.477C92.7517 159.657 92.492 160.215 92.0858 161.147C91.5833 162.3 91.2032 163.038 91.1955 163.135C91.1767 163.373 91.6303 162.464 91.9373 161.827C92.0858 161.519 92.1736 161.219 92.3309 160.862C92.675 160.081 92.9903 159.479 93.0905 159.366C93.3715 159.048 93.0062 160.453 92.6437 161.45C92.3854 162.16 91.8989 163.254 91.6581 163.786C91.4443 164.257 91.9272 163.271 92.7068 161.876C92.9832 161.381 92.9907 161.304 92.998 161.391C93.0261 161.727 92.9628 162.206 92.8064 162.76C92.7104 163.1 92.5083 163.535 92.4418 163.74C92.3753 163.945 92.4319 163.901 92.5178 163.805C92.7267 163.571 93.131 162.823 93.5109 162.057C93.5933 161.879 93.4516 162.129 93.3149 162.331C93.1783 162.533 93.0508 162.68 92.9624 162.876" stroke="#5ADD95" stroke-width="1.42303" stroke-linecap="round"/>
<path d="M86.791 167.14C87.5395 166.53 87.6034 166.375 87.8807 166.071C88.084 165.847 88.202 165.62 88.5477 165.119C88.7784 164.784 89.1889 164.189 89.4916 163.675C89.7943 163.161 89.9743 162.743 90.0988 162.473C90.2233 162.203 90.2868 162.093 90.3937 161.779C90.5005 161.464 90.6487 160.948 90.7674 160.577C90.9549 159.992 91.0581 159.618 91.0846 159.209C91.1213 158.642 91.2185 158.165 91.2291 157.855C91.2398 157.543 91.2827 157.188 91.2986 156.795C91.3065 156.6 91.3462 156.413 91.3626 155.949C91.3789 155.485 91.3789 154.749 91.3842 154.353C91.39 153.924 91.411 153.693 91.4057 153.608C91.3988 153.495 91.3898 154.148 91.3103 154.803C91.2307 155.458 91.0825 156.326 90.9744 157.13C90.8662 157.934 90.8027 158.648 90.7435 159.12C90.6577 159.805 90.5663 160.247 90.5026 160.305C90.372 160.425 90.3542 159.551 90.2892 158.279C90.2243 157.006 90.1925 155.062 90.1761 154.67C90.1598 154.278 90.1598 155.497 90.1598 155.988C90.1598 156.479 90.1598 156.204 90.2286 155.744C90.2974 155.284 90.435 154.647 90.5589 154.149C90.6827 153.65 90.7886 153.309 90.9298 152.925" stroke="#4BFF9C" stroke-width="1.42303" stroke-linecap="round"/>
<path d="M85.1543 163.578C85.411 164.465 85.4216 164.743 85.4535 164.798C85.4853 164.854 85.6346 164.843 85.7843 164.865C85.9597 164.891 85.8813 165.187 85.9399 165.259C86.0029 165.336 86.2859 165.309 86.6118 165.298C87.0143 165.285 87.3032 164.733 87.4582 164.555C87.7606 164.21 88.0303 164 88.2122 163.817C88.4498 163.579 88.7675 163.159 88.8971 162.797C88.9894 162.539 89.175 162.181 89.2871 161.755C89.3298 161.592 89.4092 161.374 89.4686 161.08C89.5279 160.785 89.5703 160.423 89.5921 160.104C89.6319 159.523 89.6668 159.075 89.7629 158.687C89.8734 158.242 89.9235 157.842 90.0566 157.417C90.1443 157.137 90.2427 156.718 90.3396 156.376C90.5212 155.782 90.6508 155.445 90.715 155.164C90.7368 154.959 90.7368 154.63 90.7368 154.29" stroke="#4BFF9C" stroke-width="4.2691" stroke-linecap="round"/>
<path d="M90.8012 153.125C90.9282 154.213 91.0553 155.3 91.0625 156.327C91.0697 157.355 90.9532 158.288 90.8932 158.808C90.8245 159.403 90.8015 159.571 90.6951 160.056C90.6086 160.45 90.5041 161.156 90.4229 161.568C90.3212 162.083 90.1393 162.367 89.9416 162.677C89.8249 162.861 89.7639 162.978 89.7108 163.122C89.64 163.314 89.3802 163.73 89.1505 164.279C89.0056 164.625 88.7915 164.743 88.5083 165.02C88.2736 165.249 87.9477 165.464 87.7112 165.553C87.6576 165.575 87.5941 165.608 87.429 165.625C87.264 165.642 86.9993 165.642 86.7266 165.642" stroke="#4BFF9C" stroke-width="4.2691" stroke-linecap="round"/>
<path d="M37.0801 167.869C37.5581 165.885 39.2721 161.662 42.3041 160.642" stroke="#5ADD95" stroke-width="1.13843"/>
<path d="M39.9492 172.333C40.4272 170.349 42.1413 166.126 45.1733 165.106" stroke="#5ADD95" stroke-width="1.13843"/>
<path d="M44.6602 176.585C45.1382 174.601 46.8522 170.378 49.8842 169.357" stroke="#5ADD95" stroke-width="1.13843"/>
<path d="M91.6758 238.975C92.1538 235.113 94.1547 227.432 98.3339 227.602" stroke="#5ADD95" stroke-width="1.13843"/>
<path d="M97.5156 240.466C97.9936 236.604 99.9945 228.923 104.174 229.093" stroke="#5ADD95" stroke-width="1.13843"/>
<path d="M105.711 240.04C106.189 236.178 106.346 230.62 110.525 230.79" stroke="#5ADD95" stroke-width="1.13843"/>
<path d="M145.25 235.255C146.003 231.795 146.25 226.815 152.83 226.968" stroke="#5ADD95" stroke-width="1.13843"/>
<path d="M143.201 233.767C143.771 230.13 143.958 224.895 148.937 225.055" stroke="#5ADD95" stroke-width="1.13843"/>
<path d="M60.2678 54.5205C60.0027 54.6843 59.7376 54.848 59.5947 54.9815C59.4518 55.1149 59.4392 55.2132 59.3065 55.7157C59.1737 56.2183 58.9212 57.1221 58.7911 57.2832C58.6611 57.4443 58.6611 56.8351 58.6327 56.7047C58.6043 56.5743 58.5475 56.9411 58.5087 57.0973C58.47 57.2535 58.4511 57.188 58.4445 56.9938C58.4379 56.7996 58.4442 56.4787 58.4474 56.3297C58.4507 56.1808 58.4507 56.2135 58.4096 56.3352C58.2139 56.9155 58.145 57.0535 58.116 57.1962C58.0927 57.3109 58.0364 57.4175 57.9791 57.5534C57.9299 57.6702 57.8579 57.7686 57.8197 57.8182C57.804 57.8386 57.7816 57.8351 57.7687 57.822C57.6627 57.7145 57.7682 57.4584 57.8034 57.3624C57.8359 57.2738 57.896 57.2202 57.934 57.1309C57.9892 57.0015 58.0103 56.9157 58.0552 56.787C58.1131 56.6208 58.1442 56.433 58.1796 56.2644C58.201 56.1626 58.2464 56.0035 58.3578 55.7816C58.4575 55.583 58.4698 55.3414 58.454 55.2489C58.4467 55.2063 58.4067 55.1826 58.3873 55.1953C58.2696 55.2723 58.3107 55.4657 58.2882 55.7071C58.2659 55.9465 58.2276 56.1405 58.1862 56.247C58.1518 56.3355 58.0375 56.8252 57.9407 57.1202C57.9028 57.2356 57.8642 57.3845 57.8514 57.4876C57.8426 57.558 57.8447 57.2474 57.9303 56.9771C58.0495 56.6009 58.2018 56.3471 58.2368 56.2217C58.329 55.8781 58.4568 55.5663 58.495 55.4772C58.5081 55.4339 58.5081 55.3946 58.5081 55.3541" stroke="#4BFF9C" stroke-width="2.27685" stroke-linecap="round"/>
<path d="M57.2266 58.53C57.2266 58.5169 57.2266 58.5038 57.2771 58.3038C57.3276 58.1039 57.4286 57.7175 57.4837 57.4889C57.5982 57.0147 57.6787 56.6782 57.7079 56.5524C57.7592 56.3311 57.7813 56.0633 57.8066 55.9468C57.8299 55.8398 57.9083 55.6799 58.0388 55.3923C58.0929 55.2639 58.1749 55.0543 58.2172 54.9365C58.2595 54.8187 58.2595 54.7991 58.2595 54.7788" stroke="#4BFF9C" stroke-width="2.27685" stroke-linecap="round"/>
<path d="M71.439 48.8242C71.54 49.2434 71.6172 49.4659 71.6681 49.4725C71.7889 49.4883 71.9168 49.4331 71.9997 49.3966C72.0248 49.3856 72.0568 49.3736 72.0888 49.3669C72.1209 49.3601 72.1524 49.3601 72.1687 49.4256C72.2534 49.7668 72.2358 49.8559 72.2455 49.9419C72.2611 50.0808 72.2994 50.2263 72.322 50.4739C72.3405 50.676 72.3759 50.8217 72.3985 50.9836C72.4184 51.1258 72.4524 51.2579 72.4972 51.4237C72.5393 51.5791 72.5547 51.6884 72.5737 51.7644C72.5817 51.7963 72.6054 51.8077 72.6152 51.7784C72.6472 51.6822 72.5555 51.3343 72.4503 50.8947C72.3947 50.6623 72.3956 50.5448 72.3669 50.3967C72.2818 49.9577 72.338 49.8174 72.2904 49.6551C72.2779 49.6127 72.2806 49.5661 72.2838 49.5687C72.4138 49.675 72.3697 49.9349 72.3889 50.3061C72.4039 50.5985 72.3954 51.1031 72.3922 51.3793C72.3887 51.6884 72.351 51.7678 72.2023 51.9683C72.0842 52.1274 71.8579 52.3849 71.6778 52.5853C71.4977 52.7858 71.3651 52.9168 71.0885 53.1153C70.812 53.3138 70.3953 53.5757 69.8462 53.8548C69.297 54.1339 68.6279 54.422 68.2012 54.6262C67.7744 54.8303 67.6103 54.9417 67.4658 55.0285C67.2067 55.1842 67.0273 55.235 66.9508 55.2186C66.8979 55.2073 66.9689 54.9982 67.14 54.6556C67.2481 54.4391 67.4753 54.1819 67.8635 53.7947C68.2517 53.4074 68.8135 52.9097 69.125 52.6401C69.475 52.3372 69.5767 52.2716 69.6974 52.1726C69.8479 52.0492 70.1553 51.9212 70.4961 51.7858C70.8638 51.5576 71.1582 51.2859 71.2027 51.1868C71.2221 51.1466 71.2347 51.1269 71.2477 51.1067" stroke="#4BFF9C" stroke-width="2.27685" stroke-linecap="round"/>
<path d="M72.1881 49.011C72.1599 49.0037 72.1316 48.9964 72.125 49.0082C72.0791 49.0902 72.181 49.1367 72.2085 49.1949C72.2689 49.3223 72.2719 49.3754 72.2826 49.4246C72.2893 49.4549 72.3022 49.481 72.3148 49.53C72.3247 49.569 72.3273 49.6069 72.345 49.6863C72.367 49.7842 72.3701 49.8863 72.3816 49.9511C72.3903 49.9999 72.4022 50.0381 72.4093 50.078C72.4176 50.1245 72.4414 50.1585 72.4663 50.201C72.5012 50.2604 72.5234 50.3268 72.5519 50.3888C72.5827 50.4555 72.6019 50.5119 72.6313 50.5812C72.6636 50.6577 72.7054 50.7211 72.7223 50.7608C72.7357 50.7923 72.7677 50.8358 72.8095 50.8894C72.8393 50.9276 72.8694 50.9544 72.8944 50.9849C72.9168 51.0123 72.9673 51.0597 73.0279 51.1216C73.063 51.1576 73.0977 51.1765 73.1466 51.218C73.1781 51.2448 73.2289 51.2759 73.2765 51.3039C73.324 51.3319 73.3682 51.3539 73.4271 51.3735C73.4861 51.3931 73.5585 51.4095 73.7944 51.419C74.0304 51.4284 74.4278 51.4302 74.6492 51.4275C74.8707 51.4248 74.9043 51.4174 75.009 51.3706C75.1137 51.3238 75.2885 51.2376 75.4907 51.1053C75.6929 50.973 75.9172 50.7971 76.0381 50.6954C76.1589 50.5938 76.1695 50.5718 76.1776 50.5504C76.1857 50.529 76.191 50.5089 76.1965 50.4881" stroke="#4BFF9C" stroke-width="2.27685" stroke-linecap="round"/>
<path d="M78.916 37.7046L81.4079 41.4282" stroke="#4BFF9C" stroke-width="0.853821" stroke-linecap="round"/>
<path d="M78.5801 39.1421L80.6871 42.1869" stroke="#4BFF9C" stroke-width="0.853821" stroke-linecap="round"/>
<path d="M78.7031 38.3931L80.6177 41.0985" stroke="#4BFF9C" stroke-width="0.853821" stroke-linecap="round"/>
<path d="M78.7246 39.6611C78.731 39.671 78.7373 39.6809 78.9247 39.9611C79.1121 40.2412 79.4804 40.7914 79.7083 41.1078C79.9361 41.4241 80.0123 41.49 80.1246 41.6113C80.2368 41.7325 80.3829 41.9071 80.4677 42.0119C80.5524 42.1167 80.5715 42.1463 80.6103 42.1768" stroke="#4BFF9C" stroke-width="0.853821" stroke-linecap="round"/>
<path d="M81.6958 34.9321C81.6958 34.9637 81.6958 34.9954 81.5127 35.7216C81.3295 36.4479 80.9633 37.8677 80.7746 38.615C80.5859 39.3623 80.5859 39.3939 80.5808 39.4208C80.5757 39.4477 80.5656 39.4688 80.5578 39.4559C80.55 39.443 80.5449 39.3955 80.5448 38.8406C80.5448 38.2857 80.5498 37.2247 80.5601 36.6386C80.5703 36.0525 80.5856 35.9733 80.5935 35.9114C80.6066 35.8079 80.6064 35.7216 80.6141 35.647C80.6175 35.6148 80.6167 35.5936 80.6218 35.6382C80.6269 35.6827 80.6371 35.7935 80.6169 35.9272C80.5967 36.0608 80.5458 36.2139 80.423 36.7256C80.3001 37.2372 80.1068 38.1029 80.0072 38.5752C79.9077 39.0475 79.9077 39.1003 79.9 39.1037C79.8924 39.1072 79.8771 39.0597 79.8388 38.3596C79.8004 37.6595 79.7393 36.3083 79.7155 35.6095C79.6917 34.9108 79.707 34.9055 79.725 34.9371C79.743 34.9687 79.7634 35.0373 79.7662 35.326C79.7691 35.6147 79.7538 36.1214 79.6951 36.6068C79.6364 37.0921 79.5346 37.5408 79.584 37.5159C79.6333 37.4911 79.8368 36.9791 80.0102 36.6097C80.1837 36.2404 80.3211 36.0293 80.3918 35.9364C80.4626 35.8434 80.4626 35.8751 80.4524 35.9363C80.4422 35.9975 80.4219 36.0872 80.3148 36.3762C80.2076 36.6653 80.0143 37.1508 79.8868 37.4511C79.7592 37.7514 79.7033 37.8517 79.6566 37.9034C79.61 37.9551 79.5744 37.9551 79.5382 37.8891C79.5021 37.8231 79.4665 37.6911 79.4481 37.3355C79.4298 36.9799 79.4298 36.4045 79.4273 36.2348C79.426 36.1508 79.3737 36.722 79.3044 36.9512C79.278 37.0385 79.2606 37.0642 79.2451 37.083C79.2179 37.1161 79.107 37.1233 78.9683 37.089C78.8614 37.0626 78.9415 36.8362 79.0028 36.6688C79.0364 36.5772 79.1049 36.4855 79.238 36.36C79.3712 36.2345 79.5747 36.0814 79.71 35.9683C79.8454 35.8551 79.9064 35.7865 80.0396 35.6852C80.1728 35.5839 80.3763 35.4519 80.4913 35.3918C80.6063 35.3318 80.6266 35.3476 80.4845 35.6408C80.3424 35.934 80.0371 36.504 79.8316 36.8689C79.626 37.2339 79.5294 37.3764 79.4542 37.4762C79.3348 37.6345 79.2604 37.6937 79.2271 37.6912C79.1657 37.6867 79.1423 37.5029 79.0911 37.2322C79.059 37.0629 79.0398 36.8242 79.0267 36.599C79.0136 36.3737 79.0136 36.1678 79.0314 35.98C79.065 35.6258 79.1419 35.4229 79.2007 35.3353C79.2834 35.2119 79.3782 35.1296 79.4167 35.116C79.4778 35.0944 79.3637 35.3574 79.1668 35.6495C79.0464 35.8282 78.8428 36.0367 78.6771 36.1877C78.5114 36.3388 78.3791 36.418 78.311 36.3453C78.1041 36.1246 78.253 35.759 78.2939 35.6262C78.3191 35.5442 78.3754 35.4407 78.5059 35.2781C78.6364 35.1155 78.845 34.8991 79.0033 34.7533C79.2517 34.5246 79.4241 34.4471 79.5241 34.4389C79.5698 34.4351 79.5988 34.4993 79.6145 34.5686C79.6302 34.6379 79.6302 34.7277 79.5234 34.9824C79.4165 35.2371 79.2029 35.6541 79.0318 35.9322C78.7692 36.3591 78.5925 36.4834 78.5515 36.5179C78.5302 36.5359 78.5105 36.5578 78.4924 36.5634C78.4742 36.569 78.459 36.5584 78.4486 36.5002C78.4382 36.442 78.4331 36.3364 78.4635 36.158C78.494 35.9796 78.5601 35.7315 78.6527 35.5272C78.7452 35.3228 78.8622 35.1697 78.9022 35.0883C78.9421 35.0068 78.9014 35.0015 78.8219 34.9988C78.7425 34.996 78.6255 34.996 78.4024 35.0198C78.1794 35.0436 77.8538 35.0911 77.6683 35.1155C77.4828 35.14 77.4472 35.14 77.439 35.14C77.4308 35.14 77.4512 35.14 77.6321 35.0819C77.8129 35.0239 78.1538 34.9078 78.4311 34.7978C78.7084 34.6878 78.9119 34.5875 79.0345 34.52C79.1571 34.4525 79.1927 34.4209 79.1348 34.4046C79.0768 34.3882 78.9242 34.3882 78.7617 34.4331C78.5991 34.478 78.4312 34.5677 78.2328 34.6984C78.0345 34.8291 77.8106 34.998 77.6902 35.0929C77.5699 35.1878 77.5597 35.2037 77.5977 35.2013C77.6357 35.1989 77.7222 35.1777 78.0312 34.9557C78.3403 34.7337 78.8693 34.3115 79.1113 34.0939C79.3533 33.8764 79.2923 33.8764 79.2176 33.8817C78.9402 33.9013 78.758 33.9615 78.5236 34.0652C78.3444 34.1446 78.1208 34.3025 77.9736 34.3455C77.8209 34.39 77.6784 34.4465 77.5005 34.4682C77.469 34.4721 77.6849 34.4682 77.8423 34.4841C78.1593 34.5159 78.3962 34.5642 78.5398 34.5774C78.608 34.5837 78.6631 34.617 78.6665 34.6438C78.6756 34.7156 78.358 34.7611 78.0039 34.8303C77.6268 34.9039 77.4826 35.0437 77.4518 35.1049C77.4263 35.1554 77.4566 35.246 77.5026 35.3551C77.5499 35.4673 77.7229 35.5183 77.8923 35.5609C78.0091 35.5903 78.2461 35.5878 78.5033 35.5667C78.5655 35.5616 78.301 35.3754 78.029 35.2343C77.9147 35.1776 77.8486 35.1512 77.7992 35.127C77.7499 35.1029 77.7194 35.0818 77.6879 35.06" stroke="#4BFF9C" stroke-width="0.853821" stroke-linecap="round"/>
<path d="M137.358 32.3404C137.447 32.3519 137.536 32.3634 137.563 32.3636C137.578 32.3637 137.484 32.338 137.434 32.3299C137.396 32.3239 137.287 32.2731 137.142 32.2218C137.094 32.2049 137.102 32.1983 137.145 32.2005C137.189 32.2028 137.269 32.212 137.327 32.2237C137.385 32.2353 137.418 32.2492 137.605 32.3002C137.792 32.3511 138.133 32.4388 138.346 32.4897C138.559 32.5407 138.634 32.5522 138.678 32.5662C138.721 32.5802 138.73 32.5964 138.722 32.6047C138.715 32.613 138.69 32.613 138.538 32.5715C138.385 32.53 138.105 32.4469 137.926 32.388C137.747 32.329 137.678 32.2967 137.619 32.272C137.452 32.2015 137.396 32.1773 137.347 32.1493C137.336 32.1433 137.327 32.1446 137.318 32.14C137.309 32.1354 137.3 32.1261 137.303 32.1214C137.306 32.1166 137.322 32.1166 137.43 32.1478C137.538 32.1789 137.738 32.2412 137.853 32.2745C137.992 32.3144 138.045 32.3193 138.097 32.3344C138.145 32.3485 138.187 32.3636 138.356 32.4098C138.506 32.4507 138.783 32.5391 138.942 32.5853C139.131 32.6404 139.184 32.6479 139.207 32.6584C139.217 32.6626 139.128 32.6458 139.041 32.6213C139.009 32.6125 139.002 32.613 139.033 32.5853C139.13 32.4987 139.224 32.4222 139.268 32.378C139.29 32.3554 139.318 32.3384 139.395 32.2574C139.472 32.1763 139.599 32.0333 139.67 31.9515C139.754 31.8551 139.768 31.8231 139.781 31.7895C139.789 31.7692 139.804 31.7443 139.81 31.7831C139.817 31.8219 139.817 31.9258 139.812 32.0058C139.806 32.0858 139.795 32.1389 139.674 32.4523C139.552 32.7657 139.321 33.3379 139.185 33.665C139.05 33.992 139.016 34.0566 138.992 34.098C138.968 34.1394 138.955 34.1555 138.912 34.2388C138.868 34.3221 138.795 34.4721 138.755 34.5101C138.715 34.5481 138.71 34.4697 138.715 34.2332C138.719 33.9967 138.732 33.6044 138.735 33.392C138.737 33.1587 138.715 33.112 138.705 33.0678C138.697 33.0357 138.679 33.0094 138.654 32.9849C138.62 32.9508 138.542 32.9997 138.459 33.0635C138.41 33.1014 138.354 33.1619 138.235 33.255C138.117 33.3482 137.939 33.4751 137.839 33.5474C137.74 33.6197 137.724 33.6335 137.711 33.5287C137.697 33.424 137.686 33.2002 137.667 32.9995C137.648 32.7989 137.621 32.6281 137.601 32.5229C137.58 32.4176 137.567 32.383 137.556 32.3813C137.544 32.3796 137.536 32.4119 137.507 32.4978C137.477 32.5837 137.429 32.7221 137.392 32.8476C137.356 32.9732 137.334 33.0816 137.322 33.1421C137.311 33.2026 137.311 33.2118 137.316 33.2223C137.329 33.2469 137.449 33.2562 137.638 33.2378C137.725 33.2294 137.786 33.1824 137.876 33.1103C137.965 33.0383 138.081 32.9321 138.134 32.8774C138.187 32.8228 138.174 32.8228 138.143 32.8458C138.113 32.8689 138.066 32.9151 137.932 33.0876C137.798 33.2602 137.578 33.5579 137.49 33.71C137.402 33.8622 137.454 33.8599 137.641 33.6857C137.829 33.5114 138.151 33.1654 138.315 33.0078C138.479 32.8503 138.474 32.8918 138.368 33.0955C138.261 33.2992 138.052 33.6637 137.918 33.8873C137.785 34.1108 137.734 34.1824 137.713 34.2215C137.693 34.2607 137.704 34.2653 137.735 34.255C137.766 34.2446 137.817 34.2193 138.052 33.9755C138.286 33.7317 138.702 33.2702 138.909 33.0394C139.117 32.8086 139.103 32.8225 138.939 33.1123C138.774 33.402 138.458 33.9673 138.3 34.2481C138.142 34.5289 138.151 34.5082 138.161 34.4928C138.171 34.4775 138.182 34.4683 138.193 34.4588" stroke="#4BFF9C" stroke-width="0.853821" stroke-linecap="round"/>
<path d="M137.721 35.6543C137.961 35.3105 138.201 34.9668 138.239 35.0146C138.277 35.0625 138.106 35.5124 138.011 35.7695C137.916 36.0267 137.903 36.0774 137.895 36.1082C137.887 36.139 137.885 36.1482 137.885 36.1483C137.882 36.1574 137.923 36.0928 138.046 35.9158C138.142 35.7792 138.284 35.5333 138.469 35.1409C138.655 34.7485 138.875 34.2132 138.989 33.9271C139.102 33.6409 139.102 33.6202 139.108 33.5899C139.12 33.5195 139.169 33.4222 139.224 33.3291C139.253 33.2807 139.297 33.1871 139.358 33.044C139.399 32.9463 139.439 32.8952 139.465 32.866C139.475 32.8537 139.488 32.8531 139.502 32.853C139.515 32.853 139.531 32.8553 139.54 32.868C139.581 32.9248 139.565 32.9832 139.578 33.0531C139.583 33.0761 139.58 33.1064 139.538 33.2096C139.496 33.3127 139.411 33.488 139.251 33.846C139.091 34.204 138.857 34.7392 138.642 35.1984C138.426 35.6576 138.234 36.0244 138.037 36.4094" stroke="#4BFF9C" stroke-width="0.853821" stroke-linecap="round"/>
<path d="M148.304 44.6529C148.368 46.6077 148.432 48.5625 148.483 49.4556C148.535 50.3487 148.571 50.121 148.608 49.4865C148.645 48.852 148.682 47.8177 148.792 46.7962C148.903 45.7746 149.086 44.7973 149.18 44.2131C149.274 43.6289 149.274 43.4676 149.155 43.7641C149.036 44.0605 148.798 44.8197 148.603 45.6283C148.407 46.4369 148.261 47.2719 148.185 47.778C148.11 48.2841 148.11 48.4359 148.087 47.8974C148.064 47.3588 148.019 46.1252 148.009 45.4707C147.999 44.8162 148.026 44.7783 148.041 45.1193C148.055 45.4603 148.055 46.1815 148.013 46.8472C147.972 47.5129 147.89 48.1012 147.848 48.466C147.805 48.8308 147.805 48.9541 147.851 48.0213C147.897 47.0885 147.988 45.0957 148.031 44.0881C148.073 43.0806 148.064 43.1185 148.059 43.2235C148.055 43.3284 148.055 43.4992 148.004 43.8814C147.954 44.2636 147.853 44.8519 147.774 45.805C147.695 46.7581 147.64 48.0581 147.616 48.7468C147.593 49.4355 147.602 49.4734 147.643 49.0517C147.684 48.63 147.758 47.7475 147.882 46.9371C148.007 46.1266 148.18 45.4149 148.316 44.9202C148.523 44.1631 148.682 43.8294 148.77 43.7902C148.82 43.7677 148.848 43.9789 148.968 44.8542C149.087 45.7295 149.288 47.3237 149.401 47.5376C149.514 47.7516 149.532 46.5369 149.542 46.585C149.551 46.633 149.551 47.9805 149.542 48.7553C149.533 49.5301 149.515 49.6914 149.505 49.115C149.496 48.5386 149.496 47.2196 149.496 46.9007C149.496 46.5818 149.496 47.303 149.496 47.6176C149.496 47.9321 149.496 47.8183 149.455 47.6742C149.413 47.5302 149.331 47.3593 149.284 47.4279C149.069 47.7427 149.228 48.1702 149.242 48.0427C149.259 47.8782 149.246 47.5071 149.246 47.5205C149.246 47.5339 149.246 47.9419 149.251 48.1142C149.255 48.2864 149.265 48.2105 149.288 48.0907C149.311 47.971 149.347 47.8097 149.375 47.7076C149.403 47.6055 149.421 47.5675 149.413 47.6713C149.382 48.0236 149.265 48.5038 149.164 48.8346C149.132 48.9396 149.117 48.9093 149.112 48.8519C149.075 48.3939 149.219 47.8551 149.209 47.8539C148.919 47.8174 149.145 48.429 149.122 48.3964C148.978 48.1943 149.19 47.7035 149.301 47.2299C149.352 47.0113 149.411 46.8418 149.44 47.1903C149.468 47.5388 149.468 48.4118 149.473 48.7666C149.477 49.1215 149.486 48.9317 149.486 48.7675C149.487 48.4703 149.413 48.0774 149.325 47.6749C149.293 47.5285 149.283 47.5002 149.256 47.8841C149.228 48.268 149.183 49.0651 149.191 49.4046C149.199 49.744 149.263 49.6017 149.315 49.0444C149.366 48.4871 149.403 47.5192 149.421 47.533C149.44 47.5468 149.44 48.5717 149.44 48.6963C149.44 48.821 149.44 48.0144 149.44 48.2726C149.44 48.5308 149.44 49.8783 149.44 49.9889C149.44 50.0994 149.44 48.9323 149.454 48.2408C149.468 47.5494 149.495 47.3691 149.523 47.4423C149.551 47.5155 149.578 47.8476 149.647 48.3176C149.716 48.7876 149.826 49.3854 149.887 49.7883C149.977 50.3782 150.003 50.6144 150.073 50.615C150.121 50.6154 150.133 50.4638 150.183 49.7171C150.234 48.9705 150.307 47.5946 150.354 46.9379C150.401 46.2813 150.419 46.3857 150.429 46.8665C150.438 47.3473 150.438 48.2013 150.369 48.1858C150.301 48.1702 150.164 47.2593 150.079 46.8469C149.995 46.4346 149.967 46.5484 149.953 47.0246C149.939 47.5008 149.939 48.3359 149.903 48.6474C149.866 48.959 149.793 48.7218 149.714 48.3386C149.635 47.9554 149.553 47.4335 149.497 47.1742C149.441 46.9148 149.413 46.9338 149.49 47.3611C149.568 47.7884 149.751 48.6234 149.859 49.0583C149.967 49.4933 149.994 49.5028 150.017 49.1091C150.041 48.7154 150.059 47.9183 150.068 47.5409C150.078 47.1635 150.078 47.2299 150.155 47.8288C150.233 48.4276 150.389 49.5568 150.478 50.1528C150.567 50.7487 150.585 50.7772 150.604 50.6732C150.623 50.5693 150.641 50.3321 150.637 49.9299C150.632 49.5278 150.605 48.9679 150.559 48.4992C150.512 48.0305 150.448 47.6699 150.415 47.9776C150.383 48.2853 150.383 49.2721 150.373 49.2064C150.364 49.1407 150.346 47.9925 150.337 47.8328C150.327 47.6731 150.327 48.5366 150.355 48.9103C150.382 49.2839 150.437 49.1416 150.529 48.7646C150.621 48.3876 150.749 47.7803 150.843 47.401C150.936 47.0218 150.991 46.8889 151.024 47.2048C151.057 47.5207 151.066 48.2893 151.071 48.5239C151.072 48.612 151.048 47.8378 150.988 47.4542C150.972 47.3483 150.881 48.0777 150.881 48.6571C150.881 48.7419 150.881 47.7182 150.895 47.2071C150.909 46.696 150.936 46.5536 151.014 46.9073C151.093 47.261 151.221 48.115 151.309 48.4221C151.444 48.4635 151.491 48.2942 151.491 48.3574C151.491 48.3163 151.491 48.1265 151.491 47.931" stroke="#4BFF9C" stroke-width="0.853821" stroke-linecap="round"/>
<path d="M81.6641 39.6416L71.3164 55.5714" stroke="#4BFF9C" stroke-width="8.82281" stroke-linecap="round"/>
<path d="M135.154 35.3037C137.11 38.2428 139.066 41.1818 141.051 43.903C143.037 46.6242 144.992 49.0384 146.025 50.2996C147.058 51.5608 147.109 51.5958 147.168 51.6138C147.228 51.6318 147.296 51.6318 147.365 51.6318" stroke="#4BFF9C" stroke-width="8.82281" stroke-linecap="round"/>
<path d="M123.328 128.118C168.091 101.228 158.667 102.928 158.667 107.286" stroke="#5ADD95" stroke-width="1.13843"/>
<path d="M125.378 34.6925C124.866 21.5484 121.998 -2.72025 114.623 5.3575" stroke="#5BE097" stroke-width="3.69989"/>
<path d="M99.4625 32.6734C99.4625 27.6425 97.127 16.6879 87.7852 13.1167" stroke="#5BE097" stroke-width="3.69989"/>
<ellipse cx="83.9945" cy="10.5659" rx="5.3265" ry="5.52688" fill="#9FEAC5"/>
<ellipse cx="112.677" cy="5.88916" rx="4.50704" ry="4.88916" fill="#9FEAC5"/>
<path d="M123.738 127.268C139.573 114.28 169.036 80.0683 160.212 47.1284C172.909 66.2426 183.39 109.03 123.738 127.268Z" fill="#5ADD95"/>
<path d="M98.532 97.0032V97.0032C98.4805 98.1995 98.536 99.4159 99.0239 100.5C100.194 103.102 102.945 106.219 108.083 107.282C113.599 108.422 120.319 106.767 117.553 101.852V101.852" stroke="black" stroke-width="2.56146"/>
<path d="M98.1971 96.9601V96.9601C98.2657 98.1554 98.2275 99.3725 97.7551 100.464C96.6221 103.083 93.9168 106.241 88.7961 107.383C83.2961 108.609 76.552 107.057 79.2471 102.1V102.1" stroke="black" stroke-width="2.56146"/>
<path d="M94.199 92.8321C93.9375 95.609 95.7634 97.3147 97.3273 98.1243C97.9598 98.4517 98.7195 98.3851 99.3341 98.0083C101.952 96.4031 102.7 94.3883 102.748 93.0043C102.771 92.3404 102.356 91.7664 101.77 91.4682C99.3981 90.2598 96.9806 90.6222 95.4446 91.2058C94.7561 91.4674 94.2683 92.0973 94.199 92.8321Z" fill="url(#paint1_linear_419_399)"/>
<path d="M95.3135 92.1858C97.2609 91.2405 99.5048 91.3436 101.506 92.2691C100.262 92.6902 99.642 92.7549 98.4026 92.8112C97.0101 92.7194 96.1604 92.5621 95.3135 92.1858Z" fill="white" stroke="white" stroke-width="0.284607"/>
<rect width="17.6268" height="1.89489" rx="0.947446" transform="matrix(0.847637 -0.530577 0.502612 0.864512 134.734 93.4683)" fill="black"/>
<rect width="17.4496" height="1.91312" rx="0.956558" transform="matrix(0.999727 -0.0233576 0.0216955 0.999765 135.311 98.4482)" fill="black"/>
<rect width="17.6989" height="1.88738" rx="0.943689" transform="matrix(0.778874 0.62718 -0.598928 0.800803 135.316 103.886)" fill="black"/>
<rect width="12.2589" height="1.54793" rx="0.773967" transform="matrix(-0.742052 0.670343 -0.573382 -0.819288 64.8105 103.642)" fill="black"/>
<rect width="12.1247" height="1.55969" rx="0.779843" transform="matrix(-0.995385 0.0959656 -0.187381 -0.982287 63.9863 100.274)" fill="black"/>
<rect width="13.8333" height="1.39191" rx="0.695956" transform="matrix(-0.803132 -0.595801 0.414916 -0.90986 63.4512 96.6001)" fill="black"/>
<path d="M90.8574 106.755C95.2279 114.407 104.952 125.121 108.886 106.755" stroke="black" stroke-width="3.69989"/>
<path d="M183.15 124.717C172.599 116.852 126.402 126.949 126.402 126.949L160 106.33C160 106.33 193.701 132.582 183.15 124.717Z" fill="#5ADD95"/>
<path d="M113.701 83.9033L126.608 74.125" stroke="black" stroke-width="2.84607" stroke-linecap="round"/>
<path d="M71.123 76.606L82.2913 84.6147" stroke="black" stroke-width="2.84607" stroke-linecap="round"/>
<defs>
<linearGradient id="paint0_linear_419_399" x1="38.2074" y1="161.918" x2="38.2074" y2="241.207" gradientUnits="userSpaceOnUse">
<stop stop-color="#C79A82"/>
<stop offset="1" stop-color="#614532"/>
</linearGradient>
<linearGradient id="paint1_linear_419_399" x1="97.9173" y1="90.5667" x2="99.6403" y2="98.2577" gradientUnits="userSpaceOnUse">
<stop stop-color="#DB8000"/>
<stop offset="1" stop-color="#754500"/>
</linearGradient>
</defs>
</svg>
