<svg width="217" height="217" viewBox="0 0 217 217" fill="none" xmlns="http://www.w3.org/2000/svg">
<mask id="mask0_244_262" style="mask-type:alpha" maskUnits="userSpaceOnUse" x="0" y="0" width="217" height="217">
<rect width="217" height="217" transform="matrix(1 0 0 -1 0 217)" fill="#CFCFCF"/>
</mask>
<g mask="url(#mask0_244_262)">
<path d="M60.8824 22.8867C44.1501 30.1358 13.3223 83.0507 0 108.602V230.562H211.225C213.378 83.6221 201.906 52.1115 195.9 54.7238L181.612 69.173C139.533 41.1563 87.32 41.0094 66.4736 44.438L60.8824 22.8867Z" fill="url(#paint0_linear_244_262)"/>
<rect width="42.0117" height="53.1147" rx="21.0058" transform="matrix(-0.978388 -0.206779 -0.206779 0.978388 92.5508 83.0684)" fill="url(#paint1_linear_244_262)"/>
<rect width="22.7774" height="34.5123" rx="11.3887" transform="matrix(-0.978388 -0.206779 -0.206779 0.978388 87.1211 89.1758)" fill="black"/>
<mask id="mask1_244_262" style="mask-type:alpha" maskUnits="userSpaceOnUse" x="64" y="81" width="24" height="44">
<path d="M64.701 81.4355L78.2943 124.211L87.1177 101.434L85.6838 89.2475L64.701 81.4355Z" fill="white"/>
</mask>
<g mask="url(#mask1_244_262)">
<rect width="22.7774" height="34.5123" rx="11.3887" transform="matrix(-0.978388 -0.206779 -0.206779 0.978388 87.1211 89.1758)" fill="#525252"/>
<ellipse cx="4.04932" cy="3.91629" rx="4.04932" ry="3.91629" transform="matrix(-0.978388 -0.206779 -0.206779 0.978388 84.4766 93.1201)" fill="#E5E5E5"/>
</g>
<rect x="126.654" y="90.6812" width="42.224" height="54.262" rx="21.112" transform="rotate(11.9337 126.654 90.6812)" fill="url(#paint2_linear_244_262)"/>
<rect x="129.137" y="98.6177" width="22.8926" height="35.2578" rx="11.4463" transform="rotate(11.9337 129.137 98.6177)" fill="black"/>
<mask id="mask2_244_262" style="mask-type:alpha" maskUnits="userSpaceOnUse" x="122" y="99" width="31" height="36">
<path d="M152.903 100.573L122.88 134.993L124.115 110.079L130.429 99.2738L152.903 100.573Z" fill="white"/>
</mask>
<g mask="url(#mask2_244_262)">
<rect x="129.137" y="98.6177" width="22.8926" height="35.2578" rx="11.4463" transform="rotate(11.9337 129.137 98.6177)" fill="#525252"/>
<ellipse cx="133.102" cy="108.145" rx="4.06979" ry="4.00088" transform="rotate(11.9337 133.102 108.145)" fill="#E5E5E5"/>
</g>
<path d="M95.2648 149.125V149.125C94.6504 151.432 94.2438 153.831 94.7679 156.159C96.0396 161.811 100.356 169.204 110.54 173.527C121.071 177.997 135.156 177.876 131.635 166.99V166.99" stroke="black" stroke-width="4"/>
<path d="M94.6034 148.892V148.892C94.232 151.25 93.6331 153.609 92.2116 155.526C88.7621 160.179 81.8237 165.194 70.761 165.027C59.3216 164.853 46.4908 159.043 54.1146 150.513V150.513" stroke="black" stroke-width="4"/>
<path d="M87.8896 140.742C87.3068 144.563 89.1191 147.672 91.2194 149.764C92.9529 151.49 95.5961 151.85 97.8586 150.92C101.827 149.288 103.93 146.891 104.934 144.74C105.938 142.586 104.869 140.131 102.868 138.85C99.5702 136.739 95.9818 136.207 93.1307 136.324C90.5632 136.43 88.2771 138.201 87.8896 140.742Z" fill="url(#paint3_linear_244_262)"/>
<path d="M90.8158 138.319C95.1546 137.34 99.6453 138.535 103.295 141.223C100.601 141.493 99.3204 141.344 96.7916 140.905C94.0168 140.11 92.3668 139.427 90.8158 138.319Z" fill="white" stroke="white"/>
<rect x="159.783" y="166.557" width="36.0993" height="3.81445" rx="1.90723" transform="rotate(-7.40772 159.783 166.557)" fill="black"/>
<rect x="156.881" y="176.127" width="36.0993" height="3.81445" rx="1.90723" transform="rotate(22.403 156.881 176.127)" fill="black"/>
<rect x="152.541" y="186.061" width="36.0993" height="3.81445" rx="1.90723" transform="rotate(61.506 152.541 186.061)" fill="black"/>
<rect x="26.2051" y="157.552" width="36.0993" height="3.81445" rx="1.90723" transform="rotate(166.05 26.2051 157.552)" fill="black"/>
<rect x="27.998" y="149.302" width="36.0993" height="3.81445" rx="1.90723" transform="rotate(-164.139 27.998 149.302)" fill="black"/>
<rect x="30.9512" y="140.671" width="36.0993" height="3.81445" rx="1.90723" transform="rotate(-125.036 30.9512 140.671)" fill="black"/>
<path d="M180.975 72.3898L196.634 57.2168C196.94 71.3277 193.961 76.1199 192.433 76.7521C190.332 78.2694 181.166 74.9819 180.975 72.3898Z" fill="#59B066"/>
<path d="M64.3034 46.2925L59.9419 26.3564C54.6159 34.3078 46.0443 50.1816 54.3661 50.0658C62.6879 49.95 64.4583 47.502 64.3034 46.2925Z" fill="#59B066"/>
<path d="M146.298 57.3051C148.307 51.9833 151.448 37.8961 147.934 24.1215" stroke="#59B066" stroke-width="2"/>
<circle cx="146.856" cy="21.4025" r="4.44656" transform="rotate(-20.4722 146.856 21.4025)" fill="#6AFF80"/>
<path d="M99.6227 48.2871C99.3363 42.6058 96.5814 28.4382 87.8525 17.218" stroke="#59B066" stroke-width="2"/>
<circle cx="85.7503" cy="14.9708" r="3.99346" transform="rotate(-44.0433 85.7503 14.9708)" fill="#6AFF80"/>
</g>
<defs>
<linearGradient id="paint0_linear_244_262" x1="105.745" y1="22.8867" x2="105.745" y2="230.562" gradientUnits="userSpaceOnUse">
<stop stop-color="#92FFBA"/>
<stop offset="0.586538" stop-color="#6CFF65"/>
<stop offset="1" stop-color="#72FF43"/>
</linearGradient>
<linearGradient id="paint1_linear_244_262" x1="21.0058" y1="0" x2="21.0058" y2="53.1147" gradientUnits="userSpaceOnUse">
<stop stop-color="white"/>
<stop offset="1" stop-color="#CDE0E1"/>
</linearGradient>
<linearGradient id="paint2_linear_244_262" x1="147.766" y1="90.6812" x2="147.766" y2="144.943" gradientUnits="userSpaceOnUse">
<stop stop-color="white"/>
<stop offset="1" stop-color="#CDE0E1"/>
</linearGradient>
<linearGradient id="paint3_linear_244_262" x1="96.7657" y1="136.318" x2="96.7181" y2="152.059" gradientUnits="userSpaceOnUse">
<stop stop-color="#DB8000"/>
<stop offset="1" stop-color="#754500"/>
</linearGradient>
</defs>
</svg>
