<svg width="20" height="20" viewBox="0 0 20 20" fill="none" xmlns="http://www.w3.org/2000/svg">
<path d="M17.5 2.5V14.1667H10.8333V16.6667H14.1667V18.3333H5.83332V16.6667H9.16668V14.1667H2.5V2.5H17.5ZM15.8333 4.16668H4.16668V12.5H15.8333V4.16668ZM7.88156 5.64859C8.69698 5.64859 9.32198 5.90738 9.75656 6.42496C10.1741 6.92056 10.3828 7.55777 10.3828 8.3366C10.3828 9.18863 10.1362 9.86612 9.64305 10.3691C9.21826 10.8036 8.63109 11.0209 7.88156 11.0209C7.06612 11.0209 6.44112 10.7621 6.00656 10.2446C5.58911 9.74897 5.38038 9.10199 5.38035 8.30363C5.38035 7.46868 5.62694 6.79974 6.12012 6.2968C6.54733 5.86466 7.13448 5.64859 7.88156 5.64859ZM12.895 5.64859C13.4028 5.64859 13.9546 5.74259 14.5503 5.93059L14.3159 6.88273C13.9643 6.75336 13.7001 6.66792 13.523 6.62641C13.3461 6.5849 13.1611 6.56414 12.9682 6.56414C12.7485 6.56414 12.5813 6.61297 12.4665 6.71063C12.3469 6.8156 12.2871 6.94866 12.2871 7.1098C12.2871 7.24895 12.3378 7.35819 12.4391 7.43754C12.5277 7.50699 12.7253 7.6068 13.0317 7.73695L13.1696 7.79461C13.553 7.95331 13.8069 8.06378 13.9314 8.12602C14.055 8.18772 14.1727 8.26065 14.2829 8.34391C14.5832 8.57339 14.7334 8.92374 14.7334 9.39496C14.7334 9.9516 14.5442 10.3727 14.1657 10.6584C13.8435 10.9001 13.3918 11.0209 12.8108 11.0209C12.2053 11.0209 11.6255 10.9233 11.0713 10.728L11.2397 9.73187C11.833 9.98089 12.3359 10.1054 12.7485 10.1054C13.0171 10.1054 13.2148 10.0395 13.3418 9.90766C13.4516 9.79289 13.5066 9.6525 13.5066 9.48648C13.5066 9.33758 13.4529 9.22161 13.3454 9.13859C13.238 9.0556 12.9731 8.92742 12.5508 8.75406C12.2383 8.62469 12.0179 8.52825 11.8898 8.46477C11.7616 8.40128 11.6438 8.32926 11.5364 8.24871C11.2312 8.02163 11.0786 7.69448 11.0786 7.26727C11.0786 6.89859 11.1787 6.5751 11.3789 6.2968C11.6865 5.86466 12.1919 5.64859 12.895 5.64859ZM7.87793 6.56414C7.45553 6.56414 7.1296 6.73992 6.90012 7.09148C6.69262 7.40885 6.58887 7.81656 6.58887 8.31461C6.58887 8.89078 6.71215 9.33757 6.95871 9.65496C7.19066 9.95522 7.49828 10.1054 7.88156 10.1054C8.30148 10.1054 8.62863 9.92839 8.86301 9.57438C9.07056 9.26188 9.17432 8.84928 9.1743 8.3366C9.1743 7.77262 9.051 7.33194 8.80441 7.01457C8.57251 6.71431 8.26369 6.56417 7.87793 6.56414Z" fill="black"/>
</svg>
