<svg width="450" height="131" viewBox="0 0 450 131" fill="none" xmlns="http://www.w3.org/2000/svg">
<path d="M306.17 56.0967H439.234C444.45 56.0967 448.678 60.3248 448.678 65.5406V126.548H306.17V56.0967Z" fill="#AF653D"/>
<path d="M306.17 73.2852H432.435C437.65 73.2852 441.878 77.5133 441.878 82.729V126.549H306.17V73.2852Z" fill="#7E3D1A"/>
<path d="M0 40.9859C0 35.7702 4.22817 31.542 9.44387 31.542H135.425V127.114H0V40.9859Z" fill="#DADADA"/>
<path d="M5.85547 60.4409C5.85547 55.2252 10.0836 50.9971 15.2993 50.9971H135.425V127.115H5.85547V60.4409Z" fill="#C0C0C0"/>
<path d="M135.426 9.44387C135.426 4.22817 139.654 0 144.87 0H298.049C303.265 0 307.493 4.22817 307.493 9.44387V127.115H135.426V9.44387Z" fill="#FFC400"/>
<path d="M140.148 41.8364C140.148 36.6207 144.377 32.3926 149.592 32.3926H293.045C298.26 32.3926 302.489 36.6207 302.489 41.8365V127.115H140.148V41.8364Z" fill="url(#paint0_linear_452_662)" fill-opacity="0.5"/>
<mask id="mask0_452_662" style="mask-type:alpha" maskUnits="userSpaceOnUse" x="5" y="35" width="136" height="96">
<path d="M5.09961 44.8589C5.09961 39.6432 9.32778 35.415 14.5435 35.415H140.525V130.987H5.09961V44.8589Z" fill="#DADADA"/>
</mask>
<g mask="url(#mask0_452_662)">
<rect opacity="0.48" x="76.8477" y="-21.438" width="23.5009" height="239.304" transform="rotate(50.8736 76.8477 -21.438)" fill="white"/>
<rect opacity="0.48" x="108.295" y="-9.82129" width="9.08333" height="239.304" transform="rotate(50.8736 108.295 -9.82129)" fill="white"/>
</g>
<mask id="mask1_452_662" style="mask-type:alpha" maskUnits="userSpaceOnUse" x="307" y="60" width="143" height="71">
<path d="M307.492 60.5352H440.556C445.772 60.5352 450 64.7633 450 69.979V130.986H307.492V60.5352Z" fill="#C05C25"/>
</mask>
<g mask="url(#mask1_452_662)">
<rect opacity="0.48" x="427.498" y="-11.6152" width="16.6202" height="239.304" transform="rotate(50.8736 427.498 -11.6152)" fill="white"/>
<rect opacity="0.48" x="405.641" y="-28" width="16.6202" height="239.304" transform="rotate(50.8736 405.641 -28)" fill="white"/>
</g>
<mask id="mask2_452_662" style="mask-type:alpha" maskUnits="userSpaceOnUse" x="140" y="3" width="173" height="128">
<path d="M140.523 12.6548C140.523 7.4391 144.752 3.21094 149.967 3.21094H303.147C308.363 3.21094 312.591 7.4391 312.591 12.6548V130.325H140.523V12.6548Z" fill="url(#paint1_linear_452_662)"/>
</mask>
<g mask="url(#mask2_452_662)">
<rect opacity="0.48" x="251.371" y="-68.2793" width="6.39743" height="239.304" transform="rotate(50.8736 251.371 -68.2793)" fill="url(#paint2_linear_452_662)"/>
<rect opacity="0.48" x="252.504" y="-54.5859" width="29.8775" height="239.304" transform="rotate(50.8736 252.504 -54.5859)" fill="url(#paint3_linear_452_662)"/>
</g>
<path d="M378.672 112.223C376.919 112.223 375.358 111.922 373.988 111.319C372.627 110.709 371.551 109.872 370.761 108.807C369.978 107.735 369.575 106.499 369.552 105.098H374.669C374.701 105.685 374.892 106.202 375.244 106.648C375.604 107.086 376.082 107.426 376.676 107.669C377.271 107.912 377.94 108.033 378.684 108.033C379.458 108.033 380.143 107.896 380.738 107.622C381.332 107.348 381.798 106.969 382.134 106.483C382.471 105.998 382.639 105.439 382.639 104.805C382.639 104.163 382.459 103.596 382.099 103.103C381.747 102.602 381.239 102.211 380.573 101.929C379.916 101.647 379.134 101.507 378.226 101.507H375.984V97.774H378.226C378.993 97.774 379.67 97.641 380.256 97.3749C380.851 97.1089 381.313 96.7411 381.642 96.2716C381.97 95.7942 382.134 95.2386 382.134 94.6048C382.134 94.0023 381.99 93.4741 381.7 93.0202C381.418 92.5585 381.019 92.1986 380.503 91.9403C379.994 91.6821 379.4 91.553 378.719 91.553C378.03 91.553 377.4 91.6782 376.829 91.9286C376.258 92.1712 375.8 92.5194 375.456 92.9732C375.111 93.4271 374.928 93.9592 374.904 94.5696H370.033C370.056 93.1845 370.452 91.9638 371.218 90.9074C371.985 89.851 373.018 89.0254 374.317 88.4307C375.624 87.8282 377.099 87.5269 378.742 87.5269C380.401 87.5269 381.853 87.8282 383.097 88.4307C384.341 89.0333 385.308 89.8471 385.996 90.8722C386.693 91.8895 387.037 93.0319 387.029 94.2996C387.037 95.6455 386.618 96.7685 385.773 97.6684C384.936 98.5683 383.844 99.1395 382.498 99.3821V99.5699C384.267 99.7968 385.613 100.411 386.536 101.413C387.467 102.407 387.929 103.651 387.921 105.145C387.929 106.515 387.534 107.732 386.736 108.796C385.945 109.86 384.854 110.697 383.461 111.308C382.068 111.918 380.472 112.223 378.672 112.223Z" fill="white"/>
<path d="M227.566 49.812V84.1533H220.305V56.7037H220.104L212.24 61.6336V55.1946L220.741 49.812H227.566Z" fill="white"/>
<path d="M58.0413 103.201V99.0158L67.8205 89.961C68.6522 89.1561 69.3498 88.4317 69.9132 87.7878C70.4855 87.1439 70.9193 86.5134 71.2144 85.8963C71.5095 85.2703 71.6571 84.5951 71.6571 83.8707C71.6571 83.0659 71.4738 82.3728 71.1071 81.7915C70.7404 81.2012 70.2396 80.7496 69.6047 80.4366C68.9697 80.1147 68.2498 79.9537 67.4449 79.9537C66.6043 79.9537 65.8709 80.1236 65.2449 80.4634C64.6189 80.8033 64.136 81.2907 63.7961 81.9256C63.4563 82.5606 63.2864 83.3163 63.2864 84.1927H57.773C57.773 82.3951 58.1799 80.8346 58.9937 79.511C59.8075 78.1874 60.9478 77.1634 62.4144 76.4391C63.8811 75.7147 65.5713 75.3525 67.4851 75.3525C69.4526 75.3525 71.1652 75.7013 72.6229 76.3988C74.0896 77.0874 75.2298 78.0443 76.0437 79.2695C76.8575 80.4947 77.2644 81.8988 77.2644 83.4817C77.2644 84.5191 77.0587 85.5431 76.6473 86.5537C76.2449 87.5642 75.525 88.6866 74.4876 89.9207C73.4502 91.1459 71.988 92.6171 70.101 94.3341L66.09 98.2646V98.4524H77.6266V103.201H58.0413Z" fill="white"/>
<defs>
<linearGradient id="paint0_linear_452_662" x1="221.319" y1="32.3926" x2="221.319" y2="127.115" gradientUnits="userSpaceOnUse">
<stop stop-color="#FFFAAE"/>
<stop offset="1" stop-color="#FF8400"/>
</linearGradient>
<linearGradient id="paint1_linear_452_662" x1="226.557" y1="3.21094" x2="226.557" y2="130.325" gradientUnits="userSpaceOnUse">
<stop stop-color="#FFC400"/>
<stop offset="1" stop-color="#FF8B17"/>
</linearGradient>
<linearGradient id="paint2_linear_452_662" x1="251.371" y1="51.3727" x2="257.769" y2="51.3727" gradientUnits="userSpaceOnUse">
<stop stop-color="white"/>
<stop offset="1" stop-color="white"/>
</linearGradient>
<linearGradient id="paint3_linear_452_662" x1="252.504" y1="65.066" x2="282.381" y2="65.066" gradientUnits="userSpaceOnUse">
<stop stop-color="#FFDA95"/>
<stop offset="1" stop-color="white"/>
</linearGradient>
</defs>
</svg>
