<svg width="32" height="33" viewBox="0 0 32 33" fill="none" xmlns="http://www.w3.org/2000/svg">
<path d="M24.5847 25.391C24.2878 26.9495 22.9252 28.0771 21.3387 28.0771H10.6396C9.05305 28.0771 7.69045 26.9495 7.39359 25.391L4.98047 12.7221L15.8996 4.64746L26.9983 12.7193L24.5847 25.391Z" fill="#FFC800"/>
<path opacity="0.5" fill-rule="evenodd" clip-rule="evenodd" d="M13.1562 23.2361C13.1562 22.647 13.6337 22.1694 14.2228 22.1694H18.4895C19.0786 22.1694 19.5562 22.647 19.5562 23.2361C19.5562 23.8252 19.0786 24.3028 18.4895 24.3028H14.2228C13.6337 24.3028 13.1562 23.8252 13.1562 23.2361Z" fill="#945151"/>
<path d="M19.478 16.4246C19.478 18.3456 17.9207 19.9028 15.9997 19.9028C14.0787 19.9028 12.5215 18.3456 12.5215 16.4246C12.5215 14.5036 14.0787 12.9463 15.9997 12.9463C17.9207 12.9463 19.478 14.5036 19.478 16.4246Z" fill="#945151"/>
<path d="M16.168 2.9694C16.6426 2.96709 17.1228 3.11067 17.5356 3.41036L29.945 12.3567C30.9776 13.107 31.2065 14.5523 30.4563 15.5849C29.7062 16.6172 28.2615 16.8463 27.2289 16.0967L16.1597 8.11663L5.09159 16.096L5.09072 16.0967C4.05816 16.8461 2.61346 16.6171 1.86342 15.5847C1.11318 14.5521 1.34209 13.1068 2.37471 12.3566L2.3763 12.3554L14.7834 3.41074C15.201 3.10759 15.6882 2.96367 16.168 2.9694Z" fill="#FF4B4B"/>
</svg>
