<svg width="206" height="253" viewBox="0 0 206 253" fill="none" xmlns="http://www.w3.org/2000/svg">
<mask id="mask0_180_293" style="mask-type:alpha" maskUnits="userSpaceOnUse" x="0" y="0" width="206" height="253">
<path d="M206 0.229004H0V253H206V0.229004Z" fill="#D9D9D9"/>
</mask>
<g mask="url(#mask0_180_293)">
<path d="M302.216 190.727C266.708 269.16 175.689 314.817 98.9172 292.704C12.2132 265.06 -11.3062 189.083 24.201 110.65C59.7081 32.2162 132.192 -18.7799 227.499 8.67192C304.272 30.7846 337.723 112.293 302.216 190.727Z" fill="#52656D"/>
<path d="M284.922 183.962C251.077 261.585 163.297 307.771 88.8626 287.121C14.4277 266.472 -18.4762 186.806 15.3697 109.182C49.2155 31.5588 136.994 -14.6274 211.429 6.02236C285.864 26.6721 318.768 106.338 284.922 183.962Z" fill="#798D95"/>
<path d="M269.373 180.034C238.053 251.863 158.615 295.098 91.9422 276.602C25.2697 258.105 -3.38964 184.882 27.93 113.053C59.2495 41.2229 138.687 -2.01212 205.361 16.4842C272.033 34.9805 300.692 108.204 269.373 180.034Z" fill="white"/>
<path d="M250.297 175.706C223.369 237.464 154.475 274.471 96.4154 258.365C38.3567 242.258 13.1202 179.136 40.0481 117.379C66.9761 55.621 135.872 18.6136 193.93 34.7203C251.989 50.8269 277.226 113.949 250.297 175.706Z" fill="#EC5953"/>
<path d="M234.462 172.398C211.363 225.374 152.794 257.266 103.645 243.631C54.4957 229.996 33.3778 175.997 56.4768 123.021C79.5757 70.045 138.144 38.1529 187.294 51.7878C236.443 65.4228 257.56 119.422 234.462 172.398Z" fill="white"/>
<path d="M218.434 168.956C198.105 213.515 148.687 240.076 108.054 228.282C67.4225 216.488 50.9635 170.805 71.2923 126.246C91.6211 81.6865 141.04 55.1253 181.672 66.9195C222.303 78.7137 238.763 124.397 218.434 168.956Z" fill="#EC5953"/>
<path d="M204.627 164.95C188.112 201.151 147.963 222.73 114.954 213.148C81.9437 203.566 68.5723 166.452 85.0877 130.252C101.603 94.0515 141.752 72.4729 174.762 82.0546C207.771 91.6363 221.142 128.75 204.627 164.95Z" fill="white"/>
<g style="mix-blend-mode:multiply" opacity="0.2">
<path d="M47.7932 194.626C37.3837 192.031 27.091 184.196 42.7053 166.725L112.376 158.314C101.822 132.597 81.8348 83.5457 87.7336 82.7154C95.1072 81.6776 98.9271 86.368 104.015 93.0983C106.822 96.8118 117.156 94.4882 121.06 89.8176C124.963 85.1471 116.803 58.2862 122.332 59.7854C128.687 61.5088 128.893 65.9611 129.327 75.2879L129.328 75.3089C129.761 84.6501 138.777 84.2761 152.224 80.1246C165.669 75.973 167.656 54.077 175.247 59.7855C184.15 66.4819 177.027 73.5841 177.027 81.3965C177.027 88.9375 183.124 90.6765 194.835 93.0983C206.545 95.5201 230.785 70.7834 234.256 80.1246C237.725 89.4657 226.188 97.3788 230.96 107.066C235.731 116.753 245.966 120.603 243.364 131.155C240.761 141.707 217.059 155.236 233.757 166.826C251.678 179.264 247.831 192.583 240.499 195.844C233.191 199.094 237.227 199.35 235.411 205.077C230.64 220.126 208.232 222.664 197.605 217.993C186.979 213.323 176.062 210.762 154.911 210.762C128.82 210.762 129.744 228.952 118.068 242.922C110.69 251.749 98.6372 238.111 102.107 227.905C105.577 217.699 107.099 207.787 96.256 214.879C85.4126 221.972 78.4482 219.89 71.7066 214.879C64.1074 209.232 87.5356 200.185 81.2465 193.612C73.5445 185.561 60.7286 197.851 47.7932 194.626Z" fill="#252525"/>
</g>
<path d="M0.99482 118.543C-1.3963 130.727 4.06011 180.578 69.9373 178.971C71.88 185.893 78.0565 187.456 77.1252 192.903C75.9999 199.485 74.4771 204.42 68.8655 207.739C64.2872 210.447 60.8588 219.72 72.9639 220.514C82.1695 221.117 86.8621 210.382 86.8621 203.358C88.1197 209.233 88.0333 210.304 94.0863 219.357C98.8905 226.542 91.2528 231.324 91.5642 239.273C91.9121 248.155 101.705 250.978 109.471 247.672C119.749 243.297 115.162 230.362 123.595 217.043C133.053 202.106 149.163 205.195 156.823 215.887C163.885 225.744 161.736 234.491 172.523 243.095C183.31 251.7 203.24 249.197 207.517 236.758C212.498 222.274 200.802 213.999 194.654 209.65C203.006 214.646 227.568 214.227 236.962 206.532C246.356 198.837 243.961 182.794 234.882 177.412C227.301 172.92 218.172 168.762 216.533 166.247C225.581 168.93 242.772 170.796 247.365 166.7C252.357 162.249 250.259 157.273 247.744 154.579C250.021 156.138 257.018 160.736 265.714 157.446C273.285 154.581 270.838 146.819 266.282 143.162C263.149 140.649 254.806 139.793 250.897 138.284C254.617 138.787 270.569 135.568 270.569 126.817C270.569 116.054 262.004 116.69 247.933 119.374C231.926 122.427 222.398 117.362 221.072 105.995C218.849 86.9008 234.256 92.8096 237.593 79.6917C242.053 62.1563 221.11 56.2547 209.976 63.7487C198.841 71.2426 200.555 83.2959 189.421 88.2919C178.286 93.2879 170.832 89.2779 172.271 81.452C174.352 70.1359 190.556 63.4469 183.872 52.2818C177.554 41.7254 162.924 43.6977 158.21 48.7109C149.859 57.5927 154.364 66.213 143.708 73.0027C132.616 80.0705 129.269 83.514 127.693 88.8451C129.585 80.4964 124.288 78.032 123.91 61.6363C123.692 52.1848 131.729 48.6103 127.945 41.1669C125.175 35.7164 115.461 33.0194 109.471 40.6639C103.001 48.9207 113.193 54.2592 116.339 59.2725C119.875 64.9054 118.487 72.0727 116.339 77.2775C114.402 81.9715 114.841 87.1856 114.263 91.6112C113.737 95.6337 108.103 98.9009 103.481 97.8476C93.738 95.6271 91.4381 83.1619 88.5378 74.7629C85.5292 66.0508 72.0811 63.8995 67.1 71.8459C61.031 81.5277 73.5313 85.1233 79.9626 92.617C85.6373 99.2292 83.8088 108.409 83.8088 119.675L76.3687 129.633C75.3248 123.805 71.6397 116.909 67.9721 112.131C64.152 107.155 53.3547 108.661 53.0096 113.688C52.5721 120.062 60.4652 118.857 64.9563 121.788C69.8112 124.956 68.9916 132.249 67.9721 135.06C69.016 135.245 64.8405 135.06 51.246 132.799C33.2081 129.799 23.3707 119.781 18.7381 110.913C15.2584 104.251 3.251 107.046 0.99482 118.543Z" fill="#78C83C"/>
<path fill-rule="evenodd" clip-rule="evenodd" d="M66.2532 134.974C61.5201 139.36 55.2296 149.491 57.484 159.291C60.4718 172.28 32.7311 163.616 27.8401 154.513C24.2715 147.871 12.7469 145.351 5.94336 147.054C13.7157 163.409 31.5902 179.905 69.9319 178.97C70.8238 182.147 72.6074 184.195 74.1863 186.008C75.8493 187.917 77.285 189.566 77.2123 191.997C80.1317 192.737 83.1957 194.879 80.2622 200.729C79.9148 201.421 79.58 202.078 79.2616 202.704C75.7465 209.604 74.2096 212.621 79.2778 217.21C79.6076 217.509 79.9861 217.805 80.4079 218.098C84.6883 214.621 86.8567 208.131 86.8567 203.356C86.9445 203.766 87.0257 204.153 87.1029 204.521C88.1321 209.42 88.4504 210.935 94.0809 219.356C94.9776 220.697 95.4409 221.954 95.6033 223.164C100.64 223.789 105.702 223.487 109.224 221.627C110.035 221.199 111.197 221.574 111.027 222.338C110.401 225.167 108.295 228.517 106.121 231.977C102.314 238.037 98.2949 244.433 101.633 248.953C104.195 249.174 106.938 248.747 109.466 247.671C115.248 245.209 116.325 240.038 117.663 233.613C118.703 228.619 119.901 222.867 123.589 217.042C124.519 215.574 125.513 214.28 126.557 213.15C125.123 210.57 121.763 207.859 115.015 205.733C112.869 205.057 110.78 204.425 108.761 203.813C94.0513 199.359 83.0555 196.03 80.9537 185.237C78.5635 172.964 88.6505 138.182 98.9586 133.415C107.406 129.509 106.971 120.217 101.106 118.137C95.2409 116.058 81.0083 123.681 78.9169 130.95C77.96 134.275 77.9169 133.092 77.8411 131.017C77.8063 130.064 77.7647 128.923 77.6246 127.944L76.3633 129.632C76.256 129.033 76.1208 128.423 75.9607 127.805C74.4108 129.223 71.936 130.601 68.7197 131.022C68.6307 132.657 68.31 134.112 67.9668 135.059C68.4014 135.136 67.9312 135.149 66.2532 134.974ZM235.06 66.2993C235.925 71.7153 233.489 72.6751 229.063 74.4173C228.129 74.7854 227.105 75.1884 226.005 75.6759C217.711 79.3515 201.873 102.751 217.147 118.137C223.327 124.362 226.299 121.776 229.541 118.356C224.661 116.108 221.755 111.902 221.067 105.994C219.788 95.01 224.343 92.2998 229.078 89.4821C232.575 87.4015 236.17 85.2624 237.587 79.6904C239.043 73.9669 237.793 69.4828 235.06 66.2993ZM254.847 118.194C253.255 121.353 253.587 123.928 256.758 126.136C262.257 129.966 257.594 134.202 251.578 137.268C250.116 138.013 248.863 138.579 247.777 139.07C243.865 140.837 242.121 141.625 240.618 146.257C239.701 149.082 237.278 148.519 234.166 147.795C230.76 147.003 226.527 146.019 222.539 149.075C217.968 152.576 218.719 154.779 219.751 157.804C220.545 160.132 221.504 162.948 220.33 167.218C229.742 169.307 243.35 170.274 247.361 166.698C252.351 162.248 250.254 157.272 247.739 154.578C250.015 156.137 257.013 160.734 265.709 157.444C273.279 154.58 270.832 146.818 266.277 143.161C264.301 141.575 260.25 140.649 256.547 139.802C254.381 139.307 252.334 138.839 250.892 138.283C254.611 138.785 270.564 135.567 270.564 126.816C270.564 117.953 264.755 116.819 254.847 118.194ZM236.708 178.712C240.641 188.466 240.735 193.596 230.303 197.718C220.615 201.545 218.459 201.854 212.675 202.683C211.58 202.84 210.354 203.016 208.923 203.238C202.059 204.301 197.872 208.22 198.01 211.118C208.298 214.46 228.611 213.366 236.957 206.531C245.684 199.382 244.236 185.029 236.708 178.712ZM197.62 211.806C194.474 213.96 191.216 219.418 197.543 225.943C201.273 229.789 197.581 237.894 189.9 236.571C183.226 235.422 180.586 237.669 174.246 243.063C173.976 243.293 173.7 243.529 173.416 243.77C184.374 251.555 203.35 248.858 207.511 236.757C211.767 224.382 203.85 216.54 197.62 211.806Z" fill="#65BA37"/>
<path d="M171.075 161.562C174.929 161.227 178.9 167.933 170.148 175.602C166.175 178.828 162.301 179.901 157.299 178.869C152.456 177.87 153.182 173.107 156.956 172.129C160.275 171.269 161.143 171.125 164.477 167.617C167.812 164.108 167.475 161.874 171.075 161.562Z" fill="#9DDD49"/>
<path d="M118.414 122.639C115.548 124.094 106.975 120.063 109.189 108.754C110.389 103.857 114.324 100.835 119.717 99.3589C124.94 97.9296 127.138 102.489 124.407 105.221C122.007 107.622 119.461 108.932 120.29 113.535C121.176 118.456 121.785 120.928 118.414 122.639Z" fill="#9DDD49"/>
<path d="M149.359 198.204C142.569 201.749 134.506 197.429 134.163 193.478C133.971 191.268 135.674 189.398 138.369 189.999C141.798 190.765 142.446 192.476 146.811 189.999C150.156 188.102 152.127 186.919 154.615 188.723C157.105 190.528 156.107 194.681 149.359 198.204Z" fill="#9DDD49"/>
<path d="M204.073 91.1154C200.809 90.1394 197.445 91.1154 190.817 98.0286C196.834 90.3021 195.117 88.4258 191.903 86.9979C188.933 85.6776 186.127 87.8622 184.597 91.6847C183.068 95.5073 177.664 103.153 164.919 104.291C152.173 105.43 143.921 115.799 140.039 122.184C136.776 127.552 128.925 149.268 143.098 156.832C156.494 163.981 165.696 153.681 168.079 147.479C170.016 142.436 173.789 138.613 186.025 133.327C198.261 128.04 193.138 116.852 194.182 110.473C195.1 104.861 201.626 100.225 204.073 98.0286C206.519 95.8326 207.336 92.0914 204.073 91.1154Z" fill="#9DDD49"/>
<path d="M186.221 120.705C181.985 129.247 175.792 127.979 167.25 137.885C164.385 140.837 165.651 141.181 161.798 145.379C159.103 148.314 154.308 148.471 149.773 147.108C145.533 145.834 142.152 140.348 145.175 131.019C149.459 117.795 166.004 108.095 177.041 108.326C187.028 108.536 188.81 115.484 186.221 120.705Z" fill="white"/>
<path fill-rule="evenodd" clip-rule="evenodd" d="M162.69 122.613C162.241 122.224 161.48 122.095 160.965 122.429C149.509 129.861 149.951 138.245 151.813 140.153C153.836 142.228 158.633 141.398 159.501 138.908C159.749 138.198 159.911 137.601 160.058 137.065C160.569 135.189 160.879 134.052 163.894 131.392C167.621 128.104 170.741 126.609 173.214 125.424C175.804 124.183 177.685 123.282 178.809 121.018C181.004 116.591 175.496 113.083 171.579 114.724C171.286 114.846 171.022 114.966 170.785 115.085C170.172 115.392 170.264 116.073 170.771 116.486C171.757 117.288 172.365 118.387 172.365 119.599C172.365 122.055 169.869 124.046 166.789 124.046C165.169 124.046 163.709 123.494 162.69 122.613Z" fill="#4B4B4B"/>
<path d="M77.4781 107.301C78.2335 111.88 82.9409 115.027 81.0036 122.266C80.2462 118.761 79.9839 117.754 78.2506 115.515C75.9802 112.583 70.3652 115.467 71.7248 118.118C73.0845 120.769 74.4778 128.284 72.5406 132.432C70.5828 136.624 63.8811 139.807 64.3344 158.847C64.7876 177.886 77.8119 185.008 83.5526 187.9C89.2935 190.793 106.061 191.257 110.471 180.255C115.264 168.299 107.092 167.843 104.863 159.516C102.926 152.277 109.565 147.862 110.471 136.173C111.339 124.98 98.6167 127.149 93.0354 125.6C90.6903 124.95 88.3555 124.069 88.3555 119.682C88.3555 115.434 88.8628 107.382 85.388 104.129C81.9133 100.875 76.7227 102.721 77.4781 107.301Z" fill="#9DDD49"/>
<path d="M90.8554 178.051C86.4826 178.051 74.6831 175.119 73.7949 154.573C73.7949 146.605 76.1117 139.825 85.4087 134.297C90.4346 131.308 97.9369 133.128 99.0542 137.94C100.079 142.355 96.1846 144.262 95.2964 151.456C94.4048 158.677 98.7757 163.779 99.8058 169.222C100.899 174.999 96.0479 178.051 90.8554 178.051Z" fill="white"/>
<path fill-rule="evenodd" clip-rule="evenodd" d="M80.7763 151.987C80.1117 151.931 79.4332 152.241 79.3479 152.77C78.4439 158.371 80.1828 166.074 84.418 169.644C90.2684 174.575 95.7238 170.36 93.7951 166.647C93.6141 166.298 93.4399 165.964 93.2724 165.643C90.6337 160.589 89.6489 158.702 89.8381 152.244C89.9088 149.829 90.6582 148.557 91.3682 147.352C91.9707 146.329 92.5448 145.355 92.6523 143.77C92.8865 140.319 88.902 138.315 85.482 140.627C84.852 141.053 84.3142 141.484 83.8458 141.941C83.384 142.391 83.705 143.045 84.3343 143.339C86.0639 144.147 87.2255 145.644 87.2255 147.358C87.2255 149.928 84.6133 152.012 81.3909 152.012C81.1834 152.012 80.9783 152.003 80.7763 151.987Z" fill="#4B4B4B"/>
<path d="M109.252 142.624C111.087 138.337 116.931 136.048 122.305 137.512C127.68 138.976 130.549 143.637 128.714 147.924L123.268 160.647C121.433 164.933 115.589 167.222 110.215 165.758C104.84 164.294 101.971 159.633 103.806 155.346L109.252 142.624Z" fill="#E69335"/>
<path fill-rule="evenodd" clip-rule="evenodd" d="M105.266 151.936C105.28 153.064 105.964 153.796 107.2 154.022C108.611 154.28 109.819 153.527 110.235 152.421L122.702 149.9C121.732 151.973 121.049 153.963 123.811 154.57C124.918 154.814 125.656 154.448 126.18 153.842L128.714 147.924C130.547 143.637 127.679 138.976 122.305 137.512C116.931 136.049 111.087 138.337 109.252 142.624L105.266 151.936Z" fill="#F2C242"/>
<path d="M111.775 148.628C112.767 146.311 115.926 145.073 118.831 145.865C121.737 146.656 123.288 149.176 122.296 151.493L119.352 158.371C118.36 160.688 115.2 161.926 112.295 161.134C109.39 160.343 107.839 157.823 108.831 155.506L111.775 148.628Z" fill="#AC7137"/>
<path d="M111.189 146.915C110.553 146.09 110.876 145.011 111.91 144.503L118.864 141.092C119.898 140.585 121.252 140.842 121.888 141.667L126.165 147.214C126.801 148.039 126.478 149.118 125.444 149.626L118.49 153.037C117.456 153.544 116.102 153.287 115.466 152.462L111.189 146.915Z" fill="#F2C242"/>
<path d="M190.728 258.048C192.194 261.554 191.678 271.878 191.454 275.704C191.405 276.539 192.112 277.253 193.155 277.336C199.496 277.839 209.927 276.875 210.599 280.09C211.431 284.074 202.81 289.271 196.277 289.271C190.213 289.271 194.356 293.894 188.15 294.302C181.945 294.71 181.341 291.148 178.551 287.333C176.642 284.723 172.772 287.333 169.735 279.721C167.665 274.53 169.376 269.104 172.917 266.89C176.279 264.788 176.469 264.288 178.097 259.568C179.723 254.849 188.338 252.327 190.728 258.048Z" fill="#E69335"/>
<path d="M302.216 190.727C266.708 269.16 175.689 314.817 98.9172 292.704C12.2132 265.06 -11.3062 189.083 24.201 110.65C59.7081 32.2162 132.192 -18.7799 227.499 8.67192C304.272 30.7846 337.723 112.293 302.216 190.727Z" fill="#52656D"/>
<path d="M284.922 183.962C251.077 261.585 163.297 307.771 88.8626 287.121C14.4277 266.472 -18.4762 186.806 15.3697 109.182C49.2155 31.5588 136.994 -14.6274 211.429 6.02236C285.864 26.6721 318.768 106.338 284.922 183.962Z" fill="#798D95"/>
<path d="M269.373 180.034C238.053 251.863 158.615 295.098 91.9422 276.602C25.2697 258.105 -3.38964 184.882 27.93 113.053C59.2495 41.2229 138.687 -2.01212 205.361 16.4842C272.033 34.9805 300.692 108.204 269.373 180.034Z" fill="white"/>
<path d="M250.297 175.706C223.369 237.464 154.475 274.471 96.4154 258.365C38.3567 242.258 13.1202 179.136 40.0481 117.379C66.9761 55.621 135.872 18.6136 193.93 34.7203C251.989 50.8269 277.226 113.949 250.297 175.706Z" fill="#EC5953"/>
<path d="M234.462 172.398C211.363 225.374 152.794 257.266 103.645 243.631C54.4957 229.996 33.3778 175.997 56.4768 123.021C79.5757 70.045 138.144 38.1529 187.294 51.7878C236.443 65.4228 257.56 119.422 234.462 172.398Z" fill="white"/>
<path d="M218.434 168.956C198.105 213.515 148.687 240.076 108.054 228.282C67.4225 216.488 50.9635 170.805 71.2923 126.246C91.6211 81.6865 141.04 55.1253 181.672 66.9195C222.303 78.7137 238.763 124.397 218.434 168.956Z" fill="#EC5953"/>
<path d="M204.627 164.95C188.112 201.151 147.963 222.73 114.954 213.148C81.9437 203.566 68.5723 166.452 85.0877 130.252C101.603 94.0515 141.752 72.4729 174.762 82.0546C207.771 91.6363 221.142 128.75 204.627 164.95Z" fill="white"/>
<g style="mix-blend-mode:multiply" opacity="0.2">
<path d="M47.7932 194.626C37.3837 192.031 27.091 184.196 42.7053 166.725L112.376 158.314C101.822 132.597 81.8348 83.5457 87.7336 82.7154C95.1072 81.6776 98.9271 86.368 104.015 93.0983C106.822 96.8118 117.156 94.4882 121.06 89.8176C124.963 85.1471 116.803 58.2862 122.332 59.7854C128.687 61.5088 128.893 65.9611 129.327 75.2879L129.328 75.3089C129.761 84.6501 138.777 84.2761 152.224 80.1246C165.669 75.973 167.656 54.077 175.247 59.7855C184.15 66.4819 177.027 73.5841 177.027 81.3965C177.027 88.9375 183.124 90.6765 194.835 93.0983C206.545 95.5201 230.785 70.7834 234.256 80.1246C237.725 89.4657 226.188 97.3788 230.96 107.066C235.731 116.753 245.966 120.603 243.364 131.155C240.761 141.707 217.059 155.236 233.757 166.826C251.678 179.264 247.831 192.583 240.499 195.844C233.191 199.094 237.227 199.35 235.411 205.077C230.64 220.126 208.232 222.664 197.605 217.993C186.979 213.323 176.062 210.762 154.911 210.762C128.82 210.762 129.744 228.952 118.068 242.922C110.69 251.749 98.6372 238.111 102.107 227.905C105.577 217.699 107.099 207.787 96.256 214.879C85.4126 221.972 78.4482 219.89 71.7066 214.879C64.1074 209.232 87.5356 200.185 81.2465 193.612C73.5445 185.561 60.7286 197.851 47.7932 194.626Z" fill="#252525"/>
</g>
<path d="M0.99482 118.543C-1.3963 130.727 4.06011 180.578 69.9373 178.971C71.88 185.893 78.0565 187.456 77.1252 192.903C75.9999 199.485 74.4771 204.42 68.8655 207.739C64.2872 210.447 60.8588 219.72 72.9639 220.514C82.1695 221.117 86.8621 210.382 86.8621 203.358C88.1197 209.233 88.0333 210.304 94.0863 219.357C98.8905 226.542 91.2528 231.324 91.5642 239.273C91.9121 248.155 101.705 250.978 109.471 247.672C119.749 243.297 115.162 230.362 123.595 217.043C133.053 202.106 149.163 205.195 156.823 215.887C163.885 225.744 161.736 234.491 172.523 243.095C183.31 251.7 203.24 249.197 207.517 236.758C212.498 222.274 200.802 213.999 194.654 209.65C203.006 214.646 227.568 214.227 236.962 206.532C246.356 198.837 243.961 182.794 234.882 177.412C227.301 172.92 218.172 168.762 216.533 166.247C225.581 168.93 242.772 170.796 247.365 166.7C252.357 162.249 250.259 157.273 247.744 154.579C250.021 156.138 257.018 160.736 265.714 157.446C273.285 154.581 270.838 146.819 266.282 143.162C263.149 140.649 254.806 139.793 250.897 138.284C254.617 138.787 270.569 135.568 270.569 126.817C270.569 116.054 262.004 116.69 247.933 119.374C231.926 122.427 222.398 117.362 221.072 105.995C218.849 86.9008 234.256 92.8096 237.593 79.6917C242.053 62.1563 221.11 56.2547 209.976 63.7487C198.841 71.2426 200.555 83.2959 189.421 88.2919C178.286 93.2879 170.832 89.2779 172.271 81.452C174.352 70.1359 190.556 63.4469 183.872 52.2818C177.554 41.7254 162.924 43.6977 158.21 48.7109C149.859 57.5927 154.364 66.213 143.708 73.0027C132.616 80.0705 129.269 83.514 127.693 88.8451C129.585 80.4964 124.288 78.032 123.91 61.6363C123.692 52.1848 131.729 48.6103 127.945 41.1669C125.175 35.7164 115.461 33.0194 109.471 40.6639C103.001 48.9207 113.193 54.2592 116.339 59.2725C119.875 64.9054 118.487 72.0727 116.339 77.2775C114.402 81.9715 114.841 87.1856 114.263 91.6112C113.737 95.6337 108.103 98.9009 103.481 97.8476C93.738 95.6271 91.4381 83.1619 88.5378 74.7629C85.5292 66.0508 72.0811 63.8995 67.1 71.8459C61.031 81.5277 73.5313 85.1233 79.9626 92.617C85.6373 99.2292 83.8088 108.409 83.8088 119.675L76.3687 129.633C75.3248 123.805 71.6397 116.909 67.9721 112.131C64.152 107.155 53.3547 108.661 53.0096 113.688C52.5721 120.062 60.4652 118.857 64.9563 121.788C69.8112 124.956 68.9916 132.249 67.9721 135.06C69.016 135.245 64.8405 135.06 51.246 132.799C33.2081 129.799 23.3707 119.781 18.7381 110.913C15.2584 104.251 3.251 107.046 0.99482 118.543Z" fill="#78C83C"/>
<path fill-rule="evenodd" clip-rule="evenodd" d="M66.2532 134.974C61.5201 139.36 55.2296 149.491 57.484 159.291C60.4718 172.28 32.7311 163.616 27.8401 154.513C24.2715 147.871 12.7469 145.351 5.94336 147.054C13.7157 163.409 31.5902 179.905 69.9319 178.97C70.8238 182.147 72.6074 184.195 74.1863 186.008C75.8493 187.917 77.285 189.566 77.2123 191.997C80.1317 192.737 83.1957 194.879 80.2622 200.729C79.9148 201.421 79.58 202.078 79.2616 202.704C75.7465 209.604 74.2096 212.621 79.2778 217.21C79.6076 217.509 79.9861 217.805 80.4079 218.098C84.6883 214.621 86.8567 208.131 86.8567 203.356C86.9445 203.766 87.0257 204.153 87.1029 204.521C88.1321 209.42 88.4504 210.935 94.0809 219.356C94.9776 220.697 95.4409 221.954 95.6033 223.164C100.64 223.789 105.702 223.487 109.224 221.627C110.035 221.199 111.197 221.574 111.027 222.338C110.401 225.167 108.295 228.517 106.121 231.977C102.314 238.037 98.2949 244.433 101.633 248.953C104.195 249.174 106.938 248.747 109.466 247.671C115.248 245.209 116.325 240.038 117.663 233.613C118.703 228.619 119.901 222.867 123.589 217.042C124.519 215.574 125.513 214.28 126.557 213.15C125.123 210.57 121.763 207.859 115.015 205.733C112.869 205.057 110.78 204.425 108.761 203.813C94.0513 199.359 83.0555 196.03 80.9537 185.237C78.5635 172.964 88.6505 138.182 98.9586 133.415C107.406 129.509 106.971 120.217 101.106 118.137C95.2409 116.058 81.0083 123.681 78.9169 130.95C77.96 134.275 77.9169 133.092 77.8411 131.017C77.8063 130.064 77.7647 128.923 77.6246 127.944L76.3633 129.632C76.256 129.033 76.1208 128.423 75.9607 127.805C74.4108 129.223 71.936 130.601 68.7197 131.022C68.6307 132.657 68.31 134.112 67.9668 135.059C68.4014 135.136 67.9312 135.149 66.2532 134.974ZM235.06 66.2993C235.925 71.7153 233.489 72.6751 229.063 74.4173C228.129 74.7854 227.105 75.1884 226.005 75.6759C217.711 79.3515 201.873 102.751 217.147 118.137C223.327 124.362 226.299 121.776 229.541 118.356C224.661 116.108 221.755 111.902 221.067 105.994C219.788 95.01 224.343 92.2998 229.078 89.4821C232.575 87.4015 236.17 85.2624 237.587 79.6904C239.043 73.9669 237.793 69.4828 235.06 66.2993ZM254.847 118.194C253.255 121.353 253.587 123.928 256.758 126.136C262.257 129.966 257.594 134.202 251.578 137.268C250.116 138.013 248.863 138.579 247.777 139.07C243.865 140.837 242.121 141.625 240.618 146.257C239.701 149.082 237.278 148.519 234.166 147.795C230.76 147.003 226.527 146.019 222.539 149.075C217.968 152.576 218.719 154.779 219.751 157.804C220.545 160.132 221.504 162.948 220.33 167.218C229.742 169.307 243.35 170.274 247.361 166.698C252.351 162.248 250.254 157.272 247.739 154.578C250.015 156.137 257.013 160.734 265.709 157.444C273.279 154.58 270.832 146.818 266.277 143.161C264.301 141.575 260.25 140.649 256.547 139.802C254.381 139.307 252.334 138.839 250.892 138.283C254.611 138.785 270.564 135.567 270.564 126.816C270.564 117.953 264.755 116.819 254.847 118.194ZM236.708 178.712C240.641 188.466 240.735 193.596 230.303 197.718C220.615 201.545 218.459 201.854 212.675 202.683C211.58 202.84 210.354 203.016 208.923 203.238C202.059 204.301 197.872 208.22 198.01 211.118C208.298 214.46 228.611 213.366 236.957 206.531C245.684 199.382 244.236 185.029 236.708 178.712ZM197.62 211.806C194.474 213.96 191.216 219.418 197.543 225.943C201.273 229.789 197.581 237.894 189.9 236.571C183.226 235.422 180.586 237.669 174.246 243.063C173.976 243.293 173.7 243.529 173.416 243.77C184.374 251.555 203.35 248.858 207.511 236.757C211.767 224.382 203.85 216.54 197.62 211.806Z" fill="#65BA37"/>
<path d="M171.075 161.562C174.929 161.227 178.9 167.933 170.148 175.602C166.175 178.828 162.301 179.901 157.299 178.869C152.456 177.87 153.182 173.107 156.956 172.129C160.275 171.269 161.143 171.125 164.477 167.617C167.812 164.108 167.475 161.874 171.075 161.562Z" fill="#9DDD49"/>
<path d="M118.414 122.639C115.548 124.094 106.975 120.063 109.189 108.754C110.389 103.857 114.324 100.835 119.717 99.3589C124.94 97.9296 127.138 102.489 124.407 105.221C122.007 107.622 119.461 108.932 120.29 113.535C121.176 118.456 121.785 120.928 118.414 122.639Z" fill="#9DDD49"/>
<path d="M149.359 198.204C142.569 201.749 134.506 197.429 134.163 193.478C133.971 191.268 135.674 189.398 138.369 189.999C141.798 190.765 142.446 192.476 146.811 189.999C150.156 188.102 152.127 186.919 154.615 188.723C157.105 190.528 156.107 194.681 149.359 198.204Z" fill="#9DDD49"/>
<path d="M204.073 91.1154C200.809 90.1394 197.445 91.1154 190.817 98.0286C196.834 90.3021 195.117 88.4258 191.903 86.9979C188.933 85.6776 186.127 87.8622 184.597 91.6847C183.068 95.5073 177.664 103.153 164.919 104.291C152.173 105.43 143.921 115.799 140.039 122.184C136.776 127.552 128.925 149.268 143.098 156.832C156.494 163.981 165.696 153.681 168.079 147.479C170.016 142.436 173.789 138.613 186.025 133.327C198.261 128.04 193.138 116.852 194.182 110.473C195.1 104.861 201.626 100.225 204.073 98.0286C206.519 95.8326 207.336 92.0914 204.073 91.1154Z" fill="#9DDD49"/>
<path d="M186.221 120.705C181.985 129.247 175.792 127.979 167.25 137.885C164.385 140.837 165.651 141.181 161.798 145.379C159.103 148.314 154.308 148.471 149.773 147.108C145.533 145.834 142.152 140.348 145.175 131.019C149.459 117.795 166.004 108.095 177.041 108.326C187.028 108.536 188.81 115.484 186.221 120.705Z" fill="white"/>
<path fill-rule="evenodd" clip-rule="evenodd" d="M162.69 122.613C162.241 122.224 161.48 122.095 160.965 122.429C149.509 129.861 149.951 138.245 151.813 140.153C153.836 142.228 158.633 141.398 159.501 138.908C159.749 138.198 159.911 137.601 160.058 137.065C160.569 135.189 160.879 134.052 163.894 131.392C167.621 128.104 170.741 126.609 173.214 125.424C175.804 124.183 177.685 123.282 178.809 121.018C181.004 116.591 175.496 113.083 171.579 114.724C171.286 114.846 171.022 114.966 170.785 115.085C170.172 115.392 170.264 116.073 170.771 116.486C171.757 117.288 172.365 118.387 172.365 119.599C172.365 122.055 169.869 124.046 166.789 124.046C165.169 124.046 163.709 123.494 162.69 122.613Z" fill="#4B4B4B"/>
<path d="M77.4781 107.301C78.2335 111.88 82.9409 115.027 81.0036 122.266C80.2462 118.761 79.9839 117.754 78.2506 115.515C75.9802 112.583 70.3652 115.467 71.7248 118.118C73.0845 120.769 74.4778 128.284 72.5406 132.432C70.5828 136.624 63.8811 139.807 64.3344 158.847C64.7876 177.886 77.8119 185.008 83.5526 187.9C89.2935 190.793 106.061 191.257 110.471 180.255C115.264 168.299 107.092 167.843 104.863 159.516C102.926 152.277 109.565 147.862 110.471 136.173C111.339 124.98 98.6167 127.149 93.0354 125.6C90.6903 124.95 88.3555 124.069 88.3555 119.682C88.3555 115.434 88.8628 107.382 85.388 104.129C81.9133 100.875 76.7227 102.721 77.4781 107.301Z" fill="#9DDD49"/>
<path d="M90.8554 178.051C86.4826 178.051 74.6831 175.119 73.7949 154.573C73.7949 146.605 76.1117 139.825 85.4087 134.297C90.4346 131.308 97.9369 133.128 99.0542 137.94C100.079 142.355 96.1846 144.262 95.2964 151.456C94.4048 158.677 98.7757 163.779 99.8058 169.222C100.899 174.999 96.0479 178.051 90.8554 178.051Z" fill="white"/>
<path fill-rule="evenodd" clip-rule="evenodd" d="M80.7763 151.987C80.1117 151.931 79.4332 152.241 79.3479 152.77C78.4439 158.371 80.1828 166.074 84.418 169.644C90.2684 174.575 95.7238 170.36 93.7951 166.647C93.6141 166.298 93.4399 165.964 93.2724 165.643C90.6337 160.589 89.6489 158.702 89.8381 152.244C89.9088 149.829 90.6582 148.557 91.3682 147.352C91.9707 146.329 92.5448 145.355 92.6523 143.77C92.8865 140.319 88.902 138.315 85.482 140.627C84.852 141.053 84.3142 141.484 83.8458 141.941C83.384 142.391 83.705 143.045 84.3343 143.339C86.0639 144.147 87.2255 145.644 87.2255 147.358C87.2255 149.928 84.6133 152.012 81.3909 152.012C81.1834 152.012 80.9783 152.003 80.7763 151.987Z" fill="#4B4B4B"/>
<path d="M109.252 142.624C111.087 138.337 116.931 136.048 122.305 137.512C127.68 138.976 130.549 143.637 128.714 147.924L123.268 160.647C121.433 164.933 115.589 167.222 110.215 165.758C104.84 164.294 101.971 159.633 103.806 155.346L109.252 142.624Z" fill="#E69335"/>
<path fill-rule="evenodd" clip-rule="evenodd" d="M105.266 151.936C105.28 153.064 105.964 153.796 107.2 154.022C108.611 154.28 109.819 153.527 110.235 152.421L122.702 149.9C121.732 151.973 121.049 153.963 123.811 154.57C124.918 154.814 125.656 154.448 126.18 153.842L128.714 147.924C130.547 143.637 127.679 138.976 122.305 137.512C116.931 136.049 111.087 138.337 109.252 142.624L105.266 151.936Z" fill="#F2C242"/>
<path d="M111.775 148.628C112.767 146.311 115.926 145.073 118.831 145.865C121.737 146.656 123.288 149.176 122.296 151.493L119.352 158.371C118.36 160.688 115.2 161.926 112.295 161.134C109.39 160.343 107.839 157.823 108.831 155.506L111.775 148.628Z" fill="#AC7137"/>
<path d="M111.189 146.915C110.553 146.09 110.876 145.011 111.91 144.503L118.864 141.092C119.898 140.585 121.252 140.842 121.888 141.667L126.165 147.214C126.801 148.039 126.478 149.118 125.444 149.626L118.49 153.037C117.456 153.544 116.102 153.287 115.466 152.462L111.189 146.915Z" fill="#F2C242"/>
<path d="M190.728 258.048C192.194 261.554 191.678 271.878 191.454 275.704C191.405 276.539 192.112 277.253 193.155 277.336C199.496 277.839 209.927 276.875 210.599 280.09C211.431 284.074 202.81 289.271 196.277 289.271C190.213 289.271 194.356 293.894 188.15 294.302C181.945 294.71 181.341 291.148 178.551 287.333C176.642 284.723 172.772 287.333 169.735 279.721C167.665 274.53 169.376 269.104 172.917 266.89C176.279 264.788 176.469 264.288 178.097 259.568C179.723 254.849 188.338 252.327 190.728 258.048Z" fill="#E69335"/>
</g>
</svg>
