<svg width="100" height="104" viewBox="0 0 100 104" fill="none" xmlns="http://www.w3.org/2000/svg">
<path opacity="0.3" d="M95 56.6221H5C2.23858 56.6221 0 58.6915 0 61.2443V98.2221C0 100.775 2.23858 102.844 5 102.844H95C97.7614 102.844 100 100.775 100 98.2221V61.2443C100 58.6915 97.7614 56.6221 95 56.6221Z" fill="#AFAFAF"/>
<path d="M11.7969 56.8155C11.7969 50.4178 17.4071 45.2314 24.3278 45.2314H77.3804C84.301 45.2314 89.9113 50.4178 89.9113 56.8155V87.5344C89.9113 90.0935 87.6673 92.168 84.899 92.168H16.8093C14.041 92.168 11.7969 90.0935 11.7969 87.5344V56.8155Z" fill="#CE7D03"/>
<path d="M9.08398 40.0494C9.08398 33.6517 14.6942 28.4653 21.6148 28.4653H79.183C86.1036 28.4653 91.7138 33.6517 91.7138 40.0494V74.5121H9.08398V40.0494Z" fill="#CE7D03"/>
<path d="M9.08398 71.6147C9.08398 70.3352 10.206 69.2979 11.5902 69.2979H24.7476C26.1317 69.2979 27.2538 70.3352 27.2538 71.6147V92.2376C27.2538 93.5171 26.1317 94.5545 24.7476 94.5545H11.5902C10.206 94.5545 9.08398 93.5171 9.08398 92.2376V71.6147Z" fill="#EEAB00"/>
<path d="M73.2246 71.6147C73.2246 70.3352 74.3467 69.2979 75.7309 69.2979H88.8882C90.2724 69.2979 91.3945 70.3352 91.3945 71.6147V92.2376C91.3945 93.5171 90.2724 94.5545 88.8882 94.5545H75.7309C74.3467 94.5545 73.2246 93.5171 73.2246 92.2376V71.6147Z" fill="#EEAB00"/>
<path d="M73.2247 84.6431H27.252V87.6839H73.2247V84.6431Z" fill="#B46C00"/>
<path d="M91.7139 28.4653H9.08398V76.8204H91.7139V28.4653Z" fill="#724500"/>
<path d="M91.3949 3.50195H9.08398V33.1684H91.3949V3.50195Z" fill="#CE7D03"/>
<path d="M91.7139 70.3809H9.08398V76.8204H91.7139V70.3809Z" fill="#FEC700"/>
<path d="M91.7129 75.9597V27.0273H84.747V75.9597H91.7129Z" fill="#FEC700"/>
<path d="M16.0508 75.9597L16.0508 27.0273H9.08489L9.08489 75.9597H16.0508Z" fill="#FEC700"/>
<path d="M16.0499 37.7026H9.08398V47.563H16.0499V37.7026Z" fill="#EEAB00"/>
<path d="M91.7159 37.7026H84.75V47.563H91.7159V37.7026Z" fill="#EEAB00"/>
<path fill-rule="evenodd" clip-rule="evenodd" d="M9.08385 2.31682C9.08385 1.03728 10.2059 0 11.59 0H24.7475C26.1316 0 27.2536 1.03728 27.2536 2.31682V20.9027H74.0896V2.31682C74.0896 1.03728 75.2116 0 76.5957 0H89.7532C91.1373 0 92.2593 1.03728 92.2593 2.31682V20.9027H93.3435C94.7276 20.9027 95.8497 21.94 95.8497 23.2195V35.3829C95.8497 36.6624 94.7276 37.6997 93.3435 37.6997H6.93002C5.54589 37.6997 4.42383 36.6624 4.42383 35.3829V23.2195C4.42383 21.94 5.54589 20.9027 6.93 20.9027H9.08385V2.31682Z" fill="#FEC700"/>
<path fill-rule="evenodd" clip-rule="evenodd" d="M95.5777 22.1688L37.7058 37.6997H6.93002C5.54589 37.6997 4.42383 36.6624 4.42383 35.3829V23.2195C4.42383 21.94 5.54589 20.9027 6.93 20.9027H9.08385V17.434L27.2536 12.5578V20.9027H74.0896V2.31682C74.0896 1.03728 75.2116 0 76.5957 0H89.7532C91.1373 0 92.2593 1.03728 92.2593 2.31682V20.9027H93.3435C94.3185 20.9027 95.1633 21.4173 95.5777 22.1688Z" fill="#FEF400"/>
<path opacity="0.3" d="M84.7489 53.0815H16.0508V70.3848H84.7489V53.0815Z" fill="#CE7D03"/>
<path d="M60.8052 17.7559H42.1655C40.0893 17.7559 38.4062 19.3118 38.4062 21.2311V36.8668C38.4062 38.7861 40.0893 40.342 42.1655 40.342H60.8052C62.8814 40.342 64.5645 38.7861 64.5645 36.8668V21.2311C64.5645 19.3118 62.8814 17.7559 60.8052 17.7559Z" fill="#FEC700"/>
<path fill-rule="evenodd" clip-rule="evenodd" d="M64.5645 26.1603L38.4062 33.1803V21.2311C38.4062 19.3117 40.0894 17.7559 42.1655 17.7559H60.8053C62.8814 17.7559 64.5645 19.3117 64.5645 21.2311V26.1603Z" fill="#FEF400"/>
<path fill-rule="evenodd" clip-rule="evenodd" d="M53.4559 30.2624C55.2019 29.6315 56.4227 28.1865 56.4227 26.5048C56.4227 24.2426 54.2137 22.4087 51.4887 22.4087C48.7637 22.4087 46.5547 24.2426 46.5547 26.5048C46.5547 28.1865 47.7754 29.6315 49.5214 30.2624L48.1226 32.8487C47.7059 33.619 48.3117 34.5252 49.2433 34.5252H53.7341C54.6656 34.5252 55.2714 33.619 54.8548 32.8487L53.4559 30.2624Z" fill="#BF7402"/>
<path d="M92.1995 18.7031H74.0996V20.8687H92.1995V18.7031Z" fill="#FEC700"/>
<path d="M27.1839 18.7031H9.08398V20.8687H27.1839V18.7031Z" fill="#FEC700"/>
</svg>
