<svg width="30" height="31" viewBox="0 0 30 31" fill="none" xmlns="http://www.w3.org/2000/svg">
<path fill-rule="evenodd" clip-rule="evenodd" d="M15.1195 4.13721C9.35653 4.13721 4.6847 8.80902 4.6847 14.572V15.1821C2.75202 16.1426 1.42383 18.1369 1.42383 20.4416C1.42383 23.6832 4.05172 26.3112 7.29338 26.3112H22.9456C26.1872 26.3112 28.8151 23.6832 28.8151 20.4416C28.8151 18.1369 27.487 16.1426 25.5542 15.1821V14.572C25.5542 8.80902 20.8825 4.13721 15.1195 4.13721Z" fill="#9069CD"/>
<path d="M7.29297 14.5717C7.29297 10.2494 10.7968 6.74561 15.1191 6.74561C19.4413 6.74561 22.9451 10.2494 22.9451 14.5717V19.7891C22.9451 24.1113 19.4413 27.6152 15.1191 27.6152C10.7968 27.6152 7.29297 24.1113 7.29297 19.7891V14.5717Z" fill="#F3AD6D"/>
<path d="M4.68359 16.8547C4.68359 15.2339 5.99754 13.9199 7.61836 13.9199H22.6184C24.2392 13.9199 25.5531 15.2339 25.5531 16.8547C25.5531 18.4755 24.2392 19.7895 22.6184 19.7895H7.61836C5.99754 19.7895 4.68359 18.4755 4.68359 16.8547Z" fill="#F3AD6D"/>
<path d="M11.8574 14.2458C11.8574 13.7055 12.2954 13.2676 12.8357 13.2676C13.3759 13.2676 13.8139 13.7055 13.8139 14.2458V16.8545C13.8139 17.3948 13.3759 17.8328 12.8357 17.8328C12.2954 17.8328 11.8574 17.3948 11.8574 16.8545V14.2458Z" fill="#BF8034"/>
<path d="M15.7715 14.2458C15.7715 13.7055 16.2095 13.2676 16.7497 13.2676C17.29 13.2676 17.728 13.7055 17.728 14.2458V16.8545C17.728 17.3948 17.29 17.8328 16.7497 17.8328C16.2095 17.8328 15.7715 17.3948 15.7715 16.8545V14.2458Z" fill="#BF8034"/>
<path d="M11.2051 19.8171C11.2051 19.4416 11.5095 19.1372 11.885 19.1372H17.6991C18.0746 19.1372 18.379 19.4416 18.379 19.8171V20.1155C18.379 22.0964 16.7731 23.7024 14.792 23.7024C12.8111 23.7024 11.2051 22.0964 11.2051 20.1155V19.8171Z" fill="white"/>
<path d="M4.68359 14.5748V14.572C4.68359 8.80902 9.35543 4.13721 15.1184 4.13721C16.9688 4.13721 18.7067 4.61886 20.2136 5.46363C19.3901 10.9838 14.5027 15.2242 8.59662 15.2242C7.22458 15.2242 5.90751 14.9953 4.68359 14.5748Z" fill="#9069CD"/>
</svg>
