<svg width="41" height="41" viewBox="0 0 41 41" fill="none" xmlns="http://www.w3.org/2000/svg">
<path d="M8.3125 18.4658H31.8768V38.4081C31.8768 39.8435 30.4574 40.8476 29.1038 40.3696L20.0946 37.1883L11.0855 40.3696C9.73193 40.8476 8.3125 39.8435 8.3125 38.4081V18.4658Z" fill="#AAC1D4"/>
<path d="M11.7024 31.7972C18.1658 36.4314 27.1622 34.9485 31.7965 28.4851C36.4307 22.0217 34.9478 13.0252 28.4844 8.391C22.0209 3.75678 13.0245 5.23966 8.39025 11.7031C3.75603 18.1666 5.23892 27.163 11.7024 31.7972Z" fill="#C2D1DD"/>
<path d="M11.7038 31.7972C18.1673 36.4314 27.1637 34.9486 31.7979 28.4851L8.39175 11.7031C3.75753 18.1666 5.24041 27.163 11.7038 31.7972Z" fill="#D6E4EF"/>
<path d="M16.0078 24.9195C16.0078 25.5495 16.4578 25.9995 17.1778 25.9995H22.7938C23.5318 25.9995 23.9458 25.5675 23.9458 24.9375C23.9458 24.2895 23.5318 23.8575 22.7938 23.8575H19.3558V23.8215L22.5778 20.0235C23.3338 19.1235 23.8198 18.2235 23.8198 17.0535C23.8198 15.0735 22.3798 13.5615 20.0578 13.5615C17.8798 13.5615 16.5118 14.7855 16.2418 16.0995C16.2238 16.2075 16.2058 16.3155 16.2058 16.4055C16.2058 17.0715 16.6918 17.5215 17.3398 17.5215C17.8438 17.5215 18.2218 17.2335 18.4738 16.7115C18.7978 16.0455 19.2478 15.6855 19.9498 15.6855C20.8138 15.6855 21.2998 16.2795 21.2998 17.0895C21.2998 17.7195 21.0478 18.2235 20.5798 18.7815L16.7638 23.3535C16.2058 24.0195 16.0078 24.3975 16.0078 24.9195Z" fill="#849FB5"/>
<path d="M12.5771 30.5779C18.3673 34.7294 26.4266 33.4009 30.5781 27.6108C34.7296 21.8206 33.4012 13.7612 27.611 9.60973C21.8208 5.45823 13.7615 6.78665 9.60999 12.5768C5.45849 18.367 6.78691 26.4264 12.5771 30.5779Z" stroke="#AAC1D4" stroke-width="3"/>
</svg>
