<svg width="41" height="42" viewBox="0 0 41 42" fill="none" xmlns="http://www.w3.org/2000/svg">
<g clip-path="url(#clip0_174_362)">
<path d="M8.3125 18.4658H31.8767V38.4081C31.8767 39.8435 30.4573 40.8476 29.1038 40.3696L20.0946 37.1883L11.0854 40.3696C9.73192 40.8476 8.3125 39.8435 8.3125 38.4081V18.4658Z" fill="#FFC800"/>
<path d="M11.7024 31.7972C18.1658 36.4314 27.1622 34.9485 31.7965 28.4851C36.4307 22.0217 34.9478 13.0252 28.4844 8.391C22.0209 3.75678 13.0245 5.23966 8.39025 11.7031C3.75603 18.1666 5.23892 27.163 11.7024 31.7972Z" fill="#FFD900"/>
<path d="M11.7038 31.7972C18.1673 36.4314 27.1637 34.9486 31.7979 28.4851L8.39175 11.7031C3.75753 18.1666 5.24041 27.163 11.7038 31.7972Z" fill="#FEEA66"/>
<path d="M18.9446 24.7763C18.9446 25.6043 19.4666 26.1083 20.2046 26.1083C20.9246 26.1083 21.4646 25.6043 21.4646 24.7763V15.1823C21.4646 14.2643 20.9246 13.6523 20.0606 13.6523C19.4846 13.6523 18.9986 13.8863 18.5306 14.2103L16.6046 15.5423C16.1726 15.8303 15.9746 16.2263 15.9746 16.6043C15.9746 17.2163 16.4426 17.6663 17.0186 17.6663C17.2706 17.6663 17.5406 17.5943 17.7746 17.4323L18.9086 16.6583H18.9446V24.7763Z" fill="#FF9600"/>
<path d="M12.5771 30.5779C18.3673 34.7294 26.4266 33.4009 30.5781 27.6108C34.7296 21.8206 33.4012 13.7612 27.611 9.60973C21.8208 5.45823 13.7615 6.78665 9.60999 12.5768C5.45849 18.367 6.78691 26.4264 12.5771 30.5779Z" stroke="#FFC800" stroke-width="3"/>
</g>
<defs>
<clipPath id="clip0_174_362">
<rect width="41" height="42" fill="white"/>
</clipPath>
</defs>
</svg>
