<svg width="41" height="42" viewBox="0 0 41 42" fill="none" xmlns="http://www.w3.org/2000/svg">
<g clip-path="url(#clip0_180_164)">
<path d="M8.31055 19.4658H31.8748V38.4081C31.8748 39.8435 30.4554 40.8476 29.1019 40.3696L20.0927 37.1883L11.0835 40.3696C9.72998 40.8476 8.31055 39.8435 8.31055 38.4081V19.4658Z" fill="#D7975D"/>
<path d="M11.7024 31.7972C18.1658 36.4314 27.1622 34.9485 31.7965 28.4851C36.4307 22.0217 34.9478 13.0252 28.4844 8.391C22.0209 3.75678 13.0245 5.23966 8.39025 11.7031C3.75603 18.1666 5.23892 27.163 11.7024 31.7972Z" fill="#E5AE7C"/>
<path d="M11.7039 31.7972C18.1673 36.4314 27.1637 34.9486 31.798 28.4851L8.39175 11.7031C3.75753 18.1666 5.24041 27.163 11.7039 31.7972Z" fill="#F7BE8B"/>
<path d="M16.4033 24.3255C16.9253 25.5135 18.2213 26.1975 19.9853 26.1975C22.2893 26.1975 23.9813 24.6855 23.9813 22.4535C23.9813 20.8515 23.1353 19.8615 22.3793 19.5015V19.4655C23.2613 18.8895 23.7473 17.9895 23.7473 16.9455C23.7473 14.9835 22.3613 13.5615 19.9673 13.5615C18.2033 13.5615 16.9793 14.3715 16.5293 15.3975C16.4393 15.6135 16.3853 15.8295 16.3853 16.0275C16.3853 16.6755 16.8533 17.1435 17.5013 17.1435C17.9513 17.1435 18.3833 16.8915 18.6173 16.4235C18.7973 16.0455 19.1393 15.6855 19.8593 15.6855C20.6873 15.6855 21.2273 16.2615 21.2273 17.1255C21.2273 18.0615 20.6513 18.6375 19.8413 18.6375H19.7153C19.0673 18.6375 18.6173 19.0695 18.6173 19.6995C18.6173 20.3295 19.0673 20.7615 19.7153 20.7615H19.8413C20.7233 20.7615 21.4613 21.4095 21.4613 22.4715C21.4613 23.4075 20.8853 24.0735 19.9493 24.0735C19.3193 24.0735 18.8513 23.7855 18.5633 23.3175C18.2753 22.8495 17.8613 22.5975 17.4113 22.5975C16.7093 22.5975 16.2773 23.0835 16.2773 23.7135C16.2773 23.9115 16.3133 24.1275 16.4033 24.3255Z" fill="#CD7900"/>
<path d="M12.5771 30.5779C18.3673 34.7294 26.4266 33.4009 30.5781 27.6108C34.7296 21.8206 33.4012 13.7612 27.611 9.60973C21.8208 5.45823 13.7615 6.78665 9.60999 12.5768C5.45849 18.367 6.78691 26.4264 12.5771 30.5779Z" stroke="#D7975D" stroke-width="3"/>
</g>
<defs>
<clipPath id="clip0_180_164">
<rect width="41" height="42" fill="white"/>
</clipPath>
</defs>
</svg>
