<svg width="24" height="28" viewBox="0 0 24 28" fill="none" xmlns="http://www.w3.org/2000/svg">
<path d="M23.25 28H0.75V0H23.25V28Z" stroke="#E5E7EB"/>
<g clip-path="url(#clip0_241_1540)">
<path d="M12.8203 7.64062C13.2656 7.36719 13.5625 6.87109 13.5625 6.3125C13.5625 5.44922 12.8633 4.75 12 4.75C11.1367 4.75 10.4375 5.44922 10.4375 6.3125C10.4375 6.875 10.7344 7.36719 11.1797 7.64062L8.94141 12.1172C8.58594 12.8281 7.66406 13.0312 7.04297 12.5352L3.5625 9.75C3.75781 9.48828 3.875 9.16406 3.875 8.8125C3.875 7.94922 3.17578 7.25 2.3125 7.25C1.44922 7.25 0.75 7.94922 0.75 8.8125C0.75 9.67578 1.44922 10.375 2.3125 10.375C2.32031 10.375 2.33203 10.375 2.33984 10.375L4.125 20.1953C4.33984 21.3828 5.375 22.25 6.58594 22.25H17.4141C18.6211 22.25 19.6562 21.3867 19.875 20.1953L21.6602 10.375C21.668 10.375 21.6797 10.375 21.6875 10.375C22.5508 10.375 23.25 9.67578 23.25 8.8125C23.25 7.94922 22.5508 7.25 21.6875 7.25C20.8242 7.25 20.125 7.94922 20.125 8.8125C20.125 9.16406 20.2422 9.48828 20.4375 9.75L16.957 12.5352C16.3359 13.0312 15.4141 12.8281 15.0586 12.1172L12.8203 7.64062Z" fill="#CA8A04"/>
</g>
<defs>
<clipPath id="clip0_241_1540">
<path d="M0.75 3.5H23.25V23.5H0.75V3.5Z" fill="white"/>
</clipPath>
</defs>
</svg>
