<svg width="30" height="31" viewBox="0 0 30 31" fill="none" xmlns="http://www.w3.org/2000/svg">
<g clip-path="url(#clip0_245_1060)">
<mask id="mask0_245_1060" style="mask-type:luminance" maskUnits="userSpaceOnUse" x="0" y="0" width="30" height="31">
<path d="M30 0.375H0V30.375H30V0.375Z" fill="white"/>
</mask>
<g mask="url(#mask0_245_1060)">
<path d="M12.0137 16.7228L17.6617 13.4619" stroke="#AFAFAF" stroke-width="3"/>
<path d="M19.5701 6.33484C18.7597 4.93116 16.9648 4.45022 15.5611 5.26064C14.1574 6.07105 13.6765 7.86594 14.4869 9.26962L20.0304 18.8712C20.8408 20.2749 22.6357 20.7558 24.0394 19.9454C25.4431 19.135 25.924 17.3401 25.1136 15.9364L19.5701 6.33484Z" fill="#22C55E"/>
<path d="M9.97051 11.8783C9.16009 10.4746 7.3652 9.99368 5.96152 10.8041C4.55783 11.6145 4.0769 13.4094 4.88731 14.8131L10.4308 24.4147C11.2412 25.8184 13.0361 26.2993 14.4398 25.4889C15.8435 24.6785 16.3244 22.8836 15.514 21.4799L9.97051 11.8783Z" fill="#22C55E"/>
<path d="M24.8279 6.3114C24.0175 4.90772 22.2226 4.42678 20.8189 5.2372C19.4153 6.04762 18.9343 7.8425 19.7447 9.24619L22.6795 14.3294C23.4899 15.7331 25.2848 16.214 26.6885 15.4036C28.0922 14.5932 28.5731 12.7983 27.7627 11.3946L24.8279 6.3114Z" fill="#22C55E"/>
<path d="M7.32011 16.4203C6.5097 15.0166 4.71481 14.5357 3.31113 15.3461C1.90744 16.1565 1.4265 17.9514 2.23692 19.3551L5.17171 24.4383C5.98212 25.842 7.77701 26.3229 9.18069 25.5125C10.5844 24.7021 11.0653 22.9072 10.2549 21.5035L7.32011 16.4203Z" fill="#22C55E"/>
<path opacity="0.3" d="M5.56243 17.3348C5.29229 16.8669 4.694 16.7066 4.2261 16.9767C3.75821 17.2468 3.5979 17.8451 3.86804 18.313L4.52021 19.4426C4.79035 19.9105 5.38864 20.0708 5.85654 19.8007C6.32443 19.5305 6.48475 18.9323 6.21461 18.4644L5.56243 17.3348Z" fill="white"/>
<path opacity="0.3" d="M23.8222 7.55204C23.5521 7.08415 22.9538 6.92384 22.4859 7.19398C22.018 7.46411 21.8577 8.06241 22.1278 8.5303L22.78 9.6599C23.0501 10.1278 23.6484 10.2881 24.1163 10.018C24.5842 9.74783 24.7445 9.14954 24.4744 8.68164L23.8222 7.55204Z" fill="white"/>
<path opacity="0.3" d="M8.16986 12.7693C7.89972 12.3014 7.30142 12.1411 6.83353 12.4113C6.36563 12.6814 6.20532 13.2797 6.47546 13.7476L7.45372 15.442C7.72386 15.9099 8.32215 16.0702 8.79005 15.8001C9.25794 15.5299 9.41826 14.9316 9.14812 14.4637L8.16986 12.7693Z" fill="white"/>
<path opacity="0.3" d="M17.9531 7.55204C17.6829 7.08415 17.0846 6.92384 16.6167 7.19398C16.1488 7.46411 15.9885 8.06241 16.2587 8.5303L17.2369 10.2247C17.5071 10.6926 18.1054 10.8529 18.5733 10.5828C19.0411 10.3126 19.2015 9.71434 18.9313 9.24644L17.9531 7.55204Z" fill="white"/>
</g>
</g>
<defs>
<clipPath id="clip0_245_1060">
<rect width="30" height="30" fill="white" transform="translate(0 0.375)"/>
</clipPath>
</defs>
</svg>
