<svg width="100" height="120" viewBox="0 0 100 120" fill="none" xmlns="http://www.w3.org/2000/svg">
<path opacity="0.3" d="M95 50.6665H5C2.23858 50.6665 0 53.0543 0 55.9998V98.6665C0 101.612 2.23858 104 5 104H95C97.7614 104 100 101.612 100 98.6665V55.9998C100 53.0543 97.7614 50.6665 95 50.6665Z" fill="#52656D"/>
<path d="M10.541 52.982C10.541 45.6 16.1513 39.6157 23.0719 39.6157H76.1245C83.0451 39.6157 88.6555 45.6 88.6555 52.982V88.4269C88.6555 91.3797 86.4114 93.7735 83.6431 93.7735H15.5534C12.7851 93.7735 10.541 91.3797 10.541 88.4269V52.982Z" fill="#37464F"/>
<path d="M7.83203 33.6368C7.83203 26.2548 13.4424 20.2705 20.363 20.2705H79.2581C86.1787 20.2705 91.789 26.2548 91.789 33.6368V73.4016H7.83203V33.6368Z" fill="#37464F"/>
<path d="M96.3275 57.0288H4.06641V72.4H96.3275V57.0288Z" fill="#5F7888"/>
<path d="M83.957 33.9692H93.8275C95.2117 33.9692 96.3338 35.166 96.3338 36.6424V61.0359H83.957V33.9692Z" fill="#5F7888"/>
<path d="M4.06641 36.6424C4.06641 35.166 5.18846 33.9692 6.57258 33.9692H14.5635C15.9476 33.9692 17.0696 35.166 17.0696 36.6424V58.3627C17.0696 59.8391 15.9476 61.0359 14.5635 61.0359H6.57258C5.18846 61.0359 4.06641 59.8391 4.06641 58.3627V36.6424Z" fill="#5F7888"/>
<path d="M7.83203 18.6732C7.83203 17.1968 8.95408 16 10.3382 16H23.4956C24.8797 16 26.0019 17.1968 26.0019 18.6732V46.0036H7.83203V18.6732Z" fill="#5F7888"/>
<path d="M73.6211 18.6732C73.6211 17.1968 74.7432 16 76.1273 16H89.2847C90.6688 16 91.791 17.1968 91.791 18.6732V46.0036H73.6211V18.6732Z" fill="#5F7888"/>
<path d="M7.99805 32.1928L25.9332 27.4297V44.2962L7.99805 44.0618V32.1928Z" fill="#6F8B9D"/>
<path d="M7.83203 42.2998H26.0019V61.6261H7.83203V42.2998Z" fill="#4F6471"/>
<path d="M7.83203 70.0581C7.83203 68.5817 8.95408 67.3848 10.3382 67.3848H23.4956C24.8797 67.3848 26.0019 68.5817 26.0019 70.0581V93.8537C26.0019 95.3301 24.8797 96.527 23.4956 96.527H10.3382C8.95408 96.527 7.83203 95.3301 7.83203 93.8537V70.0581Z" fill="#4F6471"/>
<path d="M71.9746 70.0581C71.9746 68.5817 73.0966 67.3848 74.4807 67.3848H87.6382C89.0224 67.3848 90.1444 68.5817 90.1444 70.0581V93.8537C90.1444 95.3301 89.0224 96.527 87.6382 96.527H74.4807C73.0966 96.527 71.9746 95.3301 71.9746 93.8537V70.0581Z" fill="#4F6471"/>
<path d="M91.7908 42.2998H73.6211V61.6261H91.7908V42.2998Z" fill="#4F6471"/>
<path d="M53.2572 66.5503H46.3652V79.4989H53.2572V66.5503Z" fill="#C4C4C4"/>
<path d="M26.0018 73.7437H7.83203V80.2597H26.0018V73.7437Z" fill="#375161"/>
<path d="M90.1444 73.7437H71.9746V80.2597H90.1444V73.7437Z" fill="#375161"/>
<path d="M71.9688 85.0908H25.9961V88.5995H71.9688V85.0908Z" fill="#293D49"/>
<path d="M73.6135 31.5195H25.9961V35.0282H73.6135V31.5195Z" fill="#293D49"/>
<path opacity="0.92" d="M71.9688 73.7437H25.9961V80.2597H71.9688V73.7437Z" fill="#293D49"/>
<path opacity="0.92" d="M73.6135 47.0728H25.9961V57.027H73.6135V47.0728Z" fill="#293D49"/>
<path d="M4.06641 61.6211H96.3276V73.7343C96.3276 75.2107 95.2055 76.4076 93.8213 76.4076H6.57258C5.18846 76.4076 4.06641 75.2107 4.06641 73.7343V61.6211Z" fill="#4F6471"/>
<path d="M58.7369 51.1772H40.0972C38.021 51.1772 36.3379 52.9725 36.3379 55.1871V71.435C36.3379 73.6496 38.021 75.4448 40.0972 75.4448H58.7369C60.8131 75.4448 62.4961 73.6496 62.4961 71.435V55.1871C62.4961 52.9725 60.8131 51.1772 58.7369 51.1772Z" fill="#5F7888"/>
<path d="M42.1828 51.1772H40.0971C38.0209 51.1772 36.3379 52.9724 36.3379 55.1871V71.435C36.3379 73.6495 38.0209 75.4448 40.0971 75.4448H41.3521C42.0088 75.4448 42.5373 74.869 42.5231 74.1686L42.1828 57.2971V51.1772Z" fill="#6F8B9D"/>
<path d="M58.7369 57.1509H40.0972C38.021 57.1509 36.3379 58.9462 36.3379 61.1608V77.0619C36.3379 79.2765 38.021 81.0718 40.0972 81.0718H58.7369C60.8131 81.0718 62.4961 79.2765 62.4961 77.0619V61.1608C62.4961 58.9462 60.8131 57.1509 58.7369 57.1509Z" fill="#4F6471"/>
<path d="M48.9848 71.0004C51.7098 71.0004 53.9189 68.8844 53.9189 66.2741C53.9189 63.6639 51.7098 61.5479 48.9848 61.5479C46.2598 61.5479 44.0508 63.6639 44.0508 66.2741C44.0508 68.8844 46.2598 71.0004 48.9848 71.0004Z" fill="#2A3E4A"/>
<path d="M47.8637 68.8042C48.3254 67.8192 49.6434 67.8192 50.1052 68.8042L52.3506 73.5941C52.7672 74.4828 52.1613 75.5285 51.2298 75.5285H46.7391C45.8074 75.5285 45.2017 74.4828 45.6183 73.5941L47.8637 68.8042Z" fill="#2A3E4A"/>
<path d="M73.6621 21.8465L91.7506 17.1909V27.8105L73.6621 32.4663V21.8465Z" fill="#6F8B9D"/>
<path d="M36.34 56.4775H25.7871V61.5482H36.34V56.4775Z" fill="#6F8B9D"/>
</svg>
