<svg width="24" height="21" viewBox="0 0 24 21" fill="none" xmlns="http://www.w3.org/2000/svg">
<g clip-path="url(#clip0_322_618)">
<g clip-path="url(#clip1_322_618)">
<path d="M13.0042 1.20312C12.7971 0.773438 12.3596 0.5 11.8792 0.5C11.3987 0.5 10.9651 0.773438 10.7542 1.20312L8.24244 6.37109L2.63306 7.19922C2.16431 7.26953 1.77369 7.59766 1.62916 8.04688C1.48463 8.49609 1.60181 8.99219 1.93775 9.32422L6.00806 13.3516L5.04713 19.043C4.969 19.5117 5.16431 19.9883 5.55103 20.2656C5.93775 20.543 6.44947 20.5781 6.87135 20.3555L11.8831 17.6797L16.8948 20.3555C17.3167 20.5781 17.8284 20.5469 18.2151 20.2656C18.6018 19.9844 18.7971 19.5117 18.719 19.043L17.7542 13.3516L21.8245 9.32422C22.1604 8.99219 22.2815 8.49609 22.1331 8.04688C21.9846 7.59766 21.5979 7.26953 21.1292 7.19922L15.5159 6.37109L13.0042 1.20312Z" fill="#EAB308"/>
</g>
</g>
<defs>
<clipPath id="clip0_322_618">
<rect width="22.5" height="20" fill="white" transform="translate(0.625 0.5)"/>
</clipPath>
<clipPath id="clip1_322_618">
<path d="M0.625 0.5H23.125V20.5H0.625V0.5Z" fill="white"/>
</clipPath>
</defs>
</svg>
