<svg width="94" height="98" viewBox="0 0 94 98" fill="none" xmlns="http://www.w3.org/2000/svg">
<g clip-path="url(#clip0_180_408)">
<path d="M111.712 62.3082C110.111 89.8211 86.8674 111.191 59.7959 110.04C32.7244 108.889 12.0763 85.6529 13.677 58.14C15.2778 30.6272 38.5212 9.25665 65.5927 10.4077C92.6642 11.5587 113.313 34.7954 111.712 62.3082Z" fill="#FF9600"/>
<path d="M59.5242 114.696C90.083 115.995 115.204 92.0323 116.921 62.5295C118.637 33.0267 96.4215 7.05141 65.8627 5.75212C35.3038 4.45284 10.1827 28.4155 8.46611 57.9183C6.7496 87.4211 28.9653 113.397 59.5242 114.696Z" stroke="white" stroke-opacity="0.1" stroke-width="9.8965"/>
<path opacity="0.4" d="M46.029 59.5164C55.2333 59.9077 63.136 52.6418 63.6803 43.2874C64.2245 33.933 57.2042 26.0326 47.9999 25.6412C38.7956 25.2499 30.8928 32.5158 30.3485 41.8702C29.8043 51.2246 36.8246 59.1251 46.029 59.5164Z" fill="white"/>
<path fill-rule="evenodd" clip-rule="evenodd" d="M83.2029 36.8195C82.1212 34.9391 79.7278 34.3316 77.8571 35.4625C75.9863 36.5934 75.3466 39.0345 76.4283 40.9149C77.0821 42.0516 75.8962 43.3426 74.5192 42.993L56.4693 38.4111C49.5206 36.6472 42.3821 40.9626 40.5248 48.0499L39.3485 52.5384C38.7906 54.6677 40.0306 56.8235 42.1182 57.3534C44.2059 57.8834 46.3506 56.5868 46.9086 54.4576L48.0849 49.969C48.8261 47.1403 51.6753 45.4179 54.4486 46.1219L72.684 50.751C74.0449 51.0964 74.3275 52.7062 73.1521 53.4168C71.2813 54.5477 70.6416 56.9889 71.7232 58.8692C72.8049 60.7496 75.1982 61.3572 77.069 60.2263L88.0222 53.6048C88.9849 53.096 89.7444 52.1915 90.0446 51.046C90.1434 50.6689 90.1858 50.2909 90.1771 49.9212C90.1634 49.2745 89.9935 48.6248 89.6519 48.0309L83.2029 36.8195ZM52.9683 62.6567C54.0499 64.5371 53.4102 66.9782 51.5395 68.1091C50.3594 68.8225 50.6432 70.4387 52.0094 70.7855L70.2414 75.4137C73.0147 76.1177 75.8639 74.3953 76.6051 71.5667L77.7814 67.0781C78.3394 64.9488 80.4841 63.6523 82.5717 64.1822C84.6594 64.7122 85.8994 66.8679 85.3414 68.9972L84.1652 73.4858C82.3079 80.573 75.1693 84.8885 68.2207 83.1246L50.1648 78.5411C48.7932 78.1929 47.612 79.4788 48.2633 80.6111C49.3449 82.4915 48.7052 84.9326 46.8344 86.0635C44.9637 87.1944 42.5703 86.5869 41.4887 84.7065L35.1051 73.6089C34.5525 72.7183 34.3543 71.6004 34.6454 70.4896C34.7873 69.9483 35.0317 69.4608 35.3516 69.0435C35.6503 68.6528 36.0247 68.3109 36.4684 68.0426L47.6225 61.2997C49.4933 60.1688 51.8867 60.7764 52.9683 62.6567Z" fill="white"/>
</g>
<defs>
<clipPath id="clip0_180_408">
<rect width="94" height="98" fill="white"/>
</clipPath>
</defs>
</svg>
