<svg width="18" height="28" viewBox="0 0 18 28" fill="none" xmlns="http://www.w3.org/2000/svg">
<path d="M17.75 28H0.25V0H17.75V28Z" stroke="#E5E7EB"/>
<g clip-path="url(#clip0_241_1528)">
<path d="M13.8981 5.24254C14.1286 4.70738 13.9567 4.08238 13.484 3.73863C13.0114 3.39488 12.3669 3.42613 11.9254 3.80895L1.92545 12.5589C1.53482 12.9027 1.3942 13.4535 1.57779 13.9379C1.76138 14.4222 2.23013 14.7504 2.74967 14.7504H7.10513L4.10123 21.7582C3.87076 22.2933 4.04263 22.9183 4.51529 23.2621C4.98795 23.6058 5.63248 23.5746 6.07388 23.1918L16.0739 14.4418C16.4645 14.098 16.6051 13.5472 16.4215 13.0629C16.2379 12.5785 15.7731 12.2543 15.2497 12.2543H10.8942L13.8981 5.24254Z" fill="#2563EB"/>
</g>
<defs>
<clipPath id="clip0_241_1528">
<path d="M0.25 3.5H17.75V23.5H0.25V3.5Z" fill="white"/>
</clipPath>
</defs>
</svg>
